<?xml version="1.0" encoding="UTF-8"?>
<!DOCTYPE svg PUBLIC "-//W3C//DTD SVG 1.1//EN" "http://www.w3.org/Graphics/SVG/1.1/DTD/svg11.dtd">
<!-- Creator: CorelDRAW 2019 (64-Bit) -->
<svg xmlns="http://www.w3.org/2000/svg" xml:space="preserve" width="50px" height="50px" version="1.1" style="shape-rendering:geometricPrecision; text-rendering:geometricPrecision; image-rendering:optimizeQuality; fill-rule:evenodd; clip-rule:evenodd"
viewBox="0 0 50 50"
 xmlns:xlink="http://www.w3.org/1999/xlink"
 xmlns:xodm="http://www.corel.com/coreldraw/odm/2003">
 <defs>
  <style type="text/css">
   <![CDATA[
    .fil1 {fill:none}
    .fil0 {fill:#E3E3DE}
   ]]>
  </style>
 </defs>
 <g id="Ebene_x0020_1">
  <metadata id="CorelCorpID_0Corel-Layer"/>
  <path class="fil0" d="M17.01 32.87l-13.91 3.83c-2.47,-8.94 0.03,-18.51 6.54,-25.12 10.06,-10.2 26.5,-10.32 36.7,-0.26l-10.13 10.28c-3.77,-3.72 -9.75,-4.46 -14.37,-1.45 -4.32,2.8 -6.13,8.01 -4.83,12.72z"/>
  <path class="fil0" d="M21.72 38.74l-5.5 8.1c-4.07,-2.77 -7.04,-6.88 -8.38,-11.63 -3.15,-11.13 3.32,-22.71 14.46,-25.86 11.13,-3.15 22.71,3.32 25.86,14.46l-9.42 2.66c-1.68,-5.93 -7.85,-9.38 -13.78,-7.7 -5.93,1.68 -9.38,7.85 -7.7,13.78 0.74,2.63 2.37,4.77 4.46,6.19z"/>
  <path class="fil0" d="M28 40.67l0 4.88c-8.86,0 -16.04,-7.18 -16.04,-16.04 0,-8.86 7.18,-16.04 16.04,-16.04 8.86,0 16.04,7.18 16.04,16.04l-4.88 0c0,-6.16 -5,-11.16 -11.16,-11.16 -6.17,0 -11.16,5 -11.16,11.16 0,6.17 4.99,11.16 11.16,11.16z"/>
  <rect class="fil1" width="50" height="50"/>
 </g>
</svg>
