<?xml version="1.0" encoding="UTF-8"?>
<!DOCTYPE svg PUBLIC "-//W3C//DTD SVG 1.1//EN" "http://www.w3.org/Graphics/SVG/1.1/DTD/svg11.dtd">
<!-- Creator: CorelDRAW 2019 (64-Bit) -->
<svg xmlns="http://www.w3.org/2000/svg" xml:space="preserve" width="100%" height="100%" version="1.1" style="shape-rendering:geometricPrecision; text-rendering:geometricPrecision; image-rendering:optimizeQuality; fill-rule:evenodd; clip-rule:evenodd"
viewBox="0 0 15000 7500"
 xmlns:xlink="http://www.w3.org/1999/xlink"
 xmlns:xodm="http://www.corel.com/coreldraw/odm/2003">
 <defs>
  <style type="text/css">
   <![CDATA[
    .str0 {stroke:#FEFEFE;stroke-width:105.83;stroke-miterlimit:22.9256}
    .fil2 {fill:#A0D0EE}
    .fil3 {fill:#4BBAEB}
    .fil7 {fill:#007BC1}
    .fil9 {fill:#707070}
    .fil8 {fill:#898989}
    .fil1 {fill:#B3B4B4}
    .fil0 {fill:#CCCCCD}
    .fil12 {fill:#A0D0EE;fill-rule:nonzero}
    .fil6 {fill:#A0D0EE;fill-rule:nonzero}
    .fil13 {fill:#4BBAEB;fill-rule:nonzero}
    .fil5 {fill:#4BBAEB;fill-rule:nonzero}
    .fil11 {fill:#007BC1;fill-rule:nonzero}
    .fil4 {fill:#007BC1;fill-rule:nonzero}
    .fil10 {fill:#707070;fill-rule:nonzero}
   ]]>
  </style>
 </defs>
 <g id="Ebene_x0020_1">
  <metadata id="CorelCorpID_0Corel-Layer"/>
  <path class="fil0 str0" d="M2880.03 3803.97l-2739.66 0c0,1513.08 1226.59,2739.67 2739.66,2739.67 1513.08,0 2739.67,-1226.59 2739.67,-2739.67 0,-644.09 -226.93,-1267.6 -640.96,-1761.02l-2098.71 1761.02z"/>
  <path class="fil1 str0" d="M2880.03 3803.97l-1574 1574.01c417.46,417.45 983.64,651.97 1574,651.97 1229.38,0 2225.98,-996.6 2225.98,-2225.98 0,-259.66 -45.43,-517.32 -134.24,-761.32l-2091.74 761.32z"/>
  <path class="fil2 str0" d="M2880.03 3803.97l2098.71 -1761.02c-520.54,-620.36 -1288.87,-978.64 -2098.71,-978.64 -1513.07,0 -2739.66,1226.59 -2739.66,2739.66l2739.66 0z"/>
  <path class="fil3 str0" d="M2880.03 3803.97l2091.74 -761.32c-320.07,-879.36 -1155.93,-1464.65 -2091.74,-1464.65 -1229.37,0 -2225.97,996.6 -2225.97,2225.97 0,590.37 234.52,1156.55 651.97,1574.01l1574 -1574.01z"/>
  <path class="fil4" d="M7198.71 4818.13l57.79 7.62c-9,33.55 -25.83,59.69 -50.38,78.21 -24.55,18.52 -55.88,27.84 -94.09,27.84 -48.05,0 -86.15,-14.82 -114.3,-44.46 -28.15,-29.52 -42.22,-71.12 -42.22,-124.56 0,-55.25 14.18,-98.21 42.65,-128.69 28.47,-30.59 65.4,-45.83 110.8,-45.83 43.92,0 79.8,14.92 107.64,44.87 27.83,29.95 41.8,72.08 41.8,126.37 0,3.28 -0.11,8.25 -0.32,14.81l-245.42 0c2.11,36.09 12.27,63.82 30.69,82.98 18.31,19.15 41.27,28.78 68.68,28.78 20.43,0 37.89,-5.39 52.28,-16.19 14.5,-10.79 25.93,-28.04 34.4,-51.75zm-182.88 -89.54l183.52 0c-2.44,-27.72 -9.53,-48.47 -21.07,-62.33 -17.67,-21.49 -40.74,-32.28 -69,-32.28 -25.61,0 -47.09,8.57 -64.56,25.72 -17.35,17.14 -26.98,40.11 -28.89,68.89z"/>
  <path id="1" class="fil4" d="M7327.09 4924.81l0 -329.57 50.17 0 0 46.78c24.13,-35.87 59.05,-53.76 104.66,-53.76 19.9,0 38.1,3.6 54.72,10.69 16.62,7.09 29.1,16.51 37.36,28.04 8.25,11.54 14.08,25.3 17.36,41.17 2.01,10.38 3.07,28.47 3.07,54.3l0 202.35 -55.88 0 0 -200.24c0,-22.75 -2.12,-39.79 -6.46,-51.01 -4.34,-11.22 -12.07,-20.21 -23.07,-26.99 -11.01,-6.66 -24.03,-10.05 -38.84,-10.05 -23.71,0 -44.14,7.51 -61.39,22.65 -17.25,15.03 -25.82,43.71 -25.82,85.83l0 179.81 -55.88 0z"/>
  <path id="2" class="fil4" d="M7801.55 4874.96l7.62 49.32c-15.67,3.28 -29.74,4.98 -42.02,4.98 -20.21,0 -35.88,-3.18 -47.1,-9.64 -11.11,-6.45 -18.94,-14.81 -23.49,-25.29 -4.55,-10.48 -6.77,-32.49 -6.77,-66.04l0 -189.87 -41.28 0 0 -43.18 41.28 0 0 -81.49 55.88 -33.55 0 115.04 55.88 0 0 43.18 -55.88 0 0 193.04c0,15.99 0.95,26.25 2.96,30.8 1.9,4.55 5.08,8.15 9.52,10.9 4.45,2.65 10.8,4.02 19.05,4.02 6.14,0 14.29,-0.74 24.35,-2.22z"/>
  <path id="3" class="fil4" d="M7856.68 4533.65l0 -63.5 55.88 0 0 63.5 -55.88 0zm0 391.16l0 -329.57 55.88 0 0 329.57 -55.88 0z"/>
  <path id="4" class="fil4" d="M8119.05 4874.96l7.62 49.32c-15.67,3.28 -29.74,4.98 -42.02,4.98 -20.21,0 -35.88,-3.18 -47.1,-9.64 -11.11,-6.45 -18.94,-14.81 -23.49,-25.29 -4.55,-10.48 -6.77,-32.49 -6.77,-66.04l0 -189.87 -41.28 0 0 -43.18 41.28 0 0 -81.49 55.88 -33.55 0 115.04 55.88 0 0 43.18 -55.88 0 0 193.04c0,15.99 0.95,26.25 2.96,30.8 1.9,4.55 5.08,8.15 9.52,10.9 4.45,2.65 10.8,4.02 19.05,4.02 6.14,0 14.29,-0.74 24.35,-2.22z"/>
  <path id="5" class="fil4" d="M8174.18 4533.65l0 -63.5 55.88 0 0 63.5 -55.88 0zm0 391.16l0 -329.57 55.88 0 0 329.57 -55.88 0z"/>
  <path id="6" class="fil4" d="M8540.05 4818.13l57.79 7.62c-9,33.55 -25.83,59.69 -50.38,78.21 -24.55,18.52 -55.88,27.84 -94.09,27.84 -48.05,0 -86.15,-14.82 -114.3,-44.46 -28.15,-29.52 -42.22,-71.12 -42.22,-124.56 0,-55.25 14.18,-98.21 42.65,-128.69 28.47,-30.59 65.4,-45.83 110.8,-45.83 43.92,0 79.8,14.92 107.64,44.87 27.83,29.95 41.8,72.08 41.8,126.37 0,3.28 -0.11,8.25 -0.32,14.81l-245.42 0c2.11,36.09 12.27,63.82 30.69,82.98 18.31,19.15 41.27,28.78 68.68,28.78 20.43,0 37.89,-5.39 52.28,-16.19 14.5,-10.79 25.93,-28.04 34.4,-51.75zm-182.88 -89.54l183.52 0c-2.44,-27.72 -9.53,-48.47 -21.07,-62.33 -17.67,-21.49 -40.74,-32.28 -69,-32.28 -25.61,0 -47.09,8.57 -64.56,25.72 -17.35,17.14 -26.98,40.11 -28.89,68.89z"/>
  <path id="7" class="fil4" d="M8646.21 4826.38l55.24 -8.89c3.07,22.12 11.75,39.06 25.93,50.91 14.18,11.75 34.08,17.67 59.48,17.67 25.72,0 44.77,-5.18 57.25,-15.66 12.39,-10.37 18.63,-22.65 18.63,-36.72 0,-12.6 -5.61,-22.55 -16.72,-29.74 -7.83,-4.98 -26.88,-11.22 -57.15,-18.95 -40.85,-10.26 -69.11,-19.15 -84.99,-26.67 -15.76,-7.62 -27.72,-17.99 -35.87,-31.32 -8.15,-13.23 -12.28,-27.94 -12.28,-44.03 0,-14.71 3.39,-28.26 10.05,-40.75 6.78,-12.48 15.88,-22.86 27.42,-31.11 8.67,-6.35 20.53,-11.75 35.45,-16.19 15.03,-4.45 31.01,-6.67 48.15,-6.67 25.83,0 48.48,3.7 67.95,11.22 19.58,7.41 33.97,17.57 43.28,30.27 9.21,12.8 15.67,29.84 19.16,51.22l-54.61 7.62c-2.43,-17.15 -9.63,-30.59 -21.48,-40.22 -11.86,-9.63 -28.58,-14.39 -50.27,-14.39 -25.51,0 -43.82,4.23 -54.72,12.7 -10.9,8.47 -16.4,18.41 -16.4,29.74 0,7.2 2.22,13.76 6.77,19.58 4.55,5.92 11.64,10.9 21.38,14.81 5.61,2.12 21.9,6.88 49.21,14.29 39.37,10.48 66.89,19.16 82.55,25.83 15.66,6.66 27.94,16.51 36.83,29.21 9,12.8 13.44,28.68 13.44,47.73 0,18.52 -5.4,35.98 -16.3,52.38 -10.9,16.41 -26.56,29.11 -46.99,38.1 -20.53,9 -43.71,13.45 -69.53,13.45 -42.76,0 -75.46,-8.9 -97.9,-26.57 -22.43,-17.78 -36.72,-44.03 -42.96,-78.85z"/>
  <path id="8" class="fil4" d="M9377.62 4883.53c-20.75,17.68 -40.75,30.06 -59.91,37.36 -19.15,7.31 -39.68,10.91 -61.7,10.91 -36.19,0 -64.03,-8.79 -83.5,-26.46 -19.47,-17.57 -29.21,-40.11 -29.21,-67.53 0,-16.08 3.7,-30.79 11.01,-44.13 7.41,-13.33 17.04,-23.92 28.89,-31.96 11.96,-8.04 25.29,-14.18 40.22,-18.31 11,-2.86 27.62,-5.61 49.74,-8.36 45.08,-5.29 78.42,-11.75 99.69,-19.16 0.21,-7.62 0.32,-12.48 0.32,-14.49 0,-22.65 -5.29,-38.63 -15.87,-47.95 -14.29,-12.59 -35.56,-18.84 -63.72,-18.84 -26.35,0 -45.82,4.66 -58.31,13.87 -12.59,9.21 -21.8,25.5 -27.83,49l-54.61 -7.62c4.97,-23.39 13.12,-42.33 24.55,-56.73 11.43,-14.39 27.94,-25.4 49.53,-33.23 21.48,-7.72 46.57,-11.64 74.93,-11.64 28.15,0 51.12,3.28 68.79,9.95 17.57,6.67 30.59,14.92 38.84,24.97 8.26,10.06 14.08,22.76 17.46,38.1 1.8,9.53 2.76,26.67 2.76,51.33l0 74.09c0,51.75 1.16,84.45 3.49,98.32 2.22,13.86 6.88,27.09 13.65,39.79l-58.42 0c-5.61,-11.75 -9.21,-25.51 -10.79,-41.28zm-4.45 -123.82c-20.32,8.25 -50.8,15.24 -91.44,20.95 -23.07,3.29 -39.37,6.99 -48.89,11.12 -9.53,4.12 -16.83,10.16 -22.02,17.99 -5.18,7.94 -7.83,16.72 -7.83,26.46 0,14.71 5.61,27.09 16.93,36.93 11.33,9.85 27.84,14.82 49.53,14.82 21.49,0 40.64,-4.66 57.47,-14.08 16.72,-9.31 29.11,-22.12 36.94,-38.31 6.03,-12.59 8.99,-31.11 8.99,-55.56l0.32 -20.32z"/>
  <path id="9" class="fil4" d="M9515.52 4924.81l0 -329.57 50.17 0 0 46.78c24.13,-35.87 59.05,-53.76 104.66,-53.76 19.9,0 38.1,3.6 54.72,10.69 16.62,7.09 29.1,16.51 37.36,28.04 8.25,11.54 14.08,25.3 17.36,41.17 2.01,10.38 3.07,28.47 3.07,54.3l0 202.35 -55.88 0 0 -200.24c0,-22.75 -2.12,-39.79 -6.46,-51.01 -4.34,-11.22 -12.07,-20.21 -23.07,-26.99 -11.01,-6.66 -24.03,-10.05 -38.84,-10.05 -23.71,0 -44.14,7.51 -61.39,22.65 -17.25,15.03 -25.82,43.71 -25.82,85.83l0 179.81 -55.88 0z"/>
  <path id="10" class="fil4" d="M10081.42 4924.81l0 -41.8c-20.85,32.49 -51.55,48.79 -92.08,48.79 -26.25,0 -50.38,-7.2 -72.28,-21.7 -22.02,-14.39 -39.06,-34.61 -51.23,-60.43 -12.06,-25.93 -18.09,-55.67 -18.09,-89.33 0,-32.8 5.5,-62.54 16.4,-89.32 11.01,-26.67 27.41,-47.2 49.32,-61.38 21.8,-14.29 46.35,-21.38 73.34,-21.38 19.9,0 37.57,4.23 53.02,12.59 15.45,8.36 28.05,19.37 37.79,32.81l0 -163.51 55.88 0 0 454.66 -52.07 0zm-176.53 -164.36c0,42.12 8.89,73.55 26.77,94.4 17.78,20.85 38.84,31.22 63.08,31.22 24.45,0 45.19,-9.94 62.33,-29.84 17.04,-19.9 25.62,-50.27 25.62,-91.12 0,-44.88 -8.68,-77.9 -26.15,-98.96 -17.35,-21.06 -38.84,-31.54 -64.34,-31.54 -24.87,0 -45.62,10.06 -62.34,30.27 -16.61,20.22 -24.97,52.07 -24.97,95.57z"/>
  <path id="11" class="fil4" d="M7189.19 5592.93c-20.75,17.68 -40.75,30.06 -59.91,37.36 -19.15,7.31 -39.68,10.91 -61.7,10.91 -36.19,0 -64.03,-8.79 -83.5,-26.46 -19.47,-17.57 -29.21,-40.11 -29.21,-67.53 0,-16.08 3.7,-30.79 11.01,-44.13 7.41,-13.33 17.04,-23.92 28.89,-31.96 11.96,-8.04 25.29,-14.18 40.22,-18.31 11,-2.86 27.62,-5.61 49.74,-8.36 45.08,-5.29 78.42,-11.75 99.69,-19.16 0.21,-7.62 0.32,-12.48 0.32,-14.49 0,-22.65 -5.29,-38.63 -15.87,-47.95 -14.29,-12.59 -35.56,-18.84 -63.72,-18.84 -26.35,0 -45.82,4.66 -58.31,13.87 -12.59,9.21 -21.8,25.5 -27.83,49l-54.61 -7.62c4.97,-23.39 13.12,-42.33 24.55,-56.73 11.43,-14.39 27.94,-25.4 49.53,-33.23 21.48,-7.72 46.57,-11.64 74.93,-11.64 28.15,0 51.12,3.28 68.79,9.95 17.57,6.67 30.59,14.92 38.84,24.97 8.26,10.06 14.08,22.76 17.46,38.1 1.8,9.53 2.76,26.67 2.76,51.33l0 74.09c0,51.75 1.16,84.45 3.49,98.32 2.22,13.86 6.88,27.09 13.65,39.79l-58.42 0c-5.61,-11.75 -9.21,-25.51 -10.79,-41.28zm-4.45 -123.82c-20.32,8.25 -50.8,15.24 -91.44,20.95 -23.07,3.29 -39.37,6.99 -48.89,11.12 -9.53,4.12 -16.83,10.16 -22.02,17.99 -5.18,7.94 -7.83,16.72 -7.83,26.46 0,14.71 5.61,27.09 16.93,36.93 11.33,9.85 27.84,14.82 49.53,14.82 21.49,0 40.64,-4.66 57.47,-14.08 16.72,-9.31 29.11,-22.12 36.94,-38.31 6.03,-12.59 8.99,-31.11 8.99,-55.56l0.32 -20.32z"/>
  <path id="12" class="fil4" d="M7378.53 5634.21l-52.07 0 0 -454.66 55.88 0 0 162.24c23.6,-29.42 53.65,-44.13 90.27,-44.13 20.22,0 39.48,4.02 57.57,12.17 18.1,8.15 32.92,19.69 44.67,34.4 11.64,14.81 20.85,32.59 27.41,53.44 6.66,20.75 9.95,43.08 9.95,66.78 0,56.31 -13.97,99.91 -41.81,130.6 -27.94,30.8 -61.38,46.15 -100.43,46.15 -38.85,0 -69.33,-16.2 -91.44,-48.48l0 41.49zm-0.64 -167.22c0,39.37 5.4,67.84 16.09,85.41 17.57,28.68 41.27,43.07 71.22,43.07 24.45,0 45.51,-10.58 63.19,-31.75 17.78,-21.16 26.67,-52.7 26.67,-94.61 0,-42.97 -8.47,-74.61 -25.51,-95.04 -17.04,-20.42 -37.68,-30.69 -61.81,-30.69 -24.44,0 -45.51,10.58 -63.18,31.75 -17.78,21.17 -26.67,51.75 -26.67,91.86z"/>
  <path id="13" class="fil4" d="M7658.04 5535.78l55.24 -8.89c3.07,22.12 11.75,39.06 25.93,50.91 14.18,11.75 34.08,17.67 59.48,17.67 25.72,0 44.77,-5.18 57.25,-15.66 12.39,-10.37 18.63,-22.65 18.63,-36.72 0,-12.6 -5.61,-22.55 -16.72,-29.74 -7.83,-4.98 -26.88,-11.22 -57.15,-18.95 -40.85,-10.26 -69.11,-19.15 -84.99,-26.67 -15.76,-7.62 -27.72,-17.99 -35.87,-31.32 -8.15,-13.23 -12.28,-27.94 -12.28,-44.03 0,-14.71 3.39,-28.26 10.05,-40.75 6.78,-12.48 15.88,-22.86 27.42,-31.11 8.67,-6.35 20.53,-11.75 35.45,-16.19 15.03,-4.45 31.01,-6.67 48.15,-6.67 25.83,0 48.48,3.7 67.95,11.22 19.58,7.41 33.97,17.57 43.28,30.27 9.21,12.8 15.67,29.84 19.16,51.22l-54.61 7.62c-2.43,-17.15 -9.63,-30.59 -21.48,-40.22 -11.86,-9.63 -28.58,-14.39 -50.27,-14.39 -25.51,0 -43.82,4.23 -54.72,12.7 -10.9,8.47 -16.4,18.41 -16.4,29.74 0,7.2 2.22,13.76 6.77,19.58 4.55,5.92 11.64,10.9 21.38,14.81 5.61,2.12 21.9,6.88 49.21,14.29 39.37,10.48 66.89,19.16 82.55,25.83 15.66,6.66 27.94,16.51 36.83,29.21 9,12.8 13.44,28.68 13.44,47.73 0,18.52 -5.4,35.98 -16.3,52.38 -10.9,16.41 -26.56,29.11 -46.99,38.1 -20.53,9 -43.71,13.45 -69.53,13.45 -42.76,0 -75.46,-8.9 -97.9,-26.57 -22.43,-17.78 -36.72,-44.03 -42.96,-78.85z"/>
  <path id="14" class="fil4" d="M8119.05 5584.36l7.62 49.32c-15.67,3.28 -29.74,4.98 -42.02,4.98 -20.21,0 -35.88,-3.18 -47.1,-9.64 -11.11,-6.45 -18.94,-14.81 -23.49,-25.29 -4.55,-10.48 -6.77,-32.49 -6.77,-66.04l0 -189.87 -41.28 0 0 -43.18 41.28 0 0 -81.49 55.88 -33.55 0 115.04 55.88 0 0 43.18 -55.88 0 0 193.04c0,15.99 0.95,26.25 2.96,30.8 1.9,4.55 5.08,8.15 9.52,10.9 4.45,2.65 10.8,4.02 19.05,4.02 6.14,0 14.29,-0.74 24.35,-2.22z"/>
  <path id="15" class="fil4" d="M8173.55 5634.21l0 -329.57 50.16 0 0 50.49c12.81,-23.39 24.66,-38.84 35.56,-46.25 10.9,-7.52 22.86,-11.22 35.88,-11.22 18.84,0 37.99,5.93 57.47,17.67l-19.9 51.54c-13.55,-7.62 -27.09,-11.43 -40.64,-11.43 -12.17,0 -23.07,3.71 -32.7,11.01 -9.63,7.3 -16.51,17.46 -20.64,30.48 -6.25,19.79 -9.31,41.49 -9.31,65.09l0 172.19 -55.88 0z"/>
  <path id="16" class="fil4" d="M8600.91 5592.93c-20.75,17.68 -40.75,30.06 -59.91,37.36 -19.15,7.31 -39.68,10.91 -61.7,10.91 -36.19,0 -64.03,-8.79 -83.5,-26.46 -19.47,-17.57 -29.21,-40.11 -29.21,-67.53 0,-16.08 3.7,-30.79 11.01,-44.13 7.41,-13.33 17.04,-23.92 28.89,-31.96 11.96,-8.04 25.29,-14.18 40.22,-18.31 11,-2.86 27.62,-5.61 49.74,-8.36 45.08,-5.29 78.42,-11.75 99.69,-19.16 0.21,-7.62 0.32,-12.48 0.32,-14.49 0,-22.65 -5.29,-38.63 -15.87,-47.95 -14.29,-12.59 -35.56,-18.84 -63.72,-18.84 -26.35,0 -45.82,4.66 -58.31,13.87 -12.59,9.21 -21.8,25.5 -27.83,49l-54.61 -7.62c4.97,-23.39 13.12,-42.33 24.55,-56.73 11.43,-14.39 27.94,-25.4 49.53,-33.23 21.48,-7.72 46.57,-11.64 74.93,-11.64 28.15,0 51.12,3.28 68.79,9.95 17.57,6.67 30.59,14.92 38.84,24.97 8.26,10.06 14.08,22.76 17.46,38.1 1.8,9.53 2.76,26.67 2.76,51.33l0 74.09c0,51.75 1.16,84.45 3.49,98.32 2.22,13.86 6.88,27.09 13.65,39.79l-58.42 0c-5.61,-11.75 -9.21,-25.51 -10.79,-41.28zm-4.45 -123.82c-20.32,8.25 -50.8,15.24 -91.44,20.95 -23.07,3.29 -39.37,6.99 -48.89,11.12 -9.53,4.12 -16.83,10.16 -22.02,17.99 -5.18,7.94 -7.83,16.72 -7.83,26.46 0,14.71 5.61,27.09 16.93,36.93 11.33,9.85 27.84,14.82 49.53,14.82 21.49,0 40.64,-4.66 57.47,-14.08 16.72,-9.31 29.11,-22.12 36.94,-38.31 6.03,-12.59 8.99,-31.11 8.99,-55.56l0.32 -20.32z"/>
  <path id="17" class="fil4" d="M8954.08 5513.56l54.61 7.62c-6.04,37.57 -21.28,66.89 -45.94,88.16 -24.66,21.27 -55.03,31.86 -90.91,31.86 -44.98,0 -81.17,-14.72 -108.48,-44.14 -27.41,-29.42 -41.06,-71.54 -41.06,-126.36 0,-35.56 5.93,-66.57 17.67,-93.24 11.75,-26.57 29.64,-46.57 53.77,-59.8 24.02,-13.33 50.16,-20 78.53,-20 35.66,0 64.98,9 87.63,27.09 22.75,18.1 37.36,43.82 43.71,77.05l-53.98 8.25c-5.19,-22.11 -14.29,-38.73 -27.52,-49.95 -13.12,-11.11 -28.99,-16.72 -47.62,-16.72 -28.15,0 -51.01,10.05 -68.69,30.16 -17.57,20.22 -26.35,51.97 -26.35,95.57 0,44.24 8.47,76.31 25.4,96.31 17.04,20 39.16,30.05 66.36,30.05 22.01,0 40.32,-6.66 54.93,-20.1 14.71,-13.34 24.02,-33.98 27.94,-61.81z"/>
  <path id="18" class="fil4" d="M9177.6 5584.36l7.62 49.32c-15.67,3.28 -29.74,4.98 -42.02,4.98 -20.21,0 -35.88,-3.18 -47.1,-9.64 -11.11,-6.45 -18.94,-14.81 -23.49,-25.29 -4.55,-10.48 -6.77,-32.49 -6.77,-66.04l0 -189.87 -41.28 0 0 -43.18 41.28 0 0 -81.49 55.88 -33.55 0 115.04 55.88 0 0 43.18 -55.88 0 0 193.04c0,15.99 0.95,26.25 2.96,30.8 1.9,4.55 5.08,8.15 9.52,10.9 4.45,2.65 10.8,4.02 19.05,4.02 6.14,0 14.29,-0.74 24.35,-2.22z"/>
  <path id="19" class="fil4" d="M9232.73 5243.05l0 -63.5 55.88 0 0 63.5 -55.88 0zm0 391.16l0 -329.57 55.88 0 0 329.57 -55.88 0z"/>
  <path id="20" class="fil4" d="M9352.86 5469.43c0,-60.86 16.93,-105.94 50.9,-135.26 28.26,-24.34 62.87,-36.51 103.61,-36.51 45.19,0 82.23,14.82 111.02,44.45 28.68,29.53 43.08,70.48 43.08,122.66 0,42.33 -6.35,75.57 -19.05,99.8 -12.7,24.24 -31.23,43.08 -55.57,56.52 -24.23,13.44 -50.8,20.11 -79.48,20.11 -46.14,0 -83.39,-14.72 -111.86,-44.24 -28.47,-29.53 -42.65,-72.08 -42.65,-127.53zm57.15 0.1c0,42.12 9.2,73.66 27.62,94.51 18.52,20.96 41.7,31.43 69.74,31.43 27.73,0 50.8,-10.47 69.32,-31.53 18.42,-21.06 27.63,-53.13 27.63,-96.21 0,-40.64 -9.32,-71.43 -27.84,-92.28 -18.52,-20.96 -41.59,-31.44 -69.11,-31.44 -28.04,0 -51.22,10.38 -69.74,31.23 -18.42,20.84 -27.62,52.28 -27.62,94.29z"/>
  <path id="21" class="fil4" d="M9726.98 5634.21l0 -329.57 50.17 0 0 46.78c24.13,-35.87 59.05,-53.76 104.66,-53.76 19.9,0 38.1,3.6 54.72,10.69 16.62,7.09 29.1,16.51 37.36,28.04 8.25,11.54 14.08,25.3 17.36,41.17 2.01,10.38 3.07,28.47 3.07,54.3l0 202.35 -55.88 0 0 -200.24c0,-22.75 -2.12,-39.79 -6.46,-51.01 -4.34,-11.22 -12.07,-20.21 -23.07,-26.99 -11.01,-6.66 -24.03,-10.05 -38.84,-10.05 -23.71,0 -44.14,7.51 -61.39,22.65 -17.25,15.03 -25.82,43.71 -25.82,85.83l0 179.81 -55.88 0z"/>
  <path id="22" class="fil4" d="M10057.93 5535.78l55.24 -8.89c3.07,22.12 11.75,39.06 25.93,50.91 14.18,11.75 34.08,17.67 59.48,17.67 25.72,0 44.77,-5.18 57.25,-15.66 12.39,-10.37 18.63,-22.65 18.63,-36.72 0,-12.6 -5.61,-22.55 -16.72,-29.74 -7.83,-4.98 -26.88,-11.22 -57.15,-18.95 -40.85,-10.26 -69.11,-19.15 -84.99,-26.67 -15.76,-7.62 -27.72,-17.99 -35.87,-31.32 -8.15,-13.23 -12.28,-27.94 -12.28,-44.03 0,-14.71 3.39,-28.26 10.05,-40.75 6.78,-12.48 15.88,-22.86 27.42,-31.11 8.67,-6.35 20.53,-11.75 35.45,-16.19 15.03,-4.45 31.01,-6.67 48.15,-6.67 25.83,0 48.48,3.7 67.95,11.22 19.58,7.41 33.97,17.57 43.28,30.27 9.21,12.8 15.67,29.84 19.16,51.22l-54.61 7.62c-2.43,-17.15 -9.63,-30.59 -21.48,-40.22 -11.86,-9.63 -28.58,-14.39 -50.27,-14.39 -25.51,0 -43.82,4.23 -54.72,12.7 -10.9,8.47 -16.4,18.41 -16.4,29.74 0,7.2 2.22,13.76 6.77,19.58 4.55,5.92 11.64,10.9 21.38,14.81 5.61,2.12 21.9,6.88 49.21,14.29 39.37,10.48 66.89,19.16 82.55,25.83 15.66,6.66 27.94,16.51 36.83,29.21 9,12.8 13.44,28.68 13.44,47.73 0,18.52 -5.4,35.98 -16.3,52.38 -10.9,16.41 -26.56,29.11 -46.99,38.1 -20.53,9 -43.71,13.45 -69.53,13.45 -42.76,0 -75.46,-8.9 -97.9,-26.57 -22.43,-17.78 -36.72,-44.03 -42.96,-78.85z"/>
  <path class="fil5" d="M6955.51 2634.49l0 -63.5 55.88 0 0 63.5 -55.88 0zm0 391.16l0 -329.57 55.88 0 0 329.57 -55.88 0z"/>
  <path id="1" class="fil5" d="M7096.59 3025.65l0 -329.57 50.17 0 0 46.78c24.13,-35.87 59.05,-53.76 104.66,-53.76 19.9,0 38.1,3.6 54.72,10.69 16.62,7.09 29.1,16.51 37.36,28.04 8.25,11.54 14.08,25.3 17.36,41.17 2.01,10.38 3.07,28.47 3.07,54.3l0 202.35 -55.88 0 0 -200.24c0,-22.75 -2.12,-39.79 -6.46,-51.01 -4.34,-11.22 -12.07,-20.21 -23.07,-26.99 -11.01,-6.66 -24.03,-10.05 -38.84,-10.05 -23.71,0 -44.14,7.51 -61.39,22.65 -17.25,15.03 -25.82,43.71 -25.82,85.83l0 179.81 -55.88 0z"/>
  <path id="2" class="fil5" d="M7463.1 3025.65l0 -286.39 -49.53 0 0 -43.18 49.53 0 0 -34.92c0,-22.12 1.9,-38.52 5.82,-49.21 5.39,-14.4 14.71,-26.14 28.25,-35.14 13.44,-9 32.39,-13.44 56.73,-13.44 15.77,0 33.13,1.9 52.18,5.61l-8.36 48.89c-11.65,-2.01 -22.55,-3.07 -32.92,-3.07 -16.93,0 -28.89,3.6 -35.98,10.8 -6.99,7.2 -10.48,20.64 -10.48,40.32l0 30.16 64.14 0 0 43.18 -63.5 0 0 286.39 -55.88 0z"/>
  <path id="3" class="fil5" d="M7625.55 3025.65l0 -329.57 50.16 0 0 50.49c12.81,-23.39 24.66,-38.84 35.56,-46.25 10.9,-7.52 22.86,-11.22 35.88,-11.22 18.84,0 37.99,5.93 57.47,17.67l-19.9 51.54c-13.55,-7.62 -27.09,-11.43 -40.64,-11.43 -12.17,0 -23.07,3.71 -32.7,11.01 -9.63,7.3 -16.51,17.46 -20.64,30.48 -6.25,19.79 -9.31,41.49 -9.31,65.09l0 172.19 -55.88 0z"/>
  <path id="4" class="fil5" d="M8052.91 2984.37c-20.75,17.68 -40.75,30.06 -59.91,37.36 -19.15,7.31 -39.68,10.91 -61.7,10.91 -36.19,0 -64.03,-8.79 -83.5,-26.46 -19.47,-17.57 -29.21,-40.11 -29.21,-67.53 0,-16.08 3.7,-30.79 11.01,-44.13 7.41,-13.33 17.04,-23.92 28.89,-31.96 11.96,-8.04 25.29,-14.18 40.22,-18.31 11,-2.86 27.62,-5.61 49.74,-8.36 45.08,-5.29 78.42,-11.75 99.69,-19.16 0.21,-7.62 0.32,-12.48 0.32,-14.49 0,-22.65 -5.29,-38.63 -15.87,-47.95 -14.29,-12.59 -35.56,-18.84 -63.72,-18.84 -26.35,0 -45.82,4.66 -58.31,13.87 -12.59,9.21 -21.8,25.5 -27.83,49l-54.61 -7.62c4.97,-23.39 13.12,-42.33 24.55,-56.73 11.43,-14.39 27.94,-25.4 49.53,-33.23 21.48,-7.72 46.57,-11.64 74.93,-11.64 28.15,0 51.12,3.28 68.79,9.95 17.57,6.67 30.59,14.92 38.84,24.97 8.26,10.06 14.08,22.76 17.46,38.1 1.8,9.53 2.76,26.67 2.76,51.33l0 74.09c0,51.75 1.16,84.45 3.49,98.32 2.22,13.86 6.88,27.09 13.65,39.79l-58.42 0c-5.61,-11.75 -9.21,-25.51 -10.79,-41.28zm-4.45 -123.82c-20.32,8.25 -50.8,15.24 -91.44,20.95 -23.07,3.29 -39.37,6.99 -48.89,11.12 -9.53,4.12 -16.83,10.16 -22.02,17.99 -5.18,7.94 -7.83,16.72 -7.83,26.46 0,14.71 5.61,27.09 16.93,36.93 11.33,9.85 27.84,14.82 49.53,14.82 21.49,0 40.64,-4.66 57.47,-14.08 16.72,-9.31 29.11,-22.12 36.94,-38.31 6.03,-12.59 8.99,-31.11 8.99,-55.56l0.32 -20.32z"/>
  <path id="5" class="fil5" d="M8168.59 2927.22l55.24 -8.89c3.07,22.12 11.75,39.06 25.93,50.91 14.18,11.75 34.08,17.67 59.48,17.67 25.72,0 44.77,-5.18 57.25,-15.66 12.39,-10.37 18.63,-22.65 18.63,-36.72 0,-12.6 -5.61,-22.55 -16.72,-29.74 -7.83,-4.98 -26.88,-11.22 -57.15,-18.95 -40.85,-10.26 -69.11,-19.15 -84.99,-26.67 -15.76,-7.62 -27.72,-17.99 -35.87,-31.32 -8.15,-13.23 -12.28,-27.94 -12.28,-44.03 0,-14.71 3.39,-28.26 10.05,-40.75 6.78,-12.48 15.88,-22.86 27.42,-31.11 8.67,-6.35 20.53,-11.75 35.45,-16.19 15.03,-4.45 31.01,-6.67 48.15,-6.67 25.83,0 48.48,3.7 67.95,11.22 19.58,7.41 33.97,17.57 43.28,30.27 9.21,12.8 15.67,29.84 19.16,51.22l-54.61 7.62c-2.43,-17.15 -9.63,-30.59 -21.48,-40.22 -11.86,-9.63 -28.58,-14.39 -50.27,-14.39 -25.51,0 -43.82,4.23 -54.72,12.7 -10.9,8.47 -16.4,18.41 -16.4,29.74 0,7.2 2.22,13.76 6.77,19.58 4.55,5.92 11.64,10.9 21.38,14.81 5.61,2.12 21.9,6.88 49.21,14.29 39.37,10.48 66.89,19.16 82.55,25.83 15.66,6.66 27.94,16.51 36.83,29.21 9,12.8 13.44,28.68 13.44,47.73 0,18.52 -5.4,35.98 -16.3,52.38 -10.9,16.41 -26.56,29.11 -46.99,38.1 -20.53,9 -43.71,13.45 -69.53,13.45 -42.76,0 -75.46,-8.9 -97.9,-26.57 -22.43,-17.78 -36.72,-44.03 -42.96,-78.85z"/>
  <path id="6" class="fil5" d="M8629.6 2975.8l7.62 49.32c-15.67,3.28 -29.74,4.98 -42.02,4.98 -20.21,0 -35.88,-3.18 -47.1,-9.64 -11.11,-6.45 -18.94,-14.81 -23.49,-25.29 -4.55,-10.48 -6.77,-32.49 -6.77,-66.04l0 -189.87 -41.28 0 0 -43.18 41.28 0 0 -81.49 55.88 -33.55 0 115.04 55.88 0 0 43.18 -55.88 0 0 193.04c0,15.99 0.95,26.25 2.96,30.8 1.9,4.55 5.08,8.15 9.52,10.9 4.45,2.65 10.8,4.02 19.05,4.02 6.14,0 14.29,-0.74 24.35,-2.22z"/>
  <path id="7" class="fil5" d="M8684.1 3025.65l0 -329.57 50.16 0 0 50.49c12.81,-23.39 24.66,-38.84 35.56,-46.25 10.9,-7.52 22.86,-11.22 35.88,-11.22 18.84,0 37.99,5.93 57.47,17.67l-19.9 51.54c-13.55,-7.62 -27.09,-11.43 -40.64,-11.43 -12.17,0 -23.07,3.71 -32.7,11.01 -9.63,7.3 -16.51,17.46 -20.64,30.48 -6.25,19.79 -9.31,41.49 -9.31,65.09l0 172.19 -55.88 0z"/>
  <path id="8" class="fil5" d="M9111.46 3025.65l0 -49c-25.62,37.36 -60.33,55.99 -104.25,55.99 -19.37,0 -37.47,-3.71 -54.29,-11.12 -16.83,-7.51 -29.32,-16.83 -37.47,-28.04 -8.15,-11.33 -13.86,-25.09 -17.14,-41.38 -2.23,-11.01 -3.39,-28.37 -3.39,-52.07l0 -203.95 55.88 0 0 182.36c0,29.1 1.16,48.78 3.39,58.84 3.49,14.71 10.9,26.14 22.33,34.5 11.32,8.36 25.29,12.59 42.01,12.59 16.73,0 32.39,-4.23 46.99,-12.8 14.61,-8.57 24.98,-20.32 31.12,-35.03 6.03,-14.71 9.1,-36.2 9.1,-64.24l0 -176.22 55.88 0 0 329.57 -50.16 0z"/>
  <path id="9" class="fil5" d="M9464.63 2905l54.61 7.62c-6.04,37.57 -21.28,66.89 -45.94,88.16 -24.66,21.27 -55.03,31.86 -90.91,31.86 -44.98,0 -81.17,-14.72 -108.48,-44.14 -27.41,-29.42 -41.06,-71.54 -41.06,-126.36 0,-35.56 5.93,-66.57 17.67,-93.24 11.75,-26.57 29.64,-46.57 53.77,-59.8 24.02,-13.33 50.16,-20 78.53,-20 35.66,0 64.98,9 87.63,27.09 22.75,18.1 37.36,43.82 43.71,77.05l-53.98 8.25c-5.19,-22.11 -14.29,-38.73 -27.52,-49.95 -13.12,-11.11 -28.99,-16.72 -47.62,-16.72 -28.15,0 -51.01,10.05 -68.69,30.16 -17.57,20.22 -26.35,51.97 -26.35,95.57 0,44.24 8.47,76.31 25.4,96.31 17.04,20 39.16,30.05 66.36,30.05 22.01,0 40.32,-6.66 54.93,-20.1 14.71,-13.34 24.02,-33.98 27.94,-61.81z"/>
  <path id="10" class="fil5" d="M9688.15 2975.8l7.62 49.32c-15.67,3.28 -29.74,4.98 -42.02,4.98 -20.21,0 -35.88,-3.18 -47.1,-9.64 -11.11,-6.45 -18.94,-14.81 -23.49,-25.29 -4.55,-10.48 -6.77,-32.49 -6.77,-66.04l0 -189.87 -41.28 0 0 -43.18 41.28 0 0 -81.49 55.88 -33.55 0 115.04 55.88 0 0 43.18 -55.88 0 0 193.04c0,15.99 0.95,26.25 2.96,30.8 1.9,4.55 5.08,8.15 9.52,10.9 4.45,2.65 10.8,4.02 19.05,4.02 6.14,0 14.29,-0.74 24.35,-2.22z"/>
  <path id="11" class="fil5" d="M9958.55 3025.65l0 -49c-25.62,37.36 -60.33,55.99 -104.25,55.99 -19.37,0 -37.47,-3.71 -54.29,-11.12 -16.83,-7.51 -29.32,-16.83 -37.47,-28.04 -8.15,-11.33 -13.86,-25.09 -17.14,-41.38 -2.23,-11.01 -3.39,-28.37 -3.39,-52.07l0 -203.95 55.88 0 0 182.36c0,29.1 1.16,48.78 3.39,58.84 3.49,14.71 10.9,26.14 22.33,34.5 11.32,8.36 25.29,12.59 42.01,12.59 16.73,0 32.39,-4.23 46.99,-12.8 14.61,-8.57 24.98,-20.32 31.12,-35.03 6.03,-14.71 9.1,-36.2 9.1,-64.24l0 -176.22 55.88 0 0 329.57 -50.16 0z"/>
  <path id="12" class="fil5" d="M10095.82 3025.65l0 -329.57 50.16 0 0 50.49c12.81,-23.39 24.66,-38.84 35.56,-46.25 10.9,-7.52 22.86,-11.22 35.88,-11.22 18.84,0 37.99,5.93 57.47,17.67l-19.9 51.54c-13.55,-7.62 -27.09,-11.43 -40.64,-11.43 -12.17,0 -23.07,3.71 -32.7,11.01 -9.63,7.3 -16.51,17.46 -20.64,30.48 -6.25,19.79 -9.31,41.49 -9.31,65.09l0 172.19 -55.88 0z"/>
  <path id="13" class="fil5" d="M10532.7 2918.97l57.79 7.62c-9,33.55 -25.83,59.69 -50.38,78.21 -24.55,18.52 -55.88,27.84 -94.09,27.84 -48.05,0 -86.15,-14.82 -114.3,-44.46 -28.15,-29.52 -42.22,-71.12 -42.22,-124.56 0,-55.25 14.18,-98.21 42.65,-128.69 28.47,-30.59 65.4,-45.83 110.8,-45.83 43.92,0 79.8,14.92 107.64,44.87 27.83,29.95 41.8,72.08 41.8,126.37 0,3.28 -0.11,8.25 -0.32,14.81l-245.42 0c2.11,36.09 12.27,63.82 30.69,82.98 18.31,19.15 41.27,28.78 68.68,28.78 20.43,0 37.89,-5.39 52.28,-16.19 14.5,-10.79 25.93,-28.04 34.4,-51.75zm-182.88 -89.54l183.52 0c-2.44,-27.72 -9.53,-48.47 -21.07,-62.33 -17.67,-21.49 -40.74,-32.28 -69,-32.28 -25.61,0 -47.09,8.57 -64.56,25.72 -17.35,17.14 -26.98,40.11 -28.89,68.89z"/>
  <path id="14" class="fil5" d="M11052.77 2984.37c-20.75,17.68 -40.75,30.06 -59.91,37.36 -19.15,7.31 -39.68,10.91 -61.7,10.91 -36.19,0 -64.03,-8.79 -83.5,-26.46 -19.47,-17.57 -29.21,-40.11 -29.21,-67.53 0,-16.08 3.7,-30.79 11.01,-44.13 7.41,-13.33 17.04,-23.92 28.89,-31.96 11.96,-8.04 25.29,-14.18 40.22,-18.31 11,-2.86 27.62,-5.61 49.74,-8.36 45.08,-5.29 78.42,-11.75 99.69,-19.16 0.21,-7.62 0.32,-12.48 0.32,-14.49 0,-22.65 -5.29,-38.63 -15.87,-47.95 -14.29,-12.59 -35.56,-18.84 -63.72,-18.84 -26.35,0 -45.82,4.66 -58.31,13.87 -12.59,9.21 -21.8,25.5 -27.83,49l-54.61 -7.62c4.97,-23.39 13.12,-42.33 24.55,-56.73 11.43,-14.39 27.94,-25.4 49.53,-33.23 21.48,-7.72 46.57,-11.64 74.93,-11.64 28.15,0 51.12,3.28 68.79,9.95 17.57,6.67 30.59,14.92 38.84,24.97 8.26,10.06 14.08,22.76 17.46,38.1 1.8,9.53 2.76,26.67 2.76,51.33l0 74.09c0,51.75 1.16,84.45 3.49,98.32 2.22,13.86 6.88,27.09 13.65,39.79l-58.42 0c-5.61,-11.75 -9.21,-25.51 -10.79,-41.28zm-4.45 -123.82c-20.32,8.25 -50.8,15.24 -91.44,20.95 -23.07,3.29 -39.37,6.99 -48.89,11.12 -9.53,4.12 -16.83,10.16 -22.02,17.99 -5.18,7.94 -7.83,16.72 -7.83,26.46 0,14.71 5.61,27.09 16.93,36.93 11.33,9.85 27.84,14.82 49.53,14.82 21.49,0 40.64,-4.66 57.47,-14.08 16.72,-9.31 29.11,-22.12 36.94,-38.31 6.03,-12.59 8.99,-31.11 8.99,-55.56l0.32 -20.32z"/>
  <path id="15" class="fil5" d="M11190.67 3025.65l0 -329.57 50.17 0 0 46.78c24.13,-35.87 59.05,-53.76 104.66,-53.76 19.9,0 38.1,3.6 54.72,10.69 16.62,7.09 29.1,16.51 37.36,28.04 8.25,11.54 14.08,25.3 17.36,41.17 2.01,10.38 3.07,28.47 3.07,54.3l0 202.35 -55.88 0 0 -200.24c0,-22.75 -2.12,-39.79 -6.46,-51.01 -4.34,-11.22 -12.07,-20.21 -23.07,-26.99 -11.01,-6.66 -24.03,-10.05 -38.84,-10.05 -23.71,0 -44.14,7.51 -61.39,22.65 -17.25,15.03 -25.82,43.71 -25.82,85.83l0 179.81 -55.88 0z"/>
  <path id="16" class="fil5" d="M11756.57 3025.65l0 -41.8c-20.85,32.49 -51.55,48.79 -92.08,48.79 -26.25,0 -50.38,-7.2 -72.28,-21.7 -22.02,-14.39 -39.06,-34.61 -51.23,-60.43 -12.06,-25.93 -18.09,-55.67 -18.09,-89.33 0,-32.8 5.5,-62.54 16.4,-89.32 11.01,-26.67 27.41,-47.2 49.32,-61.38 21.8,-14.29 46.35,-21.38 73.34,-21.38 19.9,0 37.57,4.23 53.02,12.59 15.45,8.36 28.05,19.37 37.79,32.81l0 -163.51 55.88 0 0 454.66 -52.07 0zm-176.53 -164.36c0,42.12 8.89,73.55 26.77,94.4 17.78,20.85 38.84,31.22 63.08,31.22 24.45,0 45.19,-9.94 62.33,-29.84 17.04,-19.9 25.62,-50.27 25.62,-91.12 0,-44.88 -8.68,-77.9 -26.15,-98.96 -17.35,-21.06 -38.84,-31.54 -64.34,-31.54 -24.87,0 -45.62,10.06 -62.34,30.27 -16.61,20.22 -24.97,52.07 -24.97,95.57z"/>
  <path id="17" class="fil5" d="M6955.51 3861.42l0 -455.94 50.8 0 0 43.29c11.96,-16.72 25.51,-29.32 40.64,-37.68 15.03,-8.36 33.34,-12.59 54.82,-12.59 28.15,0 52.92,7.2 74.4,21.7 21.49,14.39 37.68,34.81 48.69,61.06 10.9,26.35 16.4,55.14 16.4,86.57 0,33.55 -6.03,63.82 -18.1,90.81 -12.06,26.88 -29.63,47.52 -52.7,61.91 -22.97,14.29 -47.2,21.49 -72.6,21.49 -18.63,0 -35.35,-3.92 -50.06,-11.75 -14.82,-7.83 -26.88,-17.68 -36.41,-29.64l0 160.77 -55.88 0zm50.8 -289.14c0,42.23 8.57,73.45 25.61,93.66 17.15,20.21 37.89,30.37 62.23,30.37 24.77,0 45.93,-10.47 63.5,-31.43 17.68,-20.95 26.46,-53.34 26.46,-97.26 0,-41.91 -8.57,-73.24 -25.82,-94.08 -17.25,-20.85 -37.79,-31.23 -61.7,-31.23 -23.71,0 -44.67,11.12 -62.87,33.24 -18.31,22.22 -27.41,54.39 -27.41,96.73z"/>
  <path id="18" class="fil5" d="M7533.47 3628.37l57.79 7.62c-9,33.55 -25.83,59.69 -50.38,78.21 -24.55,18.52 -55.88,27.84 -94.09,27.84 -48.05,0 -86.15,-14.82 -114.3,-44.46 -28.15,-29.52 -42.22,-71.12 -42.22,-124.56 0,-55.25 14.18,-98.21 42.65,-128.69 28.47,-30.59 65.4,-45.83 110.8,-45.83 43.92,0 79.8,14.92 107.64,44.87 27.83,29.95 41.8,72.08 41.8,126.37 0,3.28 -0.11,8.25 -0.32,14.81l-245.42 0c2.11,36.09 12.27,63.82 30.69,82.98 18.31,19.15 41.27,28.78 68.68,28.78 20.43,0 37.89,-5.39 52.28,-16.19 14.5,-10.79 25.93,-28.04 34.4,-51.75zm-182.88 -89.54l183.52 0c-2.44,-27.72 -9.53,-48.47 -21.07,-62.33 -17.67,-21.49 -40.74,-32.28 -69,-32.28 -25.61,0 -47.09,8.57 -64.56,25.72 -17.35,17.14 -26.98,40.11 -28.89,68.89z"/>
  <path id="19" class="fil5" d="M7661.22 3735.05l0 -329.57 50.16 0 0 50.49c12.81,-23.39 24.66,-38.84 35.56,-46.25 10.9,-7.52 22.86,-11.22 35.88,-11.22 18.84,0 37.99,5.93 57.47,17.67l-19.9 51.54c-13.55,-7.62 -27.09,-11.43 -40.64,-11.43 -12.17,0 -23.07,3.71 -32.7,11.01 -9.63,7.3 -16.51,17.46 -20.64,30.48 -6.25,19.79 -9.31,41.49 -9.31,65.09l0 172.19 -55.88 0z"/>
  <path id="20" class="fil5" d="M7851.09 3636.62l55.24 -8.89c3.07,22.12 11.75,39.06 25.93,50.91 14.18,11.75 34.08,17.67 59.48,17.67 25.72,0 44.77,-5.18 57.25,-15.66 12.39,-10.37 18.63,-22.65 18.63,-36.72 0,-12.6 -5.61,-22.55 -16.72,-29.74 -7.83,-4.98 -26.88,-11.22 -57.15,-18.95 -40.85,-10.26 -69.11,-19.15 -84.99,-26.67 -15.76,-7.62 -27.72,-17.99 -35.87,-31.32 -8.15,-13.23 -12.28,-27.94 -12.28,-44.03 0,-14.71 3.39,-28.26 10.05,-40.75 6.78,-12.48 15.88,-22.86 27.42,-31.11 8.67,-6.35 20.53,-11.75 35.45,-16.19 15.03,-4.45 31.01,-6.67 48.15,-6.67 25.83,0 48.48,3.7 67.95,11.22 19.58,7.41 33.97,17.57 43.28,30.27 9.21,12.8 15.67,29.84 19.16,51.22l-54.61 7.62c-2.43,-17.15 -9.63,-30.59 -21.48,-40.22 -11.86,-9.63 -28.58,-14.39 -50.27,-14.39 -25.51,0 -43.82,4.23 -54.72,12.7 -10.9,8.47 -16.4,18.41 -16.4,29.74 0,7.2 2.22,13.76 6.77,19.58 4.55,5.92 11.64,10.9 21.38,14.81 5.61,2.12 21.9,6.88 49.21,14.29 39.37,10.48 66.89,19.16 82.55,25.83 15.66,6.66 27.94,16.51 36.83,29.21 9,12.8 13.44,28.68 13.44,47.73 0,18.52 -5.4,35.98 -16.3,52.38 -10.9,16.41 -26.56,29.11 -46.99,38.1 -20.53,9 -43.71,13.45 -69.53,13.45 -42.76,0 -75.46,-8.9 -97.9,-26.57 -22.43,-17.78 -36.72,-44.03 -42.96,-78.85z"/>
  <path id="21" class="fil5" d="M8190.81 3343.89l0 -63.5 55.88 0 0 63.5 -55.88 0zm0 391.16l0 -329.57 55.88 0 0 329.57 -55.88 0z"/>
  <path id="22" class="fil5" d="M8309.67 3636.62l55.24 -8.89c3.07,22.12 11.75,39.06 25.93,50.91 14.18,11.75 34.08,17.67 59.48,17.67 25.72,0 44.77,-5.18 57.25,-15.66 12.39,-10.37 18.63,-22.65 18.63,-36.72 0,-12.6 -5.61,-22.55 -16.72,-29.74 -7.83,-4.98 -26.88,-11.22 -57.15,-18.95 -40.85,-10.26 -69.11,-19.15 -84.99,-26.67 -15.76,-7.62 -27.72,-17.99 -35.87,-31.32 -8.15,-13.23 -12.28,-27.94 -12.28,-44.03 0,-14.71 3.39,-28.26 10.05,-40.75 6.78,-12.48 15.88,-22.86 27.42,-31.11 8.67,-6.35 20.53,-11.75 35.45,-16.19 15.03,-4.45 31.01,-6.67 48.15,-6.67 25.83,0 48.48,3.7 67.95,11.22 19.58,7.41 33.97,17.57 43.28,30.27 9.21,12.8 15.67,29.84 19.16,51.22l-54.61 7.62c-2.43,-17.15 -9.63,-30.59 -21.48,-40.22 -11.86,-9.63 -28.58,-14.39 -50.27,-14.39 -25.51,0 -43.82,4.23 -54.72,12.7 -10.9,8.47 -16.4,18.41 -16.4,29.74 0,7.2 2.22,13.76 6.77,19.58 4.55,5.92 11.64,10.9 21.38,14.81 5.61,2.12 21.9,6.88 49.21,14.29 39.37,10.48 66.89,19.16 82.55,25.83 15.66,6.66 27.94,16.51 36.83,29.21 9,12.8 13.44,28.68 13.44,47.73 0,18.52 -5.4,35.98 -16.3,52.38 -10.9,16.41 -26.56,29.11 -46.99,38.1 -20.53,9 -43.71,13.45 -69.53,13.45 -42.76,0 -75.46,-8.9 -97.9,-26.57 -22.43,-17.78 -36.72,-44.03 -42.96,-78.85z"/>
  <path id="23" class="fil5" d="M8770.68 3685.2l7.62 49.32c-15.67,3.28 -29.74,4.98 -42.02,4.98 -20.21,0 -35.88,-3.18 -47.1,-9.64 -11.11,-6.45 -18.94,-14.81 -23.49,-25.29 -4.55,-10.48 -6.77,-32.49 -6.77,-66.04l0 -189.87 -41.28 0 0 -43.18 41.28 0 0 -81.49 55.88 -33.55 0 115.04 55.88 0 0 43.18 -55.88 0 0 193.04c0,15.99 0.95,26.25 2.96,30.8 1.9,4.55 5.08,8.15 9.52,10.9 4.45,2.65 10.8,4.02 19.05,4.02 6.14,0 14.29,-0.74 24.35,-2.22z"/>
  <path id="24" class="fil5" d="M9050.6 3628.37l57.79 7.62c-9,33.55 -25.83,59.69 -50.38,78.21 -24.55,18.52 -55.88,27.84 -94.09,27.84 -48.05,0 -86.15,-14.82 -114.3,-44.46 -28.15,-29.52 -42.22,-71.12 -42.22,-124.56 0,-55.25 14.18,-98.21 42.65,-128.69 28.47,-30.59 65.4,-45.83 110.8,-45.83 43.92,0 79.8,14.92 107.64,44.87 27.83,29.95 41.8,72.08 41.8,126.37 0,3.28 -0.11,8.25 -0.32,14.81l-245.42 0c2.11,36.09 12.27,63.82 30.69,82.98 18.31,19.15 41.27,28.78 68.68,28.78 20.43,0 37.89,-5.39 52.28,-16.19 14.5,-10.79 25.93,-28.04 34.4,-51.75zm-182.88 -89.54l183.52 0c-2.44,-27.72 -9.53,-48.47 -21.07,-62.33 -17.67,-21.49 -40.74,-32.28 -69,-32.28 -25.61,0 -47.09,8.57 -64.56,25.72 -17.35,17.14 -26.98,40.11 -28.89,68.89z"/>
  <path id="25" class="fil5" d="M9178.98 3735.05l0 -329.57 50.17 0 0 46.78c24.13,-35.87 59.05,-53.76 104.66,-53.76 19.9,0 38.1,3.6 54.72,10.69 16.62,7.09 29.1,16.51 37.36,28.04 8.25,11.54 14.08,25.3 17.36,41.17 2.01,10.38 3.07,28.47 3.07,54.3l0 202.35 -55.88 0 0 -200.24c0,-22.75 -2.12,-39.79 -6.46,-51.01 -4.34,-11.22 -12.07,-20.21 -23.07,-26.99 -11.01,-6.66 -24.03,-10.05 -38.84,-10.05 -23.71,0 -44.14,7.51 -61.39,22.65 -17.25,15.03 -25.82,43.71 -25.82,85.83l0 179.81 -55.88 0z"/>
  <path id="26" class="fil5" d="M9747.42 3614.4l54.61 7.62c-6.04,37.57 -21.28,66.89 -45.94,88.16 -24.66,21.27 -55.03,31.86 -90.91,31.86 -44.98,0 -81.17,-14.72 -108.48,-44.14 -27.41,-29.42 -41.06,-71.54 -41.06,-126.36 0,-35.56 5.93,-66.57 17.67,-93.24 11.75,-26.57 29.64,-46.57 53.77,-59.8 24.02,-13.33 50.16,-20 78.53,-20 35.66,0 64.98,9 87.63,27.09 22.75,18.1 37.36,43.82 43.71,77.05l-53.98 8.25c-5.19,-22.11 -14.29,-38.73 -27.52,-49.95 -13.12,-11.11 -28.99,-16.72 -47.62,-16.72 -28.15,0 -51.01,10.05 -68.69,30.16 -17.57,20.22 -26.35,51.97 -26.35,95.57 0,44.24 8.47,76.31 25.4,96.31 17.04,20 39.16,30.05 66.36,30.05 22.01,0 40.32,-6.66 54.93,-20.1 14.71,-13.34 24.02,-33.98 27.94,-61.81z"/>
  <path id="27" class="fil5" d="M10074.44 3628.37l57.79 7.62c-9,33.55 -25.83,59.69 -50.38,78.21 -24.55,18.52 -55.88,27.84 -94.09,27.84 -48.05,0 -86.15,-14.82 -114.3,-44.46 -28.15,-29.52 -42.22,-71.12 -42.22,-124.56 0,-55.25 14.18,-98.21 42.65,-128.69 28.47,-30.59 65.4,-45.83 110.8,-45.83 43.92,0 79.8,14.92 107.64,44.87 27.83,29.95 41.8,72.08 41.8,126.37 0,3.28 -0.11,8.25 -0.32,14.81l-245.42 0c2.11,36.09 12.27,63.82 30.69,82.98 18.31,19.15 41.27,28.78 68.68,28.78 20.43,0 37.89,-5.39 52.28,-16.19 14.5,-10.79 25.93,-28.04 34.4,-51.75zm-182.88 -89.54l183.52 0c-2.44,-27.72 -9.53,-48.47 -21.07,-62.33 -17.67,-21.49 -40.74,-32.28 -69,-32.28 -25.61,0 -47.09,8.57 -64.56,25.72 -17.35,17.14 -26.98,40.11 -28.89,68.89z"/>
  <path class="fil6" d="M6955.51 1865.23l0 -455.94 50.8 0 0 43.29c11.96,-16.72 25.51,-29.32 40.64,-37.68 15.03,-8.36 33.34,-12.59 54.82,-12.59 28.15,0 52.92,7.2 74.4,21.7 21.49,14.39 37.68,34.81 48.69,61.06 10.9,26.35 16.4,55.14 16.4,86.57 0,33.55 -6.03,63.82 -18.1,90.81 -12.06,26.88 -29.63,47.52 -52.7,61.91 -22.97,14.29 -47.2,21.49 -72.6,21.49 -18.63,0 -35.35,-3.92 -50.06,-11.75 -14.82,-7.83 -26.88,-17.68 -36.41,-29.64l0 160.77 -55.88 0zm50.8 -289.14c0,42.23 8.57,73.45 25.61,93.66 17.15,20.21 37.89,30.37 62.23,30.37 24.77,0 45.93,-10.47 63.5,-31.43 17.68,-20.95 26.46,-53.34 26.46,-97.26 0,-41.91 -8.57,-73.24 -25.82,-94.08 -17.25,-20.85 -37.79,-31.23 -61.7,-31.23 -23.71,0 -44.67,11.12 -62.87,33.24 -18.31,22.22 -27.41,54.39 -27.41,96.73z"/>
  <path id="1" class="fil6" d="M7308.05 1738.86l0 -329.57 50.16 0 0 50.49c12.81,-23.39 24.66,-38.84 35.56,-46.25 10.9,-7.52 22.86,-11.22 35.88,-11.22 18.84,0 37.99,5.93 57.47,17.67l-19.9 51.54c-13.55,-7.62 -27.09,-11.43 -40.64,-11.43 -12.17,0 -23.07,3.71 -32.7,11.01 -9.63,7.3 -16.51,17.46 -20.64,30.48 -6.25,19.79 -9.31,41.49 -9.31,65.09l0 172.19 -55.88 0z"/>
  <path id="2" class="fil6" d="M7744.93 1632.18l57.79 7.62c-9,33.55 -25.83,59.69 -50.38,78.21 -24.55,18.52 -55.88,27.84 -94.09,27.84 -48.05,0 -86.15,-14.82 -114.3,-44.46 -28.15,-29.52 -42.22,-71.12 -42.22,-124.56 0,-55.25 14.18,-98.21 42.65,-128.69 28.47,-30.59 65.4,-45.83 110.8,-45.83 43.92,0 79.8,14.92 107.64,44.87 27.83,29.95 41.8,72.08 41.8,126.37 0,3.28 -0.11,8.25 -0.32,14.81l-245.42 0c2.11,36.09 12.27,63.82 30.69,82.98 18.31,19.15 41.27,28.78 68.68,28.78 20.43,0 37.89,-5.39 52.28,-16.19 14.5,-10.79 25.93,-28.04 34.4,-51.75zm-182.88 -89.54l183.52 0c-2.44,-27.72 -9.53,-48.47 -21.07,-62.33 -17.67,-21.49 -40.74,-32.28 -69,-32.28 -25.61,0 -47.09,8.57 -64.56,25.72 -17.35,17.14 -26.98,40.11 -28.89,68.89z"/>
  <path id="3" class="fil6" d="M7851.09 1640.43l55.24 -8.89c3.07,22.12 11.75,39.06 25.93,50.91 14.18,11.75 34.08,17.67 59.48,17.67 25.72,0 44.77,-5.18 57.25,-15.66 12.39,-10.37 18.63,-22.65 18.63,-36.72 0,-12.6 -5.61,-22.55 -16.72,-29.74 -7.83,-4.98 -26.88,-11.22 -57.15,-18.95 -40.85,-10.26 -69.11,-19.15 -84.99,-26.67 -15.76,-7.62 -27.72,-17.99 -35.87,-31.32 -8.15,-13.23 -12.28,-27.94 -12.28,-44.03 0,-14.71 3.39,-28.26 10.05,-40.75 6.78,-12.48 15.88,-22.86 27.42,-31.11 8.67,-6.35 20.53,-11.75 35.45,-16.19 15.03,-4.45 31.01,-6.67 48.15,-6.67 25.83,0 48.48,3.7 67.95,11.22 19.58,7.41 33.97,17.57 43.28,30.27 9.21,12.8 15.67,29.84 19.16,51.22l-54.61 7.62c-2.43,-17.15 -9.63,-30.59 -21.48,-40.22 -11.86,-9.63 -28.58,-14.39 -50.27,-14.39 -25.51,0 -43.82,4.23 -54.72,12.7 -10.9,8.47 -16.4,18.41 -16.4,29.74 0,7.2 2.22,13.76 6.77,19.58 4.55,5.92 11.64,10.9 21.38,14.81 5.61,2.12 21.9,6.88 49.21,14.29 39.37,10.48 66.89,19.16 82.55,25.83 15.66,6.66 27.94,16.51 36.83,29.21 9,12.8 13.44,28.68 13.44,47.73 0,18.52 -5.4,35.98 -16.3,52.38 -10.9,16.41 -26.56,29.11 -46.99,38.1 -20.53,9 -43.71,13.45 -69.53,13.45 -42.76,0 -75.46,-8.9 -97.9,-26.57 -22.43,-17.78 -36.72,-44.03 -42.96,-78.85z"/>
  <path id="4" class="fil6" d="M8415.6 1632.18l57.79 7.62c-9,33.55 -25.83,59.69 -50.38,78.21 -24.55,18.52 -55.88,27.84 -94.09,27.84 -48.05,0 -86.15,-14.82 -114.3,-44.46 -28.15,-29.52 -42.22,-71.12 -42.22,-124.56 0,-55.25 14.18,-98.21 42.65,-128.69 28.47,-30.59 65.4,-45.83 110.8,-45.83 43.92,0 79.8,14.92 107.64,44.87 27.83,29.95 41.8,72.08 41.8,126.37 0,3.28 -0.11,8.25 -0.32,14.81l-245.42 0c2.11,36.09 12.27,63.82 30.69,82.98 18.31,19.15 41.27,28.78 68.68,28.78 20.43,0 37.89,-5.39 52.28,-16.19 14.5,-10.79 25.93,-28.04 34.4,-51.75zm-182.88 -89.54l183.52 0c-2.44,-27.72 -9.53,-48.47 -21.07,-62.33 -17.67,-21.49 -40.74,-32.28 -69,-32.28 -25.61,0 -47.09,8.57 -64.56,25.72 -17.35,17.14 -26.98,40.11 -28.89,68.89z"/>
  <path id="5" class="fil6" d="M8543.98 1738.86l0 -329.57 50.17 0 0 46.78c24.13,-35.87 59.05,-53.76 104.66,-53.76 19.9,0 38.1,3.6 54.72,10.69 16.62,7.09 29.1,16.51 37.36,28.04 8.25,11.54 14.08,25.3 17.36,41.17 2.01,10.38 3.07,28.47 3.07,54.3l0 202.35 -55.88 0 0 -200.24c0,-22.75 -2.12,-39.79 -6.46,-51.01 -4.34,-11.22 -12.07,-20.21 -23.07,-26.99 -11.01,-6.66 -24.03,-10.05 -38.84,-10.05 -23.71,0 -44.14,7.51 -61.39,22.65 -17.25,15.03 -25.82,43.71 -25.82,85.83l0 179.81 -55.88 0z"/>
  <path id="6" class="fil6" d="M9018.44 1689.01l7.62 49.32c-15.67,3.28 -29.74,4.98 -42.02,4.98 -20.21,0 -35.88,-3.18 -47.1,-9.64 -11.11,-6.45 -18.94,-14.81 -23.49,-25.29 -4.55,-10.48 -6.77,-32.49 -6.77,-66.04l0 -189.87 -41.28 0 0 -43.18 41.28 0 0 -81.49 55.88 -33.55 0 115.04 55.88 0 0 43.18 -55.88 0 0 193.04c0,15.99 0.95,26.25 2.96,30.8 1.9,4.55 5.08,8.15 9.52,10.9 4.45,2.65 10.8,4.02 19.05,4.02 6.14,0 14.29,-0.74 24.35,-2.22z"/>
  <path id="7" class="fil6" d="M9288.84 1697.58c-20.75,17.68 -40.75,30.06 -59.91,37.36 -19.15,7.31 -39.68,10.91 -61.7,10.91 -36.19,0 -64.03,-8.79 -83.5,-26.46 -19.47,-17.57 -29.21,-40.11 -29.21,-67.53 0,-16.08 3.7,-30.79 11.01,-44.13 7.41,-13.33 17.04,-23.92 28.89,-31.96 11.96,-8.04 25.29,-14.18 40.22,-18.31 11,-2.86 27.62,-5.61 49.74,-8.36 45.08,-5.29 78.42,-11.75 99.69,-19.16 0.21,-7.62 0.32,-12.48 0.32,-14.49 0,-22.65 -5.29,-38.63 -15.87,-47.95 -14.29,-12.59 -35.56,-18.84 -63.72,-18.84 -26.35,0 -45.82,4.66 -58.31,13.87 -12.59,9.21 -21.8,25.5 -27.83,49l-54.61 -7.62c4.97,-23.39 13.12,-42.33 24.55,-56.73 11.43,-14.39 27.94,-25.4 49.53,-33.23 21.48,-7.72 46.57,-11.64 74.93,-11.64 28.15,0 51.12,3.28 68.79,9.95 17.57,6.67 30.59,14.92 38.84,24.97 8.26,10.06 14.08,22.76 17.46,38.1 1.8,9.53 2.76,26.67 2.76,51.33l0 74.09c0,51.75 1.16,84.45 3.49,98.32 2.22,13.86 6.88,27.09 13.65,39.79l-58.42 0c-5.61,-11.75 -9.21,-25.51 -10.79,-41.28zm-4.45 -123.82c-20.32,8.25 -50.8,15.24 -91.44,20.95 -23.07,3.29 -39.37,6.99 -48.89,11.12 -9.53,4.12 -16.83,10.16 -22.02,17.99 -5.18,7.94 -7.83,16.72 -7.83,26.46 0,14.71 5.61,27.09 16.93,36.93 11.33,9.85 27.84,14.82 49.53,14.82 21.49,0 40.64,-4.66 57.47,-14.08 16.72,-9.31 29.11,-22.12 36.94,-38.31 6.03,-12.59 8.99,-31.11 8.99,-55.56l0.32 -20.32z"/>
  <path id="8" class="fil6" d="M9548.03 1689.01l7.62 49.32c-15.67,3.28 -29.74,4.98 -42.02,4.98 -20.21,0 -35.88,-3.18 -47.1,-9.64 -11.11,-6.45 -18.94,-14.81 -23.49,-25.29 -4.55,-10.48 -6.77,-32.49 -6.77,-66.04l0 -189.87 -41.28 0 0 -43.18 41.28 0 0 -81.49 55.88 -33.55 0 115.04 55.88 0 0 43.18 -55.88 0 0 193.04c0,15.99 0.95,26.25 2.96,30.8 1.9,4.55 5.08,8.15 9.52,10.9 4.45,2.65 10.8,4.02 19.05,4.02 6.14,0 14.29,-0.74 24.35,-2.22z"/>
  <path id="9" class="fil6" d="M9603.16 1347.7l0 -63.5 55.88 0 0 63.5 -55.88 0zm0 391.16l0 -329.57 55.88 0 0 329.57 -55.88 0z"/>
  <path id="10" class="fil6" d="M9723.29 1574.08c0,-60.86 16.93,-105.94 50.9,-135.26 28.26,-24.34 62.87,-36.51 103.61,-36.51 45.19,0 82.23,14.82 111.02,44.45 28.68,29.53 43.08,70.48 43.08,122.66 0,42.33 -6.35,75.57 -19.05,99.8 -12.7,24.24 -31.23,43.08 -55.57,56.52 -24.23,13.44 -50.8,20.11 -79.48,20.11 -46.14,0 -83.39,-14.72 -111.86,-44.24 -28.47,-29.53 -42.65,-72.08 -42.65,-127.53zm57.15 0.1c0,42.12 9.2,73.66 27.62,94.51 18.52,20.96 41.7,31.43 69.74,31.43 27.73,0 50.8,-10.47 69.32,-31.53 18.42,-21.06 27.63,-53.13 27.63,-96.21 0,-40.64 -9.32,-71.43 -27.84,-92.28 -18.52,-20.96 -41.59,-31.44 -69.11,-31.44 -28.04,0 -51.22,10.38 -69.74,31.23 -18.42,20.84 -27.62,52.28 -27.62,94.29z"/>
  <path id="11" class="fil6" d="M10097.41 1738.86l0 -329.57 50.17 0 0 46.78c24.13,-35.87 59.05,-53.76 104.66,-53.76 19.9,0 38.1,3.6 54.72,10.69 16.62,7.09 29.1,16.51 37.36,28.04 8.25,11.54 14.08,25.3 17.36,41.17 2.01,10.38 3.07,28.47 3.07,54.3l0 202.35 -55.88 0 0 -200.24c0,-22.75 -2.12,-39.79 -6.46,-51.01 -4.34,-11.22 -12.07,-20.21 -23.07,-26.99 -11.01,-6.66 -24.03,-10.05 -38.84,-10.05 -23.71,0 -44.14,7.51 -61.39,22.65 -17.25,15.03 -25.82,43.71 -25.82,85.83l0 179.81 -55.88 0z"/>
  <path class="fil7 str0" d="M2880.03 3803.97l1712.3 0c0,-945.67 -766.62,-1712.29 -1712.3,-1712.29 -945.67,0 -1712.29,766.62 -1712.29,1712.29 0,945.68 766.62,1712.3 1712.29,1712.3l0 -1712.3z"/>
  <path class="fil8 str0" d="M2880.03 3803.97l0 1712.3c945.68,0 1712.3,-766.62 1712.3,-1712.3l-1712.3 0z"/>
  <circle class="fil9 str0" transform="matrix(1.79743E-14 -0.678672 0.678672 1.79743E-14 2880.03 3803.97)" r="1766.1"/>
  <path class="fil10" d="M6987.26 6501.56l0 -455.94 50.8 0 0 43.29c11.96,-16.72 25.51,-29.32 40.64,-37.68 15.03,-8.36 33.34,-12.59 54.82,-12.59 28.15,0 52.92,7.2 74.4,21.7 21.49,14.39 37.68,34.81 48.69,61.06 10.9,26.35 16.4,55.14 16.4,86.57 0,33.55 -6.03,63.82 -18.1,90.81 -12.06,26.88 -29.63,47.52 -52.7,61.91 -22.97,14.29 -47.2,21.49 -72.6,21.49 -18.63,0 -35.35,-3.92 -50.06,-11.75 -14.82,-7.83 -26.88,-17.68 -36.41,-29.64l0 160.77 -55.88 0zm50.8 -289.14c0,42.23 8.57,73.45 25.61,93.66 17.15,20.21 37.89,30.37 62.23,30.37 24.77,0 45.93,-10.47 63.5,-31.43 17.68,-20.95 26.46,-53.34 26.46,-97.26 0,-41.91 -8.57,-73.24 -25.82,-94.08 -17.25,-20.85 -37.79,-31.23 -61.7,-31.23 -23.71,0 -44.67,11.12 -62.87,33.24 -18.31,22.22 -27.41,54.39 -27.41,96.73z"/>
  <path id="1" class="fil10" d="M7339.8 6375.19l0 -329.57 50.16 0 0 50.49c12.81,-23.39 24.66,-38.84 35.56,-46.25 10.9,-7.52 22.86,-11.22 35.88,-11.22 18.84,0 37.99,5.93 57.47,17.67l-19.9 51.54c-13.55,-7.62 -27.09,-11.43 -40.64,-11.43 -12.17,0 -23.07,3.71 -32.7,11.01 -9.63,7.3 -16.51,17.46 -20.64,30.48 -6.25,19.79 -9.31,41.49 -9.31,65.09l0 172.19 -55.88 0z"/>
  <path id="2" class="fil10" d="M7530.94 6210.41c0,-60.86 16.93,-105.94 50.9,-135.26 28.26,-24.34 62.87,-36.51 103.61,-36.51 45.19,0 82.23,14.82 111.02,44.45 28.68,29.53 43.08,70.48 43.08,122.66 0,42.33 -6.35,75.57 -19.05,99.8 -12.7,24.24 -31.23,43.08 -55.57,56.52 -24.23,13.44 -50.8,20.11 -79.48,20.11 -46.14,0 -83.39,-14.72 -111.86,-44.24 -28.47,-29.53 -42.65,-72.08 -42.65,-127.53zm57.15 0.1c0,42.12 9.2,73.66 27.62,94.51 18.52,20.96 41.7,31.43 69.74,31.43 27.73,0 50.8,-10.47 69.32,-31.53 18.42,-21.06 27.63,-53.13 27.63,-96.21 0,-40.64 -9.32,-71.43 -27.84,-92.28 -18.52,-20.96 -41.59,-31.44 -69.11,-31.44 -28.04,0 -51.22,10.38 -69.74,31.23 -18.42,20.84 -27.62,52.28 -27.62,94.29z"/>
  <path id="3" class="fil10" d="M7904.74 5985.3l0 -64.77 55.88 0 0 64.77 -55.88 0zm-70.69 517.31l10.26 -47.3c11.22,2.85 20,4.34 26.46,4.34 11.43,0 19.9,-3.81 25.51,-11.33 5.61,-7.51 8.46,-26.46 8.46,-56.62l0 -346.08 55.88 0 0 347.24c0,40.54 -5.29,68.8 -15.87,84.67 -13.44,20.64 -35.77,31.01 -66.99,31.01 -15.14,0 -29.64,-2.01 -43.71,-5.93z"/>
  <path id="4" class="fil10" d="M8270.93 6268.51l57.79 7.62c-9,33.55 -25.83,59.69 -50.38,78.21 -24.55,18.52 -55.88,27.84 -94.09,27.84 -48.05,0 -86.15,-14.82 -114.3,-44.46 -28.15,-29.52 -42.22,-71.12 -42.22,-124.56 0,-55.25 14.18,-98.21 42.65,-128.69 28.47,-30.59 65.4,-45.83 110.8,-45.83 43.92,0 79.8,14.92 107.64,44.87 27.83,29.95 41.8,72.08 41.8,126.37 0,3.28 -0.11,8.25 -0.32,14.81l-245.42 0c2.11,36.09 12.27,63.82 30.69,82.98 18.31,19.15 41.27,28.78 68.68,28.78 20.43,0 37.89,-5.39 52.28,-16.19 14.5,-10.79 25.93,-28.04 34.4,-51.75zm-182.88 -89.54l183.52 0c-2.44,-27.72 -9.53,-48.47 -21.07,-62.33 -17.67,-21.49 -40.74,-32.28 -69,-32.28 -25.61,0 -47.09,8.57 -64.56,25.72 -17.35,17.14 -26.98,40.11 -28.89,68.89z"/>
  <path id="5" class="fil10" d="M8614.58 6254.54l54.61 7.62c-6.04,37.57 -21.28,66.89 -45.94,88.16 -24.66,21.27 -55.03,31.86 -90.91,31.86 -44.98,0 -81.17,-14.72 -108.48,-44.14 -27.41,-29.42 -41.06,-71.54 -41.06,-126.36 0,-35.56 5.93,-66.57 17.67,-93.24 11.75,-26.57 29.64,-46.57 53.77,-59.8 24.02,-13.33 50.16,-20 78.53,-20 35.66,0 64.98,9 87.63,27.09 22.75,18.1 37.36,43.82 43.71,77.05l-53.98 8.25c-5.19,-22.11 -14.29,-38.73 -27.52,-49.95 -13.12,-11.11 -28.99,-16.72 -47.62,-16.72 -28.15,0 -51.01,10.05 -68.69,30.16 -17.57,20.22 -26.35,51.97 -26.35,95.57 0,44.24 8.47,76.31 25.4,96.31 17.04,20 39.16,30.05 66.36,30.05 22.01,0 40.32,-6.66 54.93,-20.1 14.71,-13.34 24.02,-33.98 27.94,-61.81z"/>
  <path id="6" class="fil10" d="M8838.1 6325.34l7.62 49.32c-15.67,3.28 -29.74,4.98 -42.02,4.98 -20.21,0 -35.88,-3.18 -47.1,-9.64 -11.11,-6.45 -18.94,-14.81 -23.49,-25.29 -4.55,-10.48 -6.77,-32.49 -6.77,-66.04l0 -189.87 -41.28 0 0 -43.18 41.28 0 0 -81.49 55.88 -33.55 0 115.04 55.88 0 0 43.18 -55.88 0 0 193.04c0,15.99 0.95,26.25 2.96,30.8 1.9,4.55 5.08,8.15 9.52,10.9 4.45,2.65 10.8,4.02 19.05,4.02 6.14,0 14.29,-0.74 24.35,-2.22z"/>
  <polygon id="7" class="fil10" points="9068.38,6375.19 9068.38,5920.53 9124.26,5920.53 9124.26,6375.19 "/>
  <path id="8" class="fil10" d="M9426 6333.91c-20.75,17.68 -40.75,30.06 -59.91,37.36 -19.15,7.31 -39.68,10.91 -61.7,10.91 -36.19,0 -64.03,-8.79 -83.5,-26.46 -19.47,-17.57 -29.21,-40.11 -29.21,-67.53 0,-16.08 3.7,-30.79 11.01,-44.13 7.41,-13.33 17.04,-23.92 28.89,-31.96 11.96,-8.04 25.29,-14.18 40.22,-18.31 11,-2.86 27.62,-5.61 49.74,-8.36 45.08,-5.29 78.42,-11.75 99.69,-19.16 0.21,-7.62 0.32,-12.48 0.32,-14.49 0,-22.65 -5.29,-38.63 -15.87,-47.95 -14.29,-12.59 -35.56,-18.84 -63.72,-18.84 -26.35,0 -45.82,4.66 -58.31,13.87 -12.59,9.21 -21.8,25.5 -27.83,49l-54.61 -7.62c4.97,-23.39 13.12,-42.33 24.55,-56.73 11.43,-14.39 27.94,-25.4 49.53,-33.23 21.48,-7.72 46.57,-11.64 74.93,-11.64 28.15,0 51.12,3.28 68.79,9.95 17.57,6.67 30.59,14.92 38.84,24.97 8.26,10.06 14.08,22.76 17.46,38.1 1.8,9.53 2.76,26.67 2.76,51.33l0 74.09c0,51.75 1.16,84.45 3.49,98.32 2.22,13.86 6.88,27.09 13.65,39.79l-58.42 0c-5.61,-11.75 -9.21,-25.51 -10.79,-41.28zm-4.45 -123.82c-20.32,8.25 -50.8,15.24 -91.44,20.95 -23.07,3.29 -39.37,6.99 -48.89,11.12 -9.53,4.12 -16.83,10.16 -22.02,17.99 -5.18,7.94 -7.83,16.72 -7.83,26.46 0,14.71 5.61,27.09 16.93,36.93 11.33,9.85 27.84,14.82 49.53,14.82 21.49,0 40.64,-4.66 57.47,-14.08 16.72,-9.31 29.11,-22.12 36.94,-38.31 6.03,-12.59 8.99,-31.11 8.99,-55.56l0.32 -20.32z"/>
  <path id="9" class="fil10" d="M9561.36 6501.87l-6.35 -51.64c12.28,3.28 22.86,4.97 31.96,4.97 12.49,0 22.44,-2.12 29.85,-6.24 7.51,-4.13 13.65,-9.95 18.41,-17.36 3.49,-5.61 9.21,-19.47 17.04,-41.7 1.06,-3.07 2.65,-7.62 4.98,-13.65l-125.1 -330.63 59.69 0 68.79 190.29c9,24.03 16.94,49.43 24.03,76.1 6.45,-25.09 14.07,-49.85 22.96,-74.19l70.28 -192.2 55.77 0 -124.57 335.29c-13.44,36.08 -23.91,60.85 -31.43,74.5 -9.95,18.31 -21.38,31.75 -34.18,40.32 -12.91,8.58 -28.26,12.81 -46.04,12.81 -10.8,0 -22.86,-2.22 -36.09,-6.67z"/>
  <path id="10" class="fil10" d="M10106.19 6268.51l57.79 7.62c-9,33.55 -25.83,59.69 -50.38,78.21 -24.55,18.52 -55.88,27.84 -94.09,27.84 -48.05,0 -86.15,-14.82 -114.3,-44.46 -28.15,-29.52 -42.22,-71.12 -42.22,-124.56 0,-55.25 14.18,-98.21 42.65,-128.69 28.47,-30.59 65.4,-45.83 110.8,-45.83 43.92,0 79.8,14.92 107.64,44.87 27.83,29.95 41.8,72.08 41.8,126.37 0,3.28 -0.11,8.25 -0.32,14.81l-245.42 0c2.11,36.09 12.27,63.82 30.69,82.98 18.31,19.15 41.27,28.78 68.68,28.78 20.43,0 37.89,-5.39 52.28,-16.19 14.5,-10.79 25.93,-28.04 34.4,-51.75zm-182.88 -89.54l183.52 0c-2.44,-27.72 -9.53,-48.47 -21.07,-62.33 -17.67,-21.49 -40.74,-32.28 -69,-32.28 -25.61,0 -47.09,8.57 -64.56,25.72 -17.35,17.14 -26.98,40.11 -28.89,68.89z"/>
  <path id="11" class="fil10" d="M10233.94 6375.19l0 -329.57 50.16 0 0 50.49c12.81,-23.39 24.66,-38.84 35.56,-46.25 10.9,-7.52 22.86,-11.22 35.88,-11.22 18.84,0 37.99,5.93 57.47,17.67l-19.9 51.54c-13.55,-7.62 -27.09,-11.43 -40.64,-11.43 -12.17,0 -23.07,3.71 -32.7,11.01 -9.63,7.3 -16.51,17.46 -20.64,30.48 -6.25,19.79 -9.31,41.49 -9.31,65.09l0 172.19 -55.88 0z"/>
  <path id="12" class="fil10" d="M10423.81 6276.76l55.24 -8.89c3.07,22.12 11.75,39.06 25.93,50.91 14.18,11.75 34.08,17.67 59.48,17.67 25.72,0 44.77,-5.18 57.25,-15.66 12.39,-10.37 18.63,-22.65 18.63,-36.72 0,-12.6 -5.61,-22.55 -16.72,-29.74 -7.83,-4.98 -26.88,-11.22 -57.15,-18.95 -40.85,-10.26 -69.11,-19.15 -84.99,-26.67 -15.76,-7.62 -27.72,-17.99 -35.87,-31.32 -8.15,-13.23 -12.28,-27.94 -12.28,-44.03 0,-14.71 3.39,-28.26 10.05,-40.75 6.78,-12.48 15.88,-22.86 27.42,-31.11 8.67,-6.35 20.53,-11.75 35.45,-16.19 15.03,-4.45 31.01,-6.67 48.15,-6.67 25.83,0 48.48,3.7 67.95,11.22 19.58,7.41 33.97,17.57 43.28,30.27 9.21,12.8 15.67,29.84 19.16,51.22l-54.61 7.62c-2.43,-17.15 -9.63,-30.59 -21.48,-40.22 -11.86,-9.63 -28.58,-14.39 -50.27,-14.39 -25.51,0 -43.82,4.23 -54.72,12.7 -10.9,8.47 -16.4,18.41 -16.4,29.74 0,7.2 2.22,13.76 6.77,19.58 4.55,5.92 11.64,10.9 21.38,14.81 5.61,2.12 21.9,6.88 49.21,14.29 39.37,10.48 66.89,19.16 82.55,25.83 15.66,6.66 27.94,16.51 36.83,29.21 9,12.8 13.44,28.68 13.44,47.73 0,18.52 -5.4,35.98 -16.3,52.38 -10.9,16.41 -26.56,29.11 -46.99,38.1 -20.53,9 -43.71,13.45 -69.53,13.45 -42.76,0 -75.46,-8.9 -97.9,-26.57 -22.43,-17.78 -36.72,-44.03 -42.96,-78.85z"/>
  <g>
   <path class="fil10" d="M6032.51 5976.4l52.92 0 0 52.92 -52.92 0 0 132.29c0.01,29.22 -23.69,52.92 -52.91,52.92 29.22,0 52.92,23.69 52.92,52.91l-0.01 132.3 52.92 0 0 52.92 -52.92 0c-28.31,-7.15 -52.92,-23.82 -52.92,-52.92l0 -105.83c0.02,-29.23 -23.68,-52.93 -52.9,-52.93l-26.47 0.01 0 -52.92 26.46 0c29.23,0 52.93,-23.7 52.93,-52.92l-0.02 -105.83c0.01,-29.22 23.71,-52.92 52.93,-52.92l-0.01 0zm370.42 0c29.22,0 52.92,23.7 52.92,52.92l0 105.83c-0.01,29.22 23.69,52.92 52.91,52.92l26.46 0 0 52.92 -26.46 0c-29.22,-0.01 -52.92,23.69 -52.92,52.91l0.01 105.84c0,29.21 -23.7,52.91 -52.92,52.91l-52.92 0.01 0 -52.92 52.92 0 0 -132.29c0,-29.23 23.7,-52.92 52.92,-52.92 -29.22,0 -52.92,-23.7 -52.92,-52.92l0 -132.29 -52.92 0 0 -52.92 52.92 0 0 0zm-185.21 317.51c14.61,-0.02 26.46,11.83 26.46,26.44 0,14.61 -11.85,26.46 -26.46,26.46 -14.6,0 -26.45,-11.85 -26.45,-26.46 0,-14.61 11.85,-26.46 26.45,-26.46l0 0.02zm-105.83 0c14.62,-0.02 26.47,11.83 26.47,26.44 0,14.61 -11.85,26.46 -26.46,26.46 -14.61,0 -26.46,-11.85 -26.46,-26.46 0,-14.61 11.85,-26.46 26.46,-26.46l-0.01 0.02zm211.66 0c14.61,-0.02 26.46,11.83 26.46,26.44 0,14.61 -11.85,26.46 -26.46,26.46 -14.61,0 -26.46,-11.85 -26.46,-26.46 0,-14.61 11.85,-26.46 26.46,-26.46l0 0.02z"/>
  </g>
  <g>
   <path class="fil11" d="M6402.93 4817.54l-370.42 0c-29.1,0 -52.92,23.82 -52.92,52.92l0 370.42c0,29.1 23.82,52.92 52.92,52.92l370.42 0c29.1,0 52.92,-23.82 52.92,-52.92l0 -370.42c0,-29.1 -23.82,-52.92 -52.92,-52.92l0 0zm-211.67 132.3l-52.92 0 0 52.91c0,29.11 -23.81,52.92 -52.91,52.92 29.1,0 52.91,23.81 52.91,52.92l0 52.91 52.92 0 0 52.92 -52.92 0c-29.1,0 -52.91,-23.81 -52.91,-52.92l0 -26.45c0,-29.11 -23.81,-52.92 -52.92,-52.92l0 -52.92c29.11,0 52.92,-23.81 52.92,-52.92l0 -26.45c0,-29.11 23.81,-52.92 52.91,-52.92l52.92 0 0 52.92 0 0zm211.67 132.29c-29.11,0 -52.92,23.81 -52.92,52.92l0 26.45c0,29.11 -23.81,52.92 -52.91,52.92l-52.92 0 0 -52.92 52.92 0 0 -52.91c0,-29.11 23.81,-52.92 52.91,-52.92 -29.1,0 -52.91,-23.81 -52.91,-52.92l0 -52.91 -52.92 0 0 -52.92 52.92 0c29.1,0 52.91,23.81 52.91,52.92l0 26.45c0,29.11 23.81,52.92 52.92,52.92l0 52.92z"/>
  </g>
  <g>
   <path class="fil12" d="M6138.34 1839.3c-14.6,0 -26.45,-11.85 -26.45,-26.46l0 -79.37 -105.84 0c-29.21,-0.01 -52.91,-23.71 -52.91,-52.93l0 -317.48c0,-29.37 23.81,-52.91 52.91,-52.91l423.33 0c29.22,-0.01 52.92,23.69 52.92,52.91l-0.01 317.49c0.01,29.21 -23.69,52.91 -52.91,52.91l-161.4 0.01 -97.89 98.16c-5.29,5.03 -11.9,7.67 -18.52,7.67l0 0 -13.23 0 0 0zm26.46 -158.75l0 81.5 81.49 -81.5 183.09 0 0 -317.49 -423.33 0 0 317.49 158.75 0 0 0zm158.74 -52.91l-211.65 0 0 -26.46c0,-35.18 70.64,-52.91 105.83,-52.91 35.18,0 105.82,17.73 105.82,52.91l0 26.46 0 0zm-105.82 -211.66c29.21,0 52.91,23.7 52.91,52.92 0,29.22 -23.7,52.92 -52.91,52.92 -29.21,0 -52.91,-23.7 -52.91,-52.92 0,-29.22 23.7,-52.92 52.91,-52.92z"/>
  </g>
  <g>
   <path class="fil13" d="M6386.92 4168.65l-396.88 0c-29.37,0 -52.91,-23.82 -52.91,-52.92l0 -317.5c0,-29.37 23.54,-52.92 52.91,-52.92l158.75 0 52.92 52.92 185.21 0c29.22,0 52.92,23.7 52.92,52.92l0 0 -449.8 0 0 264.58 56.62 -211.67 451.65 0 -60.33 224.9c-6.08,23.02 -26.72,39.69 -51.06,39.69z"/>
   <g>
    <path class="fil13" d="M6137.02 2531.31l-62.7 0c-3.16,-12.07 -4.79,-24.56 -4.79,-37.04 0,-12.49 1.63,-24.98 4.8,-37.04l62.69 0c-1.6,12.23 -2.54,24.66 -2.65,37.02 0.11,12.39 1.05,24.82 2.65,37.07l0 -0.01zm-47.36 -111.12l53.98 0c6.15,-22.85 14.91,-45.01 25.94,-65.9 -33.73,11.54 -62.18,34.99 -79.91,65.91l-0.01 -0.01zm256.12 0c-17.88,-30.92 -46.39,-54.34 -80.17,-65.88 11.16,20.8 19.86,42.98 25.66,65.86l54.51 0.02zm-128.06 221.45c15.73,-22.32 27.73,-47.12 35.46,-73.29l-70.91 0c7.73,26.17 19.73,50.97 35.44,73.27l0.01 0.02zm0 -295.01c-15.72,22.42 -27.72,47.3 -35.45,73.56l70.9 0c-7.72,-26.26 -19.72,-51.14 -35.45,-73.55l0 -0.01zm-128.06 221.72c17.87,30.81 46.26,54.22 79.91,65.88 -11.02,-20.88 -19.78,-43.04 -25.94,-65.87l-53.97 -0.01zm366.19 -259.29l0 370.42c0,29.21 -23.7,52.91 -52.92,52.91l-370.42 0.01c-29.21,-0.01 -52.91,-23.71 -52.91,-52.93l-0.01 -370.41c0.01,-29.22 23.71,-52.92 52.93,-52.92l370.41 0c29.22,0 52.92,23.7 52.92,52.92l0 0zm-52.92 185.21c0,-102.27 -82.94,-185.21 -185.21,-185.21 -102.26,0 -185.2,82.94 -185.2,185.21 0,102.26 82.94,185.2 185.2,185.2 102.27,0 185.21,-82.94 185.21,-185.2l0 0zm-101.87 0c-0.09,12.37 -1.03,24.8 -2.63,37.05l62.69 -0.01c3.17,-12.07 4.8,-24.56 4.8,-37.04 0,-12.49 -1.63,-24.98 -4.8,-37.04l-62.7 0c1.61,12.23 2.55,24.66 2.66,37.02l-0.02 0.02zm-35.45 139.96c33.76,-11.63 62.24,-35.03 80.18,-65.89l-54.52 0.01c-5.8,22.89 -14.5,45.07 -25.68,65.87l0.02 0.01zm-91.28 -177c-1.96,12.2 -2.96,24.66 -2.96,37.04 0,12.37 1,24.83 2.96,37.04l86.78 0c1.8,-12.25 2.83,-24.69 2.93,-37.06 -0.11,-12.36 -1.13,-24.83 -2.95,-37.03l-86.76 0.01z"/>
   </g>
   <g>
    <path class="fil13" d="M6244.17 3384.37l26.46 0c14.61,-0.01 26.46,11.84 26.46,26.45l185.2 0.01 0 52.91 -185.2 0c0,14.6 -11.85,26.45 -26.46,26.45l-105.83 0.01c-14.6,-0.01 -26.45,-11.86 -26.45,-26.47l-185.21 0.01 0 -52.91 185.2 0c0.01,-14.62 11.86,-26.47 26.47,-26.47l26.45 0.01 0 -52.92 -185.21 0c-14.6,-0.01 -26.45,-11.86 -26.45,-26.47l-0.01 -105.81c0.01,-14.61 11.86,-26.46 26.47,-26.46l423.32 0c14.61,0 26.46,11.85 26.46,26.46l0 105.82c0,14.6 -11.85,26.45 -26.46,26.45l-185.21 0.01 0 52.92 0 0zm-238.12 -423.33l423.33 0c14.61,0 26.46,11.85 26.46,26.46l0 105.84c0,14.61 -11.85,26.46 -26.46,26.46l-423.33 -0.01c-14.6,0.01 -26.45,-11.84 -26.45,-26.45l-0.01 -105.84c0.01,-14.61 11.86,-26.46 26.47,-26.46l-0.01 0zm132.29 105.84l26.46 0 0 -52.92 -26.46 0 0 52.92 0 0zm0 211.66l26.46 0 0 -52.91 -26.46 0 0 52.91 0 0zm-105.83 -264.58l0 52.92 52.92 0 0 -52.92 -52.92 0 0 0zm0 211.67l0 52.91 52.92 0 0 -52.91 -52.92 0z"/>
   </g>
  </g>
 </g>
</svg>
