<?xml version="1.0" encoding="UTF-8"?>
<!DOCTYPE svg PUBLIC "-//W3C//DTD SVG 1.1//EN" "http://www.w3.org/Graphics/SVG/1.1/DTD/svg11.dtd">
<!-- Creator: CorelDRAW 2019 (64-Bit) -->
<svg xmlns="http://www.w3.org/2000/svg" xml:space="preserve" width="195mm" height="80mm" version="1.1" style="shape-rendering:geometricPrecision; text-rendering:geometricPrecision; image-rendering:optimizeQuality; fill-rule:evenodd; clip-rule:evenodd"
viewBox="0 0 19500 8000"
 xmlns:xlink="http://www.w3.org/1999/xlink"
 xmlns:xodm="http://www.corel.com/coreldraw/odm/2003">
 <defs>
  <style type="text/css">
   <![CDATA[
    .str0 {stroke:#FEFEFE;stroke-width:200;stroke-miterlimit:22.9256}
    .fil7 {fill:#007BC1}
    .fil3 {fill:#4BBAEB}
    .fil9 {fill:#757576}
    .fil8 {fill:#898989}
    .fil2 {fill:#A0D0EE}
    .fil1 {fill:#B3B4B4}
    .fil0 {fill:#CCCCCD}
    .fil4 {fill:#007BC1;fill-rule:nonzero}
    .fil5 {fill:#4BBAEB;fill-rule:nonzero}
    .fil6 {fill:#A0D0EE;fill-rule:nonzero}
    .fil10 {fill:#B3B4B4;fill-rule:nonzero}
   ]]>
  </style>
 </defs>
 <g id="Ebene_x0020_1">
  <metadata id="CorelCorpID_0Corel-Layer"/>
  <path class="fil0 str0" d="M4228.21 4073.06l-3835.52 0c0,2118.31 1717.23,3835.54 3835.52,3835.54 2118.31,0 3835.54,-1717.23 3835.54,-3835.54 0,-901.73 -317.7,-1774.64 -897.34,-2465.43l-2938.19 2465.43 -0.01 0z"/>
  <path class="fil1 str0" d="M4228.21 4073.06l-2203.6 2203.61c584.44,584.43 1377.1,912.76 2203.6,912.76 1721.13,0 3116.37,-1395.24 3116.37,-3116.37 0,-363.52 -63.6,-724.25 -187.94,-1065.85l-2928.44 1065.85 0.01 0z"/>
  <path class="fil2 str0" d="M4228.21 4073.06l2938.19 -2465.43c-728.76,-868.5 -1804.42,-1370.1 -2938.19,-1370.1 -2118.3,0 -3835.52,1717.23 -3835.52,3835.52l3835.52 0 0 0.01z"/>
  <path class="fil3 str0" d="M4228.21 4073.06l2928.44 -1065.85c-448.1,-1231.1 -1618.3,-2050.51 -2928.44,-2050.51 -1721.12,0 -3116.36,1395.24 -3116.36,3116.36 0,826.52 328.33,1619.17 912.76,2203.61l2203.6 -2203.61z"/>
  <path class="fil4" d="M9876.36 5888.88l80.91 10.67c-12.6,46.97 -36.16,83.57 -70.53,109.49 -34.37,25.93 -78.23,38.98 -131.73,38.98 -67.27,0 -120.61,-20.75 -160.02,-62.24 -39.41,-41.33 -59.11,-99.57 -59.11,-174.38 0,-77.35 19.85,-137.49 59.71,-180.17 39.86,-42.83 91.56,-64.16 155.12,-64.16 61.49,0 111.72,20.89 150.7,62.82 38.96,41.93 58.52,100.91 58.52,176.92 0,4.59 -0.15,11.55 -0.45,20.73l-343.59 0c2.95,50.53 17.18,89.35 42.97,116.17 25.63,26.81 57.78,40.29 96.15,40.29 28.6,0 53.05,-7.55 73.19,-22.67 20.3,-15.11 36.3,-39.26 48.16,-72.45zm-256.03 -125.35l256.93 0c-3.42,-38.81 -13.34,-67.86 -29.5,-87.26 -24.74,-30.09 -57.04,-45.19 -96.6,-45.19 -35.85,0 -65.93,12 -90.38,36.01 -24.29,24 -37.77,56.15 -40.45,96.45l0 -0.01z"/>
  <path id="_1" class="fil4" d="M10056.1 6038.23l0 -461.4 70.24 0 0 65.49c33.78,-50.22 82.67,-75.26 146.52,-75.26 27.86,0 53.34,5.04 76.61,14.97 23.27,9.93 40.74,23.11 52.3,39.26 11.55,16.16 19.71,35.42 24.3,57.64 2.81,14.53 4.3,39.86 4.3,76.02l0 283.29 -78.23 0 0 -280.34c0,-31.85 -2.97,-55.71 -9.04,-71.41 -6.08,-15.71 -16.9,-28.29 -32.3,-37.79 -15.41,-9.32 -33.64,-14.07 -54.38,-14.07 -33.19,0 -61.8,10.51 -85.95,31.71 -24.15,21.04 -36.15,61.19 -36.15,120.16l0 251.73 -78.23 0 0.01 0z"/>
  <path id="_2" class="fil4" d="M10720.34 5968.44l10.67 69.05c-21.94,4.59 -41.64,6.97 -58.83,6.97 -28.29,0 -50.23,-4.45 -65.94,-13.5 -15.55,-9.03 -26.52,-20.73 -32.89,-35.41 -6.37,-14.67 -9.48,-45.49 -9.48,-92.46l0 -265.82 -57.79 0 0 -60.45 57.79 0 0 -114.09 78.23 -46.97 0 161.06 78.23 0 0 60.45 -78.23 0 0 270.26c0,22.39 1.33,36.75 4.14,43.12 2.66,6.37 7.11,11.41 13.33,15.26 6.23,3.71 15.12,5.63 26.67,5.63 8.6,0 20.01,-1.04 34.09,-3.11l0.01 0.01z"/>
  <path id="_3" class="fil4" d="M10797.52 5490.61l0 -88.9 78.23 0 0 88.9 -78.23 0zm0 547.62l0 -461.4 78.23 0 0 461.4 -78.23 0z"/>
  <path id="_4" class="fil4" d="M11164.84 5968.44l10.67 69.05c-21.94,4.59 -41.64,6.97 -58.83,6.97 -28.29,0 -50.23,-4.45 -65.94,-13.5 -15.55,-9.03 -26.52,-20.73 -32.89,-35.41 -6.37,-14.67 -9.48,-45.49 -9.48,-92.46l0 -265.82 -57.79 0 0 -60.45 57.79 0 0 -114.09 78.23 -46.97 0 161.06 78.23 0 0 60.45 -78.23 0 0 270.26c0,22.39 1.33,36.75 4.14,43.12 2.66,6.37 7.11,11.41 13.33,15.26 6.23,3.71 15.12,5.63 26.67,5.63 8.6,0 20.01,-1.04 34.09,-3.11l0.01 0.01z"/>
  <path id="_5" class="fil4" d="M11242.02 5490.61l0 -88.9 78.23 0 0 88.9 -78.23 0zm0 547.62l0 -461.4 78.23 0 0 461.4 -78.23 0z"/>
  <path id="_6" class="fil4" d="M11754.24 5888.88l80.91 10.67c-12.6,46.97 -36.16,83.57 -70.53,109.49 -34.37,25.93 -78.23,38.98 -131.73,38.98 -67.27,0 -120.61,-20.75 -160.02,-62.24 -39.41,-41.33 -59.11,-99.57 -59.11,-174.38 0,-77.35 19.85,-137.49 59.71,-180.17 39.86,-42.83 91.56,-64.16 155.12,-64.16 61.49,0 111.72,20.89 150.7,62.82 38.96,41.93 58.52,100.91 58.52,176.92 0,4.59 -0.15,11.55 -0.45,20.73l-343.59 0c2.95,50.53 17.18,89.35 42.97,116.17 25.63,26.81 57.78,40.29 96.15,40.29 28.6,0 53.05,-7.55 73.19,-22.67 20.3,-15.11 36.3,-39.26 48.16,-72.45zm-256.03 -125.35l256.93 0c-3.42,-38.81 -13.34,-67.86 -29.5,-87.26 -24.74,-30.09 -57.04,-45.19 -96.6,-45.19 -35.85,0 -65.93,12 -90.38,36.01 -24.29,24 -37.77,56.15 -40.45,96.45l0 -0.01z"/>
  <path id="_7" class="fil4" d="M11902.86 5900.43l77.34 -12.45c4.3,30.97 16.45,54.68 36.3,71.27 19.85,16.45 47.71,24.74 83.27,24.74 36.01,0 62.68,-7.25 80.15,-21.92 17.35,-14.52 26.08,-31.71 26.08,-51.41 0,-17.64 -7.85,-31.57 -23.41,-41.64 -10.96,-6.97 -37.63,-15.71 -80.01,-26.53 -57.19,-14.36 -96.75,-26.81 -118.99,-37.34 -22.06,-10.67 -38.81,-25.19 -50.22,-43.85 -11.41,-18.52 -17.19,-39.12 -17.19,-61.64 0,-20.59 4.75,-39.56 14.07,-57.05 9.49,-17.47 22.23,-32 38.39,-43.55 12.14,-8.89 28.74,-16.45 49.63,-22.67 21.04,-6.23 43.41,-9.34 67.41,-9.34 36.16,0 67.87,5.18 95.13,15.71 27.41,10.37 47.56,24.6 60.59,42.38 12.89,17.92 21.94,41.78 26.82,71.71l-76.45 10.67c-3.4,-24.01 -13.48,-42.83 -30.07,-56.31 -16.6,-13.48 -40.01,-20.15 -70.38,-20.15 -35.71,0 -61.35,5.92 -76.61,17.78 -15.26,11.86 -22.96,25.77 -22.96,41.64 0,10.08 3.11,19.26 9.48,27.41 6.37,8.29 16.3,15.26 29.93,20.73 7.85,2.97 30.66,9.63 68.89,20.01 55.12,14.67 93.65,26.82 115.57,36.16 21.92,9.32 39.12,23.11 51.56,40.89 12.6,17.92 18.82,40.15 18.82,66.82 0,25.93 -7.56,50.37 -22.82,73.33 -15.26,22.97 -37.18,40.75 -65.79,53.34 -28.74,12.6 -61.19,18.83 -97.34,18.83 -59.86,0 -105.64,-12.46 -137.06,-37.2 -31.4,-24.89 -51.41,-61.64 -60.14,-110.39l0.01 0.02z"/>
  <path id="_8" class="fil4" d="M12926.84 5980.44c-29.05,24.75 -57.05,42.08 -83.87,52.3 -26.81,10.23 -55.55,15.27 -86.38,15.27 -50.67,0 -89.64,-12.31 -116.9,-37.04 -27.26,-24.6 -40.89,-56.15 -40.89,-94.54 0,-22.51 5.18,-43.11 15.41,-61.78 10.37,-18.66 23.86,-33.49 40.45,-44.74 16.74,-11.26 35.41,-19.85 56.31,-25.63 15.4,-4 38.67,-7.85 69.64,-11.7 63.11,-7.41 109.79,-16.45 139.57,-26.82 0.29,-10.67 0.45,-17.47 0.45,-20.29 0,-31.71 -7.41,-54.08 -22.22,-67.13 -20.01,-17.63 -49.78,-26.38 -89.21,-26.38 -36.89,0 -64.15,6.52 -81.63,19.42 -17.63,12.89 -30.52,35.7 -38.96,68.6l-76.45 -10.67c6.96,-32.75 18.37,-59.26 34.37,-79.42 16,-20.15 39.12,-35.56 69.34,-46.52 30.07,-10.81 65.2,-16.3 104.9,-16.3 39.41,0 71.57,4.59 96.31,13.93 24.6,9.34 42.83,20.89 54.38,34.96 11.56,14.08 19.71,31.86 24.44,53.34 2.52,13.34 3.86,37.34 3.86,71.86l0 103.73c0,72.45 1.62,118.23 4.89,137.65 3.11,19.4 9.63,37.93 19.11,55.71l-81.79 0c-7.85,-16.45 -12.89,-35.71 -15.11,-57.79l-0.02 -0.02zm-6.23 -173.35c-28.45,11.55 -71.12,21.34 -128.02,29.33 -32.3,4.61 -55.12,9.79 -68.45,15.57 -13.34,5.77 -23.56,14.22 -30.83,25.19 -7.25,11.12 -10.96,23.41 -10.96,37.04 0,20.59 7.85,37.93 23.7,51.7 15.86,13.79 38.98,20.75 69.34,20.75 30.09,0 56.9,-6.52 80.46,-19.71 23.41,-13.03 40.75,-30.97 51.72,-53.63 8.44,-17.63 12.59,-43.55 12.59,-77.78l0.45 -28.45 0 -0.01z"/>
  <path id="_9" class="fil4" d="M13119.9 6038.23l0 -461.4 70.24 0 0 65.49c33.78,-50.22 82.67,-75.26 146.52,-75.26 27.86,0 53.34,5.04 76.61,14.97 23.27,9.93 40.74,23.11 52.3,39.26 11.55,16.16 19.71,35.42 24.3,57.64 2.81,14.53 4.3,39.86 4.3,76.02l0 283.29 -78.23 0 0 -280.34c0,-31.85 -2.97,-55.71 -9.04,-71.41 -6.08,-15.71 -16.9,-28.29 -32.3,-37.79 -15.41,-9.32 -33.64,-14.07 -54.38,-14.07 -33.19,0 -61.8,10.51 -85.95,31.71 -24.15,21.04 -36.15,61.19 -36.15,120.16l0 251.73 -78.23 0 0.01 0z"/>
  <path id="_10" class="fil4" d="M13912.16 6038.23l0 -58.52c-29.19,45.49 -72.17,68.31 -128.91,68.31 -36.75,0 -70.53,-10.08 -101.19,-30.38 -30.83,-20.15 -54.68,-48.45 -71.72,-84.6 -16.88,-36.3 -25.33,-77.94 -25.33,-125.06 0,-45.92 7.7,-87.56 22.96,-125.05 15.41,-37.34 38.37,-66.08 69.05,-85.93 30.52,-20.01 64.89,-29.93 102.68,-29.93 27.86,0 52.6,5.92 74.23,17.63 21.63,11.7 39.27,27.12 52.91,45.93l0 -228.91 78.23 0 0 636.52 -72.9 0 -0.01 -0.01zm-247.14 -230.1c0,58.97 12.45,102.97 37.48,132.16 24.89,29.19 54.38,43.71 88.31,43.71 34.23,0 63.27,-13.92 87.26,-41.78 23.86,-27.86 35.87,-70.38 35.87,-127.57 0,-62.83 -12.15,-109.06 -36.61,-138.54 -24.29,-29.48 -54.38,-44.16 -90.08,-44.16 -34.82,0 -63.87,14.08 -87.28,42.38 -23.25,28.31 -34.96,72.9 -34.96,133.8l0.01 0z"/>
  <path id="_11" class="fil4" d="M14657.14 5980.44c-29.05,24.75 -57.05,42.08 -83.87,52.3 -26.81,10.23 -55.55,15.27 -86.38,15.27 -50.67,0 -89.64,-12.31 -116.9,-37.04 -27.26,-24.6 -40.89,-56.15 -40.89,-94.54 0,-22.51 5.18,-43.11 15.41,-61.78 10.37,-18.66 23.86,-33.49 40.45,-44.74 16.74,-11.26 35.41,-19.85 56.31,-25.63 15.4,-4 38.67,-7.85 69.64,-11.7 63.11,-7.41 109.79,-16.45 139.57,-26.82 0.29,-10.67 0.45,-17.47 0.45,-20.29 0,-31.71 -7.41,-54.08 -22.22,-67.13 -20.01,-17.63 -49.78,-26.38 -89.21,-26.38 -36.89,0 -64.15,6.52 -81.63,19.42 -17.63,12.89 -30.52,35.7 -38.96,68.6l-76.45 -10.67c6.96,-32.75 18.37,-59.26 34.37,-79.42 16,-20.15 39.12,-35.56 69.34,-46.52 30.07,-10.81 65.2,-16.3 104.9,-16.3 39.41,0 71.57,4.59 96.31,13.93 24.6,9.34 42.83,20.89 54.38,34.96 11.56,14.08 19.71,31.86 24.44,53.34 2.52,13.34 3.86,37.34 3.86,71.86l0 103.73c0,72.45 1.62,118.23 4.89,137.65 3.11,19.4 9.63,37.93 19.11,55.71l-81.79 0c-7.85,-16.45 -12.89,-35.71 -15.11,-57.79l-0.02 -0.02zm-6.23 -173.35c-28.45,11.55 -71.12,21.34 -128.02,29.33 -32.3,4.61 -55.12,9.79 -68.45,15.57 -13.34,5.77 -23.56,14.22 -30.83,25.19 -7.25,11.12 -10.96,23.41 -10.96,37.04 0,20.59 7.85,37.93 23.7,51.7 15.86,13.79 38.98,20.75 69.34,20.75 30.09,0 56.9,-6.52 80.46,-19.71 23.41,-13.03 40.75,-30.97 51.72,-53.63 8.44,-17.63 12.59,-43.55 12.59,-77.78l0.45 -28.45 0 -0.01z"/>
  <path id="_12" class="fil4" d="M14922.22 6038.23l-72.9 0 0 -636.52 78.23 0 0 227.14c33.04,-41.19 75.11,-61.78 126.38,-61.78 28.31,0 55.27,5.63 80.6,17.04 25.34,11.41 46.09,27.57 62.54,48.16 16.3,20.73 29.19,45.63 38.37,74.82 9.32,29.05 13.93,60.31 13.93,93.49 0,78.83 -19.56,139.87 -58.53,182.84 -39.12,43.12 -85.93,64.61 -140.6,64.61 -54.39,0 -97.06,-22.68 -128.02,-67.87l0 58.09 0 -0.02zm-0.9 -234.1c0,55.12 7.56,94.98 22.53,119.57 24.6,40.15 57.78,60.3 99.71,60.3 34.23,0 63.71,-14.81 88.47,-44.45 24.89,-29.62 37.34,-73.78 37.34,-132.45 0,-60.16 -11.86,-104.45 -35.71,-133.06 -23.86,-28.59 -52.75,-42.97 -86.53,-42.97 -34.22,0 -63.71,14.81 -88.45,44.45 -24.89,29.64 -37.34,72.45 -37.34,128.6l-0.02 0.01z"/>
  <path id="_13" class="fil4" d="M15313.53 5900.43l77.34 -12.45c4.3,30.97 16.45,54.68 36.3,71.27 19.85,16.45 47.71,24.74 83.27,24.74 36.01,0 62.68,-7.25 80.15,-21.92 17.35,-14.52 26.08,-31.71 26.08,-51.41 0,-17.64 -7.85,-31.57 -23.41,-41.64 -10.96,-6.97 -37.63,-15.71 -80.01,-26.53 -57.19,-14.36 -96.75,-26.81 -118.99,-37.34 -22.06,-10.67 -38.81,-25.19 -50.22,-43.85 -11.41,-18.52 -17.19,-39.12 -17.19,-61.64 0,-20.59 4.75,-39.56 14.07,-57.05 9.49,-17.47 22.23,-32 38.39,-43.55 12.14,-8.89 28.74,-16.45 49.63,-22.67 21.04,-6.23 43.41,-9.34 67.41,-9.34 36.16,0 67.87,5.18 95.13,15.71 27.41,10.37 47.56,24.6 60.59,42.38 12.89,17.92 21.94,41.78 26.82,71.71l-76.45 10.67c-3.4,-24.01 -13.48,-42.83 -30.07,-56.31 -16.6,-13.48 -40.01,-20.15 -70.38,-20.15 -35.71,0 -61.35,5.92 -76.61,17.78 -15.26,11.86 -22.96,25.77 -22.96,41.64 0,10.08 3.11,19.26 9.48,27.41 6.37,8.29 16.3,15.26 29.93,20.73 7.85,2.97 30.66,9.63 68.89,20.01 55.12,14.67 93.65,26.82 115.57,36.16 21.92,9.32 39.12,23.11 51.56,40.89 12.6,17.92 18.82,40.15 18.82,66.82 0,25.93 -7.56,50.37 -22.82,73.33 -15.26,22.97 -37.18,40.75 -65.79,53.34 -28.74,12.6 -61.19,18.83 -97.34,18.83 -59.86,0 -105.64,-12.46 -137.06,-37.2 -31.4,-24.89 -51.41,-61.64 -60.14,-110.39l0.01 0.02z"/>
  <path id="_14" class="fil4" d="M15958.94 5968.44l10.67 69.05c-21.94,4.59 -41.64,6.97 -58.83,6.97 -28.29,0 -50.23,-4.45 -65.94,-13.5 -15.55,-9.03 -26.52,-20.73 -32.89,-35.41 -6.37,-14.67 -9.48,-45.49 -9.48,-92.46l0 -265.82 -57.79 0 0 -60.45 57.79 0 0 -114.09 78.23 -46.97 0 161.06 78.23 0 0 60.45 -78.23 0 0 270.26c0,22.39 1.33,36.75 4.14,43.12 2.66,6.37 7.11,11.41 13.33,15.26 6.23,3.71 15.12,5.63 26.67,5.63 8.6,0 20.01,-1.04 34.09,-3.11l0.01 0.01z"/>
  <path id="_15" class="fil4" d="M16035.24 6038.23l0 -461.4 70.22 0 0 70.69c17.93,-32.75 34.52,-54.38 49.78,-64.75 15.26,-10.53 32,-15.71 50.23,-15.71 26.38,0 53.19,8.3 80.46,24.74l-27.86 72.16c-18.97,-10.67 -37.93,-16 -56.9,-16 -17.04,0 -32.3,5.19 -45.78,15.41 -13.48,10.22 -23.11,24.44 -28.9,42.67 -8.75,27.71 -13.03,58.09 -13.03,91.13l0 241.07 -78.23 0 0.01 -0.01z"/>
  <path id="_16" class="fil4" d="M16633.55 5980.44c-29.05,24.75 -57.05,42.08 -83.87,52.3 -26.81,10.23 -55.55,15.27 -86.38,15.27 -50.67,0 -89.64,-12.31 -116.9,-37.04 -27.26,-24.6 -40.89,-56.15 -40.89,-94.54 0,-22.51 5.18,-43.11 15.41,-61.78 10.37,-18.66 23.86,-33.49 40.45,-44.74 16.74,-11.26 35.41,-19.85 56.31,-25.63 15.4,-4 38.67,-7.85 69.64,-11.7 63.11,-7.41 109.79,-16.45 139.57,-26.82 0.29,-10.67 0.45,-17.47 0.45,-20.29 0,-31.71 -7.41,-54.08 -22.22,-67.13 -20.01,-17.63 -49.78,-26.38 -89.21,-26.38 -36.89,0 -64.15,6.52 -81.63,19.42 -17.63,12.89 -30.52,35.7 -38.96,68.6l-76.45 -10.67c6.96,-32.75 18.37,-59.26 34.37,-79.42 16,-20.15 39.12,-35.56 69.34,-46.52 30.07,-10.81 65.2,-16.3 104.9,-16.3 39.41,0 71.57,4.59 96.31,13.93 24.6,9.34 42.83,20.89 54.38,34.96 11.56,14.08 19.71,31.86 24.44,53.34 2.52,13.34 3.86,37.34 3.86,71.86l0 103.73c0,72.45 1.62,118.23 4.89,137.65 3.11,19.4 9.63,37.93 19.11,55.71l-81.79 0c-7.85,-16.45 -12.89,-35.71 -15.11,-57.79l-0.02 -0.02zm-6.23 -173.35c-28.45,11.55 -71.12,21.34 -128.02,29.33 -32.3,4.61 -55.12,9.79 -68.45,15.57 -13.34,5.77 -23.56,14.22 -30.83,25.19 -7.25,11.12 -10.96,23.41 -10.96,37.04 0,20.59 7.85,37.93 23.7,51.7 15.86,13.79 38.98,20.75 69.34,20.75 30.09,0 56.9,-6.52 80.46,-19.71 23.41,-13.03 40.75,-30.97 51.72,-53.63 8.44,-17.63 12.59,-43.55 12.59,-77.78l0.45 -28.45 0 -0.01z"/>
  <path id="_17" class="fil4" d="M17127.99 5869.32l76.45 10.67c-8.46,52.6 -29.79,93.65 -64.32,123.42 -34.52,29.78 -77.04,44.6 -127.27,44.6 -62.97,0 -113.64,-20.61 -151.87,-61.8 -38.37,-41.19 -57.48,-100.16 -57.48,-176.9 0,-49.78 8.3,-93.2 24.74,-130.54 16.45,-37.2 41.5,-65.2 75.28,-83.72 33.63,-18.66 70.22,-28 109.94,-28 49.92,0 90.97,12.6 122.68,37.93 31.85,25.34 52.3,61.35 61.19,107.87l-75.57 11.55c-7.27,-30.95 -20.01,-54.22 -38.53,-69.93 -18.37,-15.55 -40.59,-23.41 -66.67,-23.41 -39.41,0 -71.41,14.07 -96.17,42.22 -24.6,28.31 -36.89,72.76 -36.89,133.8 0,61.94 11.86,106.83 35.56,134.83 23.86,28 54.82,42.07 92.9,42.07 30.81,0 56.45,-9.32 76.9,-28.14 20.59,-18.68 33.63,-47.57 39.12,-86.53l0.01 0.01z"/>
  <path id="_18" class="fil4" d="M17440.91 5968.44l10.67 69.05c-21.94,4.59 -41.64,6.97 -58.83,6.97 -28.29,0 -50.23,-4.45 -65.94,-13.5 -15.55,-9.03 -26.52,-20.73 -32.89,-35.41 -6.37,-14.67 -9.48,-45.49 -9.48,-92.46l0 -265.82 -57.79 0 0 -60.45 57.79 0 0 -114.09 78.23 -46.97 0 161.06 78.23 0 0 60.45 -78.23 0 0 270.26c0,22.39 1.33,36.75 4.14,43.12 2.66,6.37 7.11,11.41 13.33,15.26 6.23,3.71 15.12,5.63 26.67,5.63 8.6,0 20.01,-1.04 34.09,-3.11l0.01 0.01z"/>
  <path id="_19" class="fil4" d="M17518.1 5490.61l0 -88.9 78.23 0 0 88.9 -78.23 0zm0 547.62l0 -461.4 78.23 0 0 461.4 -78.23 0z"/>
  <path id="_20" class="fil4" d="M17686.28 5807.54c0,-85.2 23.7,-148.32 71.26,-189.36 39.56,-34.08 88.02,-51.11 145.05,-51.11 63.27,0 115.12,20.75 155.43,62.23 40.15,41.34 60.31,98.67 60.31,171.72 0,59.26 -8.89,105.8 -26.67,139.72 -17.78,33.94 -43.72,60.31 -77.8,79.13 -33.92,18.82 -71.12,28.15 -111.27,28.15 -64.6,0 -116.75,-20.61 -156.6,-61.94 -39.86,-41.34 -59.71,-100.91 -59.71,-178.54zm80.01 0.14c0,58.97 12.88,103.12 38.67,132.31 25.93,29.34 58.38,44 97.64,44 38.82,0 71.12,-14.66 97.05,-44.14 25.79,-29.48 38.68,-74.38 38.68,-134.69 0,-56.9 -13.05,-100 -38.98,-129.19 -25.93,-29.34 -58.23,-44.02 -96.75,-44.02 -39.26,0 -71.71,14.53 -97.64,43.72 -25.79,29.18 -38.67,73.19 -38.67,132.01z"/>
  <path id="_21" class="fil4" d="M18210.05 6038.23l0 -461.4 70.24 0 0 65.49c33.78,-50.22 82.67,-75.26 146.52,-75.26 27.86,0 53.34,5.04 76.61,14.97 23.27,9.93 40.74,23.11 52.3,39.26 11.55,16.16 19.71,35.42 24.3,57.64 2.81,14.53 4.3,39.86 4.3,76.02l0 283.29 -78.23 0 0 -280.34c0,-31.85 -2.97,-55.71 -9.04,-71.41 -6.08,-15.71 -16.9,-28.29 -32.3,-37.79 -15.41,-9.32 -33.64,-14.07 -54.38,-14.07 -33.19,0 -61.8,10.51 -85.95,31.71 -24.15,21.04 -36.15,61.19 -36.15,120.16l0 251.73 -78.23 0 0.01 0z"/>
  <path id="_22" class="fil4" d="M18673.38 5900.43l77.34 -12.45c4.3,30.97 16.45,54.68 36.3,71.27 19.85,16.45 47.71,24.74 83.27,24.74 36.01,0 62.68,-7.25 80.15,-21.92 17.35,-14.52 26.08,-31.71 26.08,-51.41 0,-17.64 -7.85,-31.57 -23.41,-41.64 -10.96,-6.97 -37.63,-15.71 -80.01,-26.53 -57.19,-14.36 -96.75,-26.81 -118.99,-37.34 -22.06,-10.67 -38.81,-25.19 -50.22,-43.85 -11.41,-18.52 -17.19,-39.12 -17.19,-61.64 0,-20.59 4.75,-39.56 14.07,-57.05 9.49,-17.47 22.23,-32 38.39,-43.55 12.14,-8.89 28.74,-16.45 49.63,-22.67 21.04,-6.23 43.41,-9.34 67.41,-9.34 36.16,0 67.87,5.18 95.13,15.71 27.41,10.37 47.56,24.6 60.59,42.38 12.89,17.92 21.94,41.78 26.82,71.71l-76.45 10.67c-3.4,-24.01 -13.48,-42.83 -30.07,-56.31 -16.6,-13.48 -40.01,-20.15 -70.38,-20.15 -35.71,0 -61.35,5.92 -76.61,17.78 -15.26,11.86 -22.96,25.77 -22.96,41.64 0,10.08 3.11,19.26 9.48,27.41 6.37,8.29 16.3,15.26 29.93,20.73 7.85,2.97 30.66,9.63 68.89,20.01 55.12,14.67 93.65,26.82 115.57,36.16 21.92,9.32 39.12,23.11 51.56,40.89 12.6,17.92 18.82,40.15 18.82,66.82 0,25.93 -7.56,50.37 -22.82,73.33 -15.26,22.97 -37.18,40.75 -65.79,53.34 -28.74,12.6 -61.19,18.83 -97.34,18.83 -59.86,0 -105.64,-12.46 -137.06,-37.2 -31.4,-24.89 -51.41,-61.64 -60.14,-110.39l0.01 0.02z"/>
  <path class="fil5" d="M9535.88 2935.79l0 -88.9 78.23 0 0 88.9 -78.23 0zm0 547.62l0 -461.4 78.23 0 0 461.4 -78.23 0z"/>
  <path id="_1_0" class="fil5" d="M9733.4 3483.41l0 -461.4 70.24 0 0 65.49c33.78,-50.22 82.67,-75.26 146.52,-75.26 27.86,0 53.34,5.04 76.61,14.97 23.27,9.93 40.74,23.11 52.3,39.26 11.55,16.16 19.71,35.42 24.3,57.64 2.81,14.53 4.3,39.86 4.3,76.02l0 283.29 -78.23 0 0 -280.34c0,-31.85 -2.97,-55.71 -9.04,-71.41 -6.08,-15.71 -16.9,-28.29 -32.3,-37.79 -15.41,-9.32 -33.64,-14.07 -54.38,-14.07 -33.19,0 -61.8,10.51 -85.95,31.71 -24.15,21.04 -36.15,61.19 -36.15,120.16l0 251.73 -78.23 0 0.01 0z"/>
  <path id="_2_1" class="fil5" d="M10246.51 3483.41l0 -400.95 -69.34 0 0 -60.45 69.34 0 0 -48.89c0,-30.97 2.66,-53.93 8.15,-68.89 7.55,-20.16 20.59,-36.6 39.55,-49.2 18.82,-12.6 45.35,-18.82 79.42,-18.82 22.08,0 46.38,2.66 73.05,7.85l-11.7 68.45c-16.31,-2.81 -31.57,-4.3 -46.09,-4.3 -23.7,0 -40.45,5.04 -50.37,15.12 -9.79,10.08 -14.67,28.9 -14.67,56.45l0 42.22 89.8 0 0 60.45 -88.9 0 0 400.95 -78.23 0 -0.01 0.01z"/>
  <path id="_3_2" class="fil5" d="M10473.94 3483.41l0 -461.4 70.22 0 0 70.69c17.93,-32.75 34.52,-54.38 49.78,-64.75 15.26,-10.53 32,-15.71 50.23,-15.71 26.38,0 53.19,8.3 80.46,24.74l-27.86 72.16c-18.97,-10.67 -37.93,-16 -56.9,-16 -17.04,0 -32.3,5.19 -45.78,15.41 -13.48,10.22 -23.11,24.44 -28.9,42.67 -8.75,27.71 -13.03,58.09 -13.03,91.13l0 241.07 -78.23 0 0.01 -0.01z"/>
  <path id="_4_3" class="fil5" d="M11072.24 3425.62c-29.05,24.75 -57.05,42.08 -83.87,52.3 -26.81,10.23 -55.55,15.27 -86.38,15.27 -50.67,0 -89.64,-12.31 -116.9,-37.04 -27.26,-24.6 -40.89,-56.15 -40.89,-94.54 0,-22.51 5.18,-43.11 15.41,-61.78 10.37,-18.66 23.86,-33.49 40.45,-44.74 16.74,-11.26 35.41,-19.85 56.31,-25.63 15.4,-4 38.67,-7.85 69.64,-11.7 63.11,-7.41 109.79,-16.45 139.57,-26.82 0.29,-10.67 0.45,-17.47 0.45,-20.29 0,-31.71 -7.41,-54.08 -22.22,-67.13 -20.01,-17.63 -49.78,-26.38 -89.21,-26.38 -36.89,0 -64.15,6.52 -81.63,19.42 -17.63,12.89 -30.52,35.7 -38.96,68.6l-76.45 -10.67c6.96,-32.75 18.37,-59.26 34.37,-79.42 16,-20.15 39.12,-35.56 69.34,-46.52 30.07,-10.81 65.2,-16.3 104.9,-16.3 39.41,0 71.57,4.59 96.31,13.93 24.6,9.34 42.83,20.89 54.38,34.96 11.56,14.08 19.71,31.86 24.44,53.34 2.52,13.34 3.86,37.34 3.86,71.86l0 103.73c0,72.45 1.62,118.23 4.89,137.65 3.11,19.4 9.63,37.93 19.11,55.71l-81.79 0c-7.85,-16.45 -12.89,-35.71 -15.11,-57.79l-0.02 -0.02zm-6.23 -173.35c-28.45,11.55 -71.12,21.34 -128.02,29.33 -32.3,4.61 -55.12,9.79 -68.45,15.57 -13.34,5.77 -23.56,14.22 -30.83,25.19 -7.25,11.12 -10.96,23.41 -10.96,37.04 0,20.59 7.85,37.93 23.7,51.7 15.86,13.79 38.98,20.75 69.34,20.75 30.09,0 56.9,-6.52 80.46,-19.71 23.41,-13.03 40.75,-30.97 51.72,-53.63 8.44,-17.63 12.59,-43.55 12.59,-77.78l0.45 -28.45 0 -0.01z"/>
  <path id="_5_4" class="fil5" d="M11234.2 3345.61l77.34 -12.45c4.3,30.97 16.45,54.68 36.3,71.27 19.85,16.45 47.71,24.74 83.27,24.74 36.01,0 62.68,-7.25 80.15,-21.92 17.35,-14.52 26.08,-31.71 26.08,-51.41 0,-17.64 -7.85,-31.57 -23.41,-41.64 -10.96,-6.97 -37.63,-15.71 -80.01,-26.53 -57.19,-14.36 -96.75,-26.81 -118.99,-37.34 -22.06,-10.67 -38.81,-25.19 -50.22,-43.85 -11.41,-18.52 -17.19,-39.12 -17.19,-61.64 0,-20.59 4.75,-39.56 14.07,-57.05 9.49,-17.47 22.23,-32 38.39,-43.55 12.14,-8.89 28.74,-16.45 49.63,-22.67 21.04,-6.23 43.41,-9.34 67.41,-9.34 36.16,0 67.87,5.18 95.13,15.71 27.41,10.37 47.56,24.6 60.59,42.38 12.89,17.92 21.94,41.78 26.82,71.71l-76.45 10.67c-3.4,-24.01 -13.48,-42.83 -30.07,-56.31 -16.6,-13.48 -40.01,-20.15 -70.38,-20.15 -35.71,0 -61.35,5.92 -76.61,17.78 -15.26,11.86 -22.96,25.77 -22.96,41.64 0,10.08 3.11,19.26 9.48,27.41 6.37,8.29 16.3,15.26 29.93,20.73 7.85,2.97 30.66,9.63 68.89,20.01 55.12,14.67 93.65,26.82 115.57,36.16 21.92,9.32 39.12,23.11 51.56,40.89 12.6,17.92 18.82,40.15 18.82,66.82 0,25.93 -7.56,50.37 -22.82,73.33 -15.26,22.97 -37.18,40.75 -65.79,53.34 -28.74,12.6 -61.19,18.83 -97.34,18.83 -59.86,0 -105.64,-12.46 -137.06,-37.2 -31.4,-24.89 -51.41,-61.64 -60.14,-110.39l0.01 0.02z"/>
  <path id="_6_5" class="fil5" d="M11879.61 3413.62l10.67 69.05c-21.94,4.59 -41.64,6.97 -58.83,6.97 -28.29,0 -50.23,-4.45 -65.94,-13.5 -15.55,-9.03 -26.52,-20.73 -32.89,-35.41 -6.37,-14.67 -9.48,-45.49 -9.48,-92.46l0 -265.82 -57.79 0 0 -60.45 57.79 0 0 -114.09 78.23 -46.97 0 161.06 78.23 0 0 60.45 -78.23 0 0 270.26c0,22.39 1.33,36.75 4.14,43.12 2.66,6.37 7.11,11.41 13.33,15.26 6.23,3.71 15.12,5.63 26.67,5.63 8.6,0 20.01,-1.04 34.09,-3.11l0.01 0.01z"/>
  <path id="_7_6" class="fil5" d="M11955.91 3483.41l0 -461.4 70.22 0 0 70.69c17.93,-32.75 34.52,-54.38 49.78,-64.75 15.26,-10.53 32,-15.71 50.23,-15.71 26.38,0 53.19,8.3 80.46,24.74l-27.86 72.16c-18.97,-10.67 -37.93,-16 -56.9,-16 -17.04,0 -32.3,5.19 -45.78,15.41 -13.48,10.22 -23.11,24.44 -28.9,42.67 -8.75,27.71 -13.03,58.09 -13.03,91.13l0 241.07 -78.23 0 0.01 -0.01z"/>
  <path id="_8_7" class="fil5" d="M12554.21 3483.41l0 -68.6c-35.87,52.3 -84.46,78.39 -145.95,78.39 -27.12,0 -52.46,-5.19 -76.01,-15.57 -23.56,-10.51 -41.05,-23.56 -52.46,-39.26 -11.41,-15.86 -19.4,-35.13 -24,-57.93 -3.12,-15.41 -4.75,-39.72 -4.75,-72.9l0 -285.53 78.23 0 0 255.3c0,40.74 1.62,68.29 4.75,82.38 4.89,20.59 15.26,36.6 31.26,48.3 15.85,11.7 35.41,17.63 58.81,17.63 23.42,0 45.35,-5.92 65.79,-17.92 20.45,-12 34.97,-28.45 43.57,-49.04 8.44,-20.59 12.74,-50.68 12.74,-89.94l0 -246.71 78.23 0 0 461.4 -70.22 0 0.01 0z"/>
  <path id="_9_8" class="fil5" d="M13048.65 3314.5l76.45 10.67c-8.46,52.6 -29.79,93.65 -64.32,123.42 -34.52,29.78 -77.04,44.6 -127.27,44.6 -62.97,0 -113.64,-20.61 -151.87,-61.8 -38.37,-41.19 -57.48,-100.16 -57.48,-176.9 0,-49.78 8.3,-93.2 24.74,-130.54 16.45,-37.2 41.5,-65.2 75.28,-83.72 33.63,-18.66 70.22,-28 109.94,-28 49.92,0 90.97,12.6 122.68,37.93 31.85,25.34 52.3,61.35 61.19,107.87l-75.57 11.55c-7.27,-30.95 -20.01,-54.22 -38.53,-69.93 -18.37,-15.55 -40.59,-23.41 -66.67,-23.41 -39.41,0 -71.41,14.07 -96.17,42.22 -24.6,28.31 -36.89,72.76 -36.89,133.8 0,61.94 11.86,106.83 35.56,134.83 23.86,28 54.82,42.07 92.9,42.07 30.81,0 56.45,-9.32 76.9,-28.14 20.59,-18.68 33.63,-47.57 39.12,-86.53l0.01 0.01z"/>
  <path id="_10_9" class="fil5" d="M13361.58 3413.62l10.67 69.05c-21.94,4.59 -41.64,6.97 -58.83,6.97 -28.29,0 -50.23,-4.45 -65.94,-13.5 -15.55,-9.03 -26.52,-20.73 -32.89,-35.41 -6.37,-14.67 -9.48,-45.49 -9.48,-92.46l0 -265.82 -57.79 0 0 -60.45 57.79 0 0 -114.09 78.23 -46.97 0 161.06 78.23 0 0 60.45 -78.23 0 0 270.26c0,22.39 1.33,36.75 4.14,43.12 2.66,6.37 7.11,11.41 13.33,15.26 6.23,3.71 15.12,5.63 26.67,5.63 8.6,0 20.01,-1.04 34.09,-3.11l0.01 0.01z"/>
  <path id="_11_10" class="fil5" d="M13740.14 3483.41l0 -68.6c-35.87,52.3 -84.46,78.39 -145.95,78.39 -27.12,0 -52.46,-5.19 -76.01,-15.57 -23.56,-10.51 -41.05,-23.56 -52.46,-39.26 -11.41,-15.86 -19.4,-35.13 -24,-57.93 -3.12,-15.41 -4.75,-39.72 -4.75,-72.9l0 -285.53 78.23 0 0 255.3c0,40.74 1.62,68.29 4.75,82.38 4.89,20.59 15.26,36.6 31.26,48.3 15.85,11.7 35.41,17.63 58.81,17.63 23.42,0 45.35,-5.92 65.79,-17.92 20.45,-12 34.97,-28.45 43.57,-49.04 8.44,-20.59 12.74,-50.68 12.74,-89.94l0 -246.71 78.23 0 0 461.4 -70.22 0 0.01 0z"/>
  <path id="_12_11" class="fil5" d="M13932.32 3483.41l0 -461.4 70.22 0 0 70.69c17.93,-32.75 34.52,-54.38 49.78,-64.75 15.26,-10.53 32,-15.71 50.23,-15.71 26.38,0 53.19,8.3 80.46,24.74l-27.86 72.16c-18.97,-10.67 -37.93,-16 -56.9,-16 -17.04,0 -32.3,5.19 -45.78,15.41 -13.48,10.22 -23.11,24.44 -28.9,42.67 -8.75,27.71 -13.03,58.09 -13.03,91.13l0 241.07 -78.23 0 0.01 -0.01z"/>
  <path id="_13_12" class="fil5" d="M14543.95 3334.06l80.91 10.67c-12.6,46.97 -36.16,83.57 -70.53,109.49 -34.37,25.93 -78.23,38.98 -131.73,38.98 -67.27,0 -120.61,-20.75 -160.02,-62.24 -39.41,-41.33 -59.11,-99.57 -59.11,-174.38 0,-77.35 19.85,-137.49 59.71,-180.17 39.86,-42.83 91.56,-64.16 155.12,-64.16 61.49,0 111.72,20.89 150.7,62.82 38.96,41.93 58.52,100.91 58.52,176.92 0,4.59 -0.15,11.55 -0.45,20.73l-343.59 0c2.95,50.53 17.18,89.35 42.97,116.17 25.63,26.81 57.78,40.29 96.15,40.29 28.6,0 53.05,-7.55 73.19,-22.67 20.3,-15.11 36.3,-39.26 48.16,-72.45zm-256.03 -125.36l256.93 0c-3.42,-38.81 -13.34,-67.86 -29.5,-87.26 -24.74,-30.09 -57.04,-45.19 -96.6,-45.19 -35.85,0 -65.93,12 -90.38,36.01 -24.29,24 -37.77,56.15 -40.45,96.45l0 -0.01z"/>
  <polygon id="_28" class="fil5" points="14996.9,3483.41 14996.9,2846.89 15075.13,2846.89 15075.13,3483.41 "/>
  <path id="_29" class="fil5" d="M15497.57 3425.62c-29.05,24.75 -57.05,42.08 -83.87,52.3 -26.81,10.23 -55.55,15.27 -86.38,15.27 -50.67,0 -89.64,-12.31 -116.9,-37.04 -27.26,-24.6 -40.89,-56.15 -40.89,-94.54 0,-22.51 5.18,-43.11 15.41,-61.78 10.37,-18.66 23.86,-33.49 40.45,-44.74 16.74,-11.26 35.41,-19.85 56.31,-25.63 15.4,-4 38.67,-7.85 69.64,-11.7 63.11,-7.41 109.79,-16.45 139.57,-26.82 0.29,-10.67 0.45,-17.47 0.45,-20.29 0,-31.71 -7.41,-54.08 -22.22,-67.13 -20.01,-17.63 -49.78,-26.38 -89.21,-26.38 -36.89,0 -64.15,6.52 -81.63,19.42 -17.63,12.89 -30.52,35.7 -38.96,68.6l-76.45 -10.67c6.96,-32.75 18.37,-59.26 34.37,-79.42 16,-20.15 39.12,-35.56 69.34,-46.52 30.07,-10.81 65.2,-16.3 104.9,-16.3 39.41,0 71.57,4.59 96.31,13.93 24.6,9.34 42.83,20.89 54.38,34.96 11.56,14.08 19.71,31.86 24.44,53.34 2.52,13.34 3.86,37.34 3.86,71.86l0 103.73c0,72.45 1.62,118.23 4.89,137.65 3.11,19.4 9.63,37.93 19.11,55.71l-81.79 0c-7.85,-16.45 -12.89,-35.71 -15.11,-57.79l-0.02 -0.02zm-6.23 -173.35c-28.45,11.55 -71.12,21.34 -128.02,29.33 -32.3,4.61 -55.12,9.79 -68.45,15.57 -13.34,5.77 -23.56,14.22 -30.83,25.19 -7.25,11.12 -10.96,23.41 -10.96,37.04 0,20.59 7.85,37.93 23.7,51.7 15.86,13.79 38.98,20.75 69.34,20.75 30.09,0 56.9,-6.52 80.46,-19.71 23.41,-13.03 40.75,-30.97 51.72,-53.63 8.44,-17.63 12.59,-43.55 12.59,-77.78l0.45 -28.45 0 -0.01z"/>
  <path id="_30" class="fil5" d="M15687.07 3660.76l-8.89 -72.3c17.19,4.59 32,6.96 44.74,6.96 17.49,0 31.42,-2.97 41.79,-8.74 10.51,-5.78 19.11,-13.93 25.77,-24.3 4.89,-7.85 12.89,-27.26 23.86,-58.38 1.48,-4.3 3.71,-10.67 6.97,-19.11l-175.14 -462.88 83.57 0 96.31 266.41c12.6,33.64 23.72,69.2 33.64,106.54 9.03,-35.13 19.7,-69.79 32.14,-103.87l98.39 -269.08 78.08 0 -174.4 469.41c-18.82,50.51 -33.47,85.19 -44,104.3 -13.93,25.63 -29.93,44.45 -47.85,56.45 -18.07,12.01 -39.56,17.93 -64.46,17.93 -15.12,0 -32,-3.11 -50.53,-9.34l0.01 0z"/>
  <path id="_31" class="fil5" d="M16449.83 3334.06l80.91 10.67c-12.6,46.97 -36.16,83.57 -70.53,109.49 -34.37,25.93 -78.23,38.98 -131.73,38.98 -67.27,0 -120.61,-20.75 -160.02,-62.24 -39.41,-41.33 -59.11,-99.57 -59.11,-174.38 0,-77.35 19.85,-137.49 59.71,-180.17 39.86,-42.83 91.56,-64.16 155.12,-64.16 61.49,0 111.72,20.89 150.7,62.82 38.96,41.93 58.52,100.91 58.52,176.92 0,4.59 -0.15,11.55 -0.45,20.73l-343.59 0c2.95,50.53 17.18,89.35 42.97,116.17 25.63,26.81 57.78,40.29 96.15,40.29 28.6,0 53.05,-7.55 73.19,-22.67 20.3,-15.11 36.3,-39.26 48.16,-72.45zm-256.03 -125.36l256.93 0c-3.42,-38.81 -13.34,-67.86 -29.5,-87.26 -24.74,-30.09 -57.04,-45.19 -96.6,-45.19 -35.85,0 -65.93,12 -90.38,36.01 -24.29,24 -37.77,56.15 -40.45,96.45l0 -0.01z"/>
  <path id="_32" class="fil5" d="M16628.68 3483.41l0 -461.4 70.22 0 0 70.69c17.93,-32.75 34.52,-54.38 49.78,-64.75 15.26,-10.53 32,-15.71 50.23,-15.71 26.38,0 53.19,8.3 80.46,24.74l-27.86 72.16c-18.97,-10.67 -37.93,-16 -56.9,-16 -17.04,0 -32.3,5.19 -45.78,15.41 -13.48,10.22 -23.11,24.44 -28.9,42.67 -8.75,27.71 -13.03,58.09 -13.03,91.13l0 241.07 -78.23 0 0.01 -0.01z"/>
  <path class="fil6" d="M9535.88 1208.82l0 -638.32 71.12 0 0 60.61c16.74,-23.41 35.71,-41.05 56.9,-52.75 21.04,-11.7 46.68,-17.63 76.75,-17.63 39.41,0 74.09,10.08 104.16,30.38 30.09,20.15 52.75,48.73 68.17,85.48 15.26,36.89 22.96,77.2 22.96,121.2 0,46.97 -8.44,89.35 -25.34,127.13 -16.88,37.63 -41.48,66.53 -73.78,86.67 -32.16,20.01 -66.08,30.09 -101.64,30.09 -26.08,0 -49.49,-5.49 -70.08,-16.45 -20.75,-10.96 -37.63,-24.75 -50.97,-41.5l0 225.08 -78.23 0 -0.02 0.01zm71.12 -404.79c0,59.12 12,102.83 35.85,131.12 24.01,28.29 53.05,42.52 87.12,42.52 34.68,0 64.3,-14.66 88.9,-44 24.75,-29.33 37.04,-74.68 37.04,-136.16 0,-58.67 -12,-102.54 -36.15,-131.71 -24.15,-29.19 -52.91,-43.72 -86.38,-43.72 -33.19,0 -62.54,15.57 -88.02,46.54 -25.63,31.11 -38.37,76.15 -38.37,135.42l0.01 -0.01z"/>
  <path id="_1_13" class="fil6" d="M10029.44 1031.9l0 -461.4 70.22 0 0 70.69c17.93,-32.75 34.52,-54.38 49.78,-64.75 15.26,-10.53 32,-15.71 50.23,-15.71 26.38,0 53.19,8.3 80.46,24.74l-27.86 72.16c-18.97,-10.67 -37.93,-16 -56.9,-16 -17.04,0 -32.3,5.19 -45.78,15.41 -13.48,10.22 -23.11,24.44 -28.9,42.67 -8.75,27.71 -13.03,58.09 -13.03,91.13l0 241.07 -78.23 0 0.01 -0.01z"/>
  <path id="_2_14" class="fil6" d="M10641.07 882.55l80.91 10.67c-12.6,46.97 -36.16,83.57 -70.53,109.49 -34.37,25.93 -78.23,38.98 -131.73,38.98 -67.27,0 -120.61,-20.75 -160.02,-62.24 -39.41,-41.33 -59.11,-99.57 -59.11,-174.38 0,-77.35 19.85,-137.49 59.71,-180.17 39.86,-42.83 91.56,-64.16 155.12,-64.16 61.49,0 111.72,20.89 150.7,62.82 38.96,41.93 58.52,100.91 58.52,176.92 0,4.59 -0.15,11.55 -0.45,20.73l-343.59 0c2.95,50.53 17.18,89.35 42.97,116.17 25.63,26.81 57.78,40.29 96.15,40.29 28.6,0 53.05,-7.55 73.19,-22.67 20.3,-15.11 36.3,-39.26 48.16,-72.45zm-256.03 -125.35l256.93 0c-3.42,-38.81 -13.34,-67.86 -29.5,-87.26 -24.74,-30.09 -57.04,-45.19 -96.6,-45.19 -35.85,0 -65.93,12 -90.38,36.01 -24.29,24 -37.77,56.15 -40.45,96.45l0 -0.01z"/>
  <path id="_3_15" class="fil6" d="M10789.7 894.1l77.34 -12.45c4.3,30.97 16.45,54.68 36.3,71.27 19.85,16.45 47.71,24.74 83.27,24.74 36.01,0 62.68,-7.25 80.15,-21.92 17.35,-14.52 26.08,-31.71 26.08,-51.41 0,-17.64 -7.85,-31.57 -23.41,-41.64 -10.96,-6.97 -37.63,-15.71 -80.01,-26.53 -57.19,-14.36 -96.75,-26.81 -118.99,-37.34 -22.06,-10.67 -38.81,-25.19 -50.22,-43.85 -11.41,-18.52 -17.19,-39.12 -17.19,-61.64 0,-20.59 4.75,-39.56 14.07,-57.05 9.49,-17.47 22.23,-32 38.39,-43.55 12.14,-8.89 28.74,-16.45 49.63,-22.67 21.04,-6.23 43.41,-9.34 67.41,-9.34 36.16,0 67.87,5.18 95.13,15.71 27.41,10.37 47.56,24.6 60.59,42.38 12.89,17.92 21.94,41.78 26.82,71.71l-76.45 10.67c-3.4,-24.01 -13.48,-42.83 -30.07,-56.31 -16.6,-13.48 -40.01,-20.15 -70.38,-20.15 -35.71,0 -61.35,5.92 -76.61,17.78 -15.26,11.86 -22.96,25.77 -22.96,41.64 0,10.08 3.11,19.26 9.48,27.41 6.37,8.29 16.3,15.26 29.93,20.73 7.85,2.97 30.66,9.63 68.89,20.01 55.12,14.67 93.65,26.82 115.57,36.16 21.92,9.32 39.12,23.11 51.56,40.89 12.6,17.92 18.82,40.15 18.82,66.82 0,25.93 -7.56,50.37 -22.82,73.33 -15.26,22.97 -37.18,40.75 -65.79,53.34 -28.74,12.6 -61.19,18.83 -97.34,18.83 -59.86,0 -105.64,-12.46 -137.06,-37.2 -31.4,-24.89 -51.41,-61.64 -60.14,-110.39l0.01 0.02z"/>
  <path id="_4_16" class="fil6" d="M11580.01 882.55l80.91 10.67c-12.6,46.97 -36.16,83.57 -70.53,109.49 -34.37,25.93 -78.23,38.98 -131.73,38.98 -67.27,0 -120.61,-20.75 -160.02,-62.24 -39.41,-41.33 -59.11,-99.57 -59.11,-174.38 0,-77.35 19.85,-137.49 59.71,-180.17 39.86,-42.83 91.56,-64.16 155.12,-64.16 61.49,0 111.72,20.89 150.7,62.82 38.96,41.93 58.52,100.91 58.52,176.92 0,4.59 -0.15,11.55 -0.45,20.73l-343.59 0c2.95,50.53 17.18,89.35 42.97,116.17 25.63,26.81 57.78,40.29 96.15,40.29 28.6,0 53.05,-7.55 73.19,-22.67 20.3,-15.11 36.3,-39.26 48.16,-72.45zm-256.03 -125.35l256.93 0c-3.42,-38.81 -13.34,-67.86 -29.5,-87.26 -24.74,-30.09 -57.04,-45.19 -96.6,-45.19 -35.85,0 -65.93,12 -90.38,36.01 -24.29,24 -37.77,56.15 -40.45,96.45l0 -0.01z"/>
  <path id="_5_17" class="fil6" d="M11759.74 1031.9l0 -461.4 70.24 0 0 65.49c33.78,-50.22 82.67,-75.26 146.52,-75.26 27.86,0 53.34,5.04 76.61,14.97 23.27,9.93 40.74,23.11 52.3,39.26 11.55,16.16 19.71,35.42 24.3,57.64 2.81,14.53 4.3,39.86 4.3,76.02l0 283.29 -78.23 0 0 -280.34c0,-31.85 -2.97,-55.71 -9.04,-71.41 -6.08,-15.71 -16.9,-28.29 -32.3,-37.79 -15.41,-9.32 -33.64,-14.07 -54.38,-14.07 -33.19,0 -61.8,10.51 -85.95,31.71 -24.15,21.04 -36.15,61.19 -36.15,120.16l0 251.73 -78.23 0 0.01 0z"/>
  <path id="_6_18" class="fil6" d="M12423.99 962.11l10.67 69.05c-21.94,4.59 -41.64,6.97 -58.83,6.97 -28.29,0 -50.23,-4.45 -65.94,-13.5 -15.55,-9.03 -26.52,-20.73 -32.89,-35.41 -6.37,-14.67 -9.48,-45.49 -9.48,-92.46l0 -265.82 -57.79 0 0 -60.45 57.79 0 0 -114.09 78.23 -46.97 0 161.06 78.23 0 0 60.45 -78.23 0 0 270.26c0,22.39 1.33,36.75 4.14,43.12 2.66,6.37 7.11,11.41 13.33,15.26 6.23,3.71 15.12,5.63 26.67,5.63 8.6,0 20.01,-1.04 34.09,-3.11l0.01 0.01z"/>
  <path id="_7_19" class="fil6" d="M12802.55 974.11c-29.05,24.75 -57.05,42.08 -83.87,52.3 -26.81,10.23 -55.55,15.27 -86.38,15.27 -50.67,0 -89.64,-12.31 -116.9,-37.04 -27.26,-24.6 -40.89,-56.15 -40.89,-94.54 0,-22.51 5.18,-43.11 15.41,-61.78 10.37,-18.66 23.86,-33.49 40.45,-44.74 16.74,-11.26 35.41,-19.85 56.31,-25.63 15.4,-4 38.67,-7.85 69.64,-11.7 63.11,-7.41 109.79,-16.45 139.57,-26.82 0.29,-10.67 0.45,-17.47 0.45,-20.29 0,-31.71 -7.41,-54.08 -22.22,-67.13 -20.01,-17.63 -49.78,-26.38 -89.21,-26.38 -36.89,0 -64.15,6.52 -81.63,19.42 -17.63,12.89 -30.52,35.7 -38.96,68.6l-76.45 -10.67c6.96,-32.75 18.37,-59.26 34.37,-79.42 16,-20.15 39.12,-35.56 69.34,-46.52 30.07,-10.81 65.2,-16.3 104.9,-16.3 39.41,0 71.57,4.59 96.31,13.93 24.6,9.34 42.83,20.89 54.38,34.96 11.56,14.08 19.71,31.86 24.44,53.34 2.52,13.34 3.86,37.34 3.86,71.86l0 103.73c0,72.45 1.62,118.23 4.89,137.65 3.11,19.4 9.63,37.93 19.11,55.71l-81.79 0c-7.85,-16.45 -12.89,-35.71 -15.11,-57.79l-0.02 -0.02zm-6.23 -173.35c-28.45,11.55 -71.12,21.34 -128.02,29.33 -32.3,4.61 -55.12,9.79 -68.45,15.57 -13.34,5.77 -23.56,14.22 -30.83,25.19 -7.25,11.12 -10.96,23.41 -10.96,37.04 0,20.59 7.85,37.93 23.7,51.7 15.86,13.79 38.98,20.75 69.34,20.75 30.09,0 56.9,-6.52 80.46,-19.71 23.41,-13.03 40.75,-30.97 51.72,-53.63 8.44,-17.63 12.59,-43.55 12.59,-77.78l0.45 -28.45 0 -0.01z"/>
  <path id="_8_20" class="fil6" d="M13165.41 962.11l10.67 69.05c-21.94,4.59 -41.64,6.97 -58.83,6.97 -28.29,0 -50.23,-4.45 -65.94,-13.5 -15.55,-9.03 -26.52,-20.73 -32.89,-35.41 -6.37,-14.67 -9.48,-45.49 -9.48,-92.46l0 -265.82 -57.79 0 0 -60.45 57.79 0 0 -114.09 78.23 -46.97 0 161.06 78.23 0 0 60.45 -78.23 0 0 270.26c0,22.39 1.33,36.75 4.14,43.12 2.66,6.37 7.11,11.41 13.33,15.26 6.23,3.71 15.12,5.63 26.67,5.63 8.6,0 20.01,-1.04 34.09,-3.11l0.01 0.01z"/>
  <path id="_9_21" class="fil6" d="M13242.59 484.28l0 -88.9 78.23 0 0 88.9 -78.23 0zm0 547.62l0 -461.4 78.23 0 0 461.4 -78.23 0z"/>
  <path id="_10_22" class="fil6" d="M13410.78 801.21c0,-85.2 23.7,-148.32 71.26,-189.36 39.56,-34.08 88.02,-51.11 145.05,-51.11 63.27,0 115.12,20.75 155.43,62.23 40.15,41.34 60.31,98.67 60.31,171.72 0,59.26 -8.89,105.8 -26.67,139.72 -17.78,33.94 -43.72,60.31 -77.8,79.13 -33.92,18.82 -71.12,28.15 -111.27,28.15 -64.6,0 -116.75,-20.61 -156.6,-61.94 -39.86,-41.34 -59.71,-100.91 -59.71,-178.54zm80.01 0.14c0,58.97 12.88,103.12 38.67,132.31 25.93,29.34 58.38,44 97.64,44 38.82,0 71.12,-14.66 97.05,-44.14 25.79,-29.48 38.68,-74.38 38.68,-134.69 0,-56.9 -13.05,-100 -38.98,-129.19 -25.93,-29.34 -58.23,-44.02 -96.75,-44.02 -39.26,0 -71.71,14.53 -97.64,43.72 -25.79,29.18 -38.67,73.19 -38.67,132.01z"/>
  <path id="_11_23" class="fil6" d="M13934.54 1031.9l0 -461.4 70.24 0 0 65.49c33.78,-50.22 82.67,-75.26 146.52,-75.26 27.86,0 53.34,5.04 76.61,14.97 23.27,9.93 40.74,23.11 52.3,39.26 11.55,16.16 19.71,35.42 24.3,57.64 2.81,14.53 4.3,39.86 4.3,76.02l0 283.29 -78.23 0 0 -280.34c0,-31.85 -2.97,-55.71 -9.04,-71.41 -6.08,-15.71 -16.9,-28.29 -32.3,-37.79 -15.41,-9.32 -33.64,-14.07 -54.38,-14.07 -33.19,0 -61.8,10.51 -85.95,31.71 -24.15,21.04 -36.15,61.19 -36.15,120.16l0 251.73 -78.23 0 0.01 0z"/>
  <polygon id="_12_24" class="fil6" points="14674.19,1031.9 14674.19,395.38 14752.42,395.38 14752.42,1031.9 "/>
  <path id="_13_25" class="fil6" d="M15174.86 974.11c-29.05,24.75 -57.05,42.08 -83.87,52.3 -26.81,10.23 -55.55,15.27 -86.38,15.27 -50.67,0 -89.64,-12.31 -116.9,-37.04 -27.26,-24.6 -40.89,-56.15 -40.89,-94.54 0,-22.51 5.18,-43.11 15.41,-61.78 10.37,-18.66 23.86,-33.49 40.45,-44.74 16.74,-11.26 35.41,-19.85 56.31,-25.63 15.4,-4 38.67,-7.85 69.64,-11.7 63.11,-7.41 109.79,-16.45 139.57,-26.82 0.29,-10.67 0.45,-17.47 0.45,-20.29 0,-31.71 -7.41,-54.08 -22.22,-67.13 -20.01,-17.63 -49.78,-26.38 -89.21,-26.38 -36.89,0 -64.15,6.52 -81.63,19.42 -17.63,12.89 -30.52,35.7 -38.96,68.6l-76.45 -10.67c6.96,-32.75 18.37,-59.26 34.37,-79.42 16,-20.15 39.12,-35.56 69.34,-46.52 30.07,-10.81 65.2,-16.3 104.9,-16.3 39.41,0 71.57,4.59 96.31,13.93 24.6,9.34 42.83,20.89 54.38,34.96 11.56,14.08 19.71,31.86 24.44,53.34 2.52,13.34 3.86,37.34 3.86,71.86l0 103.73c0,72.45 1.62,118.23 4.89,137.65 3.11,19.4 9.63,37.93 19.11,55.71l-81.79 0c-7.85,-16.45 -12.89,-35.71 -15.11,-57.79l-0.02 -0.02zm-6.23 -173.35c-28.45,11.55 -71.12,21.34 -128.02,29.33 -32.3,4.61 -55.12,9.79 -68.45,15.57 -13.34,5.77 -23.56,14.22 -30.83,25.19 -7.25,11.12 -10.96,23.41 -10.96,37.04 0,20.59 7.85,37.93 23.7,51.7 15.86,13.79 38.98,20.75 69.34,20.75 30.09,0 56.9,-6.52 80.46,-19.71 23.41,-13.03 40.75,-30.97 51.72,-53.63 8.44,-17.63 12.59,-43.55 12.59,-77.78l0.45 -28.45 0 -0.01z"/>
  <path id="_14_26" class="fil6" d="M15364.36 1209.26l-8.89 -72.3c17.19,4.59 32,6.96 44.74,6.96 17.49,0 31.42,-2.97 41.79,-8.74 10.51,-5.78 19.11,-13.93 25.77,-24.3 4.89,-7.85 12.89,-27.26 23.86,-58.38 1.48,-4.3 3.71,-10.67 6.97,-19.11l-175.14 -462.88 83.57 0 96.31 266.41c12.6,33.64 23.72,69.2 33.64,106.54 9.03,-35.13 19.7,-69.79 32.14,-103.87l98.39 -269.08 78.08 0 -174.4 469.41c-18.82,50.51 -33.47,85.19 -44,104.3 -13.93,25.63 -29.93,44.45 -47.85,56.45 -18.07,12.01 -39.56,17.93 -64.46,17.93 -15.12,0 -32,-3.11 -50.53,-9.34l0.01 0z"/>
  <path id="_15_27" class="fil6" d="M16127.13 882.55l80.91 10.67c-12.6,46.97 -36.16,83.57 -70.53,109.49 -34.37,25.93 -78.23,38.98 -131.73,38.98 -67.27,0 -120.61,-20.75 -160.02,-62.24 -39.41,-41.33 -59.11,-99.57 -59.11,-174.38 0,-77.35 19.85,-137.49 59.71,-180.17 39.86,-42.83 91.56,-64.16 155.12,-64.16 61.49,0 111.72,20.89 150.7,62.82 38.96,41.93 58.52,100.91 58.52,176.92 0,4.59 -0.15,11.55 -0.45,20.73l-343.59 0c2.95,50.53 17.18,89.35 42.97,116.17 25.63,26.81 57.78,40.29 96.15,40.29 28.6,0 53.05,-7.55 73.19,-22.67 20.3,-15.11 36.3,-39.26 48.16,-72.45zm-256.04 -125.35l256.93 0c-3.42,-38.81 -13.34,-67.86 -29.5,-87.26 -24.74,-30.09 -57.04,-45.19 -96.6,-45.19 -35.85,0 -65.93,12 -90.38,36.01 -24.29,24 -37.77,56.15 -40.45,96.45l0 -0.01z"/>
  <path id="_16_28" class="fil6" d="M16305.98 1031.9l0 -461.4 70.22 0 0 70.69c17.93,-32.75 34.52,-54.38 49.78,-64.75 15.26,-10.53 32,-15.71 50.23,-15.71 26.38,0 53.19,8.3 80.46,24.74l-27.86 72.16c-18.97,-10.67 -37.93,-16 -56.9,-16 -17.04,0 -32.3,5.19 -45.78,15.41 -13.48,10.22 -23.11,24.44 -28.9,42.67 -8.75,27.71 -13.03,58.09 -13.03,91.13l0 241.07 -78.23 0 0.01 -0.01z"/>
  <path class="fil7 str0" d="M4228.21 4073.06l2397.22 0c0,-1323.94 -1073.27,-2397.21 -2397.22,-2397.21 -1323.94,0 -2397.21,1073.27 -2397.21,2397.21 0,1323.95 1073.27,2397.22 2397.21,2397.22l0 -2397.22z"/>
  <path class="fil8 str0" d="M4228.21 4073.06l0 2397.22c1323.95,0 2397.22,-1073.27 2397.22,-2397.22l-2397.22 0z"/>
  <circle class="fil9 str0" transform="matrix(1.79743E-14 -0.678672 0.678672 1.79743E-14 4228.21 4073.06)" r="2472.54"/>
  <path class="fil10" d="M9576.78 7794.12l-8.89 -72.3c17.19,4.59 32,6.96 44.74,6.96 17.49,0 31.42,-2.97 41.79,-8.74 10.51,-5.78 19.11,-13.93 25.77,-24.3 4.89,-7.85 12.89,-27.26 23.86,-58.38 1.48,-4.3 3.71,-10.67 6.97,-19.11l-175.14 -462.88 83.57 0 96.31 266.41c12.6,33.64 23.72,69.2 33.64,106.54 9.03,-35.13 19.7,-69.79 32.14,-103.87l98.39 -269.08 78.08 0 -174.4 469.41c-18.82,50.51 -33.47,85.19 -44,104.3 -13.93,25.63 -29.93,44.45 -47.85,56.45 -18.07,12.01 -39.56,17.93 -64.46,17.93 -15.12,0 -32,-3.11 -50.53,-9.34l0.01 0z"/>
  <path id="_1_29" class="fil10" d="M9995.5 7386.07c0,-85.2 23.7,-148.32 71.26,-189.36 39.56,-34.08 88.02,-51.11 145.05,-51.11 63.27,0 115.12,20.75 155.43,62.23 40.15,41.34 60.31,98.67 60.31,171.72 0,59.26 -8.89,105.8 -26.67,139.72 -17.78,33.94 -43.72,60.31 -77.8,79.13 -33.92,18.82 -71.12,28.15 -111.27,28.15 -64.6,0 -116.75,-20.61 -156.6,-61.94 -39.86,-41.34 -59.71,-100.91 -59.71,-178.54zm80.01 0.14c0,58.97 12.88,103.12 38.67,132.31 25.93,29.34 58.38,44 97.64,44 38.82,0 71.12,-14.66 97.05,-44.14 25.79,-29.48 38.68,-74.38 38.68,-134.69 0,-56.9 -13.05,-100 -38.98,-129.19 -25.93,-29.34 -58.23,-44.02 -96.75,-44.02 -39.26,0 -71.71,14.53 -97.64,43.72 -25.79,29.18 -38.67,73.19 -38.67,132.01z"/>
  <path id="_2_30" class="fil10" d="M10820.65 7616.77l0 -68.6c-35.87,52.3 -84.46,78.39 -145.95,78.39 -27.12,0 -52.46,-5.19 -76.01,-15.57 -23.56,-10.51 -41.05,-23.56 -52.46,-39.26 -11.41,-15.86 -19.4,-35.13 -24,-57.93 -3.12,-15.41 -4.75,-39.72 -4.75,-72.9l0 -285.53 78.23 0 0 255.3c0,40.74 1.62,68.29 4.75,82.38 4.89,20.59 15.26,36.6 31.26,48.3 15.85,11.7 35.41,17.63 58.81,17.63 23.42,0 45.35,-5.92 65.79,-17.92 20.45,-12 34.97,-28.45 43.57,-49.04 8.44,-20.59 12.74,-50.68 12.74,-89.94l0 -246.71 78.23 0 0 461.4 -70.22 0 0.01 0z"/>
  <path id="_3_31" class="fil10" d="M11012.83 7616.77l0 -461.4 70.22 0 0 70.69c17.93,-32.75 34.52,-54.38 49.78,-64.75 15.26,-10.53 32,-15.71 50.23,-15.71 26.38,0 53.19,8.3 80.46,24.74l-27.86 72.16c-18.97,-10.67 -37.93,-16 -56.9,-16 -17.04,0 -32.3,5.19 -45.78,15.41 -13.48,10.22 -23.11,24.44 -28.9,42.67 -8.75,27.71 -13.03,58.09 -13.03,91.13l0 241.07 -78.23 0 0.01 -0.01z"/>
  <path id="_4_32" class="fil10" d="M11556.74 7793.68l0 -638.32 71.12 0 0 60.61c16.74,-23.41 35.71,-41.05 56.9,-52.75 21.04,-11.7 46.68,-17.63 76.75,-17.63 39.41,0 74.09,10.08 104.16,30.38 30.09,20.15 52.75,48.73 68.17,85.48 15.26,36.89 22.96,77.2 22.96,121.2 0,46.97 -8.44,89.35 -25.34,127.13 -16.88,37.63 -41.48,66.53 -73.78,86.67 -32.16,20.01 -66.08,30.09 -101.64,30.09 -26.08,0 -49.49,-5.49 -70.08,-16.45 -20.75,-10.96 -37.63,-24.75 -50.97,-41.5l0 225.08 -78.23 0 -0.02 0.01zm71.12 -404.79c0,59.12 12,102.83 35.85,131.12 24.01,28.29 53.05,42.52 87.12,42.52 34.68,0 64.3,-14.66 88.9,-44 24.75,-29.33 37.04,-74.68 37.04,-136.16 0,-58.67 -12,-102.54 -36.15,-131.71 -24.15,-29.19 -52.91,-43.72 -86.38,-43.72 -33.19,0 -62.54,15.57 -88.02,46.54 -25.63,31.11 -38.37,76.15 -38.37,135.42l0.01 -0.01z"/>
  <path id="_5_33" class="fil10" d="M12050.3 7616.77l0 -461.4 70.22 0 0 70.69c17.93,-32.75 34.52,-54.38 49.78,-64.75 15.26,-10.53 32,-15.71 50.23,-15.71 26.38,0 53.19,8.3 80.46,24.74l-27.86 72.16c-18.97,-10.67 -37.93,-16 -56.9,-16 -17.04,0 -32.3,5.19 -45.78,15.41 -13.48,10.22 -23.11,24.44 -28.9,42.67 -8.75,27.71 -13.03,58.09 -13.03,91.13l0 241.07 -78.23 0 0.01 -0.01z"/>
  <path id="_6_34" class="fil10" d="M12317.89 7386.07c0,-85.2 23.7,-148.32 71.26,-189.36 39.56,-34.08 88.02,-51.11 145.05,-51.11 63.27,0 115.12,20.75 155.43,62.23 40.15,41.34 60.31,98.67 60.31,171.72 0,59.26 -8.89,105.8 -26.67,139.72 -17.78,33.94 -43.72,60.31 -77.8,79.13 -33.92,18.82 -71.12,28.15 -111.27,28.15 -64.6,0 -116.75,-20.61 -156.6,-61.94 -39.86,-41.34 -59.71,-100.91 -59.71,-178.54zm80.01 0.14c0,58.97 12.88,103.12 38.67,132.31 25.93,29.34 58.38,44 97.64,44 38.82,0 71.12,-14.66 97.05,-44.14 25.79,-29.48 38.68,-74.38 38.68,-134.69 0,-56.9 -13.05,-100 -38.98,-129.19 -25.93,-29.34 -58.23,-44.02 -96.75,-44.02 -39.26,0 -71.71,14.53 -97.64,43.72 -25.79,29.18 -38.67,73.19 -38.67,132.01z"/>
  <path id="_7_35" class="fil10" d="M12841.21 7070.92l0 -90.68 78.23 0 0 90.68 -78.23 0zm-98.96 724.23l14.36 -66.22c15.71,3.99 28,6.08 37.04,6.08 16,0 27.86,-5.33 35.71,-15.86 7.85,-10.51 11.84,-37.04 11.84,-79.27l0 -484.51 78.23 0 0 486.14c0,56.76 -7.41,96.32 -22.22,118.54 -18.82,28.9 -50.08,43.41 -93.79,43.41 -21.2,0 -41.5,-2.81 -61.19,-8.3l0.02 -0.01z"/>
  <path id="_8_36" class="fil10" d="M13353.88 7467.41l80.91 10.67c-12.6,46.97 -36.16,83.57 -70.53,109.49 -34.37,25.93 -78.23,38.98 -131.73,38.98 -67.27,0 -120.61,-20.75 -160.02,-62.24 -39.41,-41.33 -59.11,-99.57 -59.11,-174.38 0,-77.35 19.85,-137.49 59.71,-180.17 39.86,-42.83 91.56,-64.16 155.12,-64.16 61.49,0 111.72,20.89 150.7,62.82 38.96,41.93 58.52,100.91 58.52,176.92 0,4.59 -0.15,11.55 -0.45,20.73l-343.59 0c2.95,50.53 17.18,89.35 42.97,116.17 25.63,26.81 57.78,40.29 96.15,40.29 28.6,0 53.05,-7.55 73.19,-22.67 20.3,-15.11 36.3,-39.26 48.16,-72.45zm-256.03 -125.35l256.93 0c-3.42,-38.81 -13.34,-67.86 -29.5,-87.26 -24.74,-30.09 -57.04,-45.19 -96.6,-45.19 -35.85,0 -65.93,12 -90.38,36.01 -24.29,24 -37.77,56.15 -40.45,96.45l0 -0.01z"/>
  <path id="_9_37" class="fil10" d="M13834.99 7447.86l76.45 10.67c-8.46,52.6 -29.79,93.65 -64.32,123.42 -34.52,29.78 -77.04,44.6 -127.27,44.6 -62.97,0 -113.64,-20.61 -151.87,-61.8 -38.37,-41.19 -57.48,-100.16 -57.48,-176.9 0,-49.78 8.3,-93.2 24.74,-130.54 16.45,-37.2 41.5,-65.2 75.28,-83.72 33.63,-18.66 70.22,-28 109.94,-28 49.92,0 90.97,12.6 122.68,37.93 31.85,25.34 52.3,61.35 61.19,107.87l-75.57 11.55c-7.27,-30.95 -20.01,-54.22 -38.53,-69.93 -18.37,-15.55 -40.59,-23.41 -66.67,-23.41 -39.41,0 -71.41,14.07 -96.17,42.22 -24.6,28.31 -36.89,72.76 -36.89,133.8 0,61.94 11.86,106.83 35.56,134.83 23.86,28 54.82,42.07 92.9,42.07 30.81,0 56.45,-9.32 76.9,-28.14 20.59,-18.68 33.63,-47.57 39.12,-86.53l0.01 0.01z"/>
  <path id="_10_38" class="fil10" d="M14147.92 7546.98l10.67 69.05c-21.94,4.59 -41.64,6.97 -58.83,6.97 -28.29,0 -50.23,-4.45 -65.94,-13.5 -15.55,-9.03 -26.52,-20.73 -32.89,-35.41 -6.37,-14.67 -9.48,-45.49 -9.48,-92.46l0 -265.82 -57.79 0 0 -60.45 57.79 0 0 -114.09 78.23 -46.97 0 161.06 78.23 0 0 60.45 -78.23 0 0 270.26c0,22.39 1.33,36.75 4.14,43.12 2.66,6.37 7.11,11.41 13.33,15.26 6.23,3.71 15.12,5.63 26.67,5.63 8.6,0 20.01,-1.04 34.09,-3.11l0.01 0.01z"/>
  <polygon id="_11_39" class="fil10" points="14470.31,7616.77 14470.31,6980.24 14548.54,6980.24 14548.54,7616.77 "/>
  <path id="_12_40" class="fil10" d="M14970.98 7558.97c-29.05,24.75 -57.05,42.08 -83.87,52.3 -26.81,10.23 -55.55,15.27 -86.38,15.27 -50.67,0 -89.64,-12.31 -116.9,-37.04 -27.26,-24.6 -40.89,-56.15 -40.89,-94.54 0,-22.51 5.18,-43.11 15.41,-61.78 10.37,-18.66 23.86,-33.49 40.45,-44.74 16.74,-11.26 35.41,-19.85 56.31,-25.63 15.4,-4 38.67,-7.85 69.64,-11.7 63.11,-7.41 109.79,-16.45 139.57,-26.82 0.29,-10.67 0.45,-17.47 0.45,-20.29 0,-31.71 -7.41,-54.08 -22.22,-67.13 -20.01,-17.63 -49.78,-26.38 -89.21,-26.38 -36.89,0 -64.15,6.52 -81.63,19.42 -17.63,12.89 -30.52,35.7 -38.96,68.6l-76.45 -10.67c6.96,-32.75 18.37,-59.26 34.37,-79.42 16,-20.15 39.12,-35.56 69.34,-46.52 30.07,-10.81 65.2,-16.3 104.9,-16.3 39.41,0 71.57,4.59 96.31,13.93 24.6,9.34 42.83,20.89 54.38,34.96 11.56,14.08 19.71,31.86 24.44,53.34 2.52,13.34 3.86,37.34 3.86,71.86l0 103.73c0,72.45 1.62,118.23 4.89,137.65 3.11,19.4 9.63,37.93 19.11,55.71l-81.79 0c-7.85,-16.45 -12.89,-35.71 -15.11,-57.79l-0.02 -0.02zm-6.23 -173.34c-28.45,11.55 -71.12,21.34 -128.02,29.33 -32.3,4.61 -55.12,9.79 -68.45,15.57 -13.34,5.77 -23.56,14.22 -30.83,25.19 -7.25,11.12 -10.96,23.41 -10.96,37.04 0,20.59 7.85,37.93 23.7,51.7 15.86,13.79 38.98,20.75 69.34,20.75 30.09,0 56.9,-6.52 80.46,-19.71 23.41,-13.03 40.75,-30.97 51.72,-53.63 8.44,-17.63 12.59,-43.55 12.59,-77.78l0.45 -28.45 0 -0.01z"/>
  <path id="_13_41" class="fil10" d="M15160.48 7794.12l-8.89 -72.3c17.19,4.59 32,6.96 44.74,6.96 17.49,0 31.42,-2.97 41.79,-8.74 10.51,-5.78 19.11,-13.93 25.77,-24.3 4.89,-7.85 12.89,-27.26 23.86,-58.38 1.48,-4.3 3.71,-10.67 6.97,-19.11l-175.14 -462.88 83.57 0 96.31 266.41c12.6,33.64 23.72,69.2 33.64,106.54 9.03,-35.13 19.7,-69.79 32.14,-103.87l98.39 -269.08 78.08 0 -174.4 469.41c-18.82,50.51 -33.47,85.19 -44,104.3 -13.93,25.63 -29.93,44.45 -47.85,56.45 -18.07,12.01 -39.56,17.93 -64.46,17.93 -15.12,0 -32,-3.11 -50.53,-9.34l0.01 0z"/>
  <path id="_14_42" class="fil10" d="M15923.24 7467.41l80.91 10.67c-12.6,46.97 -36.16,83.57 -70.53,109.49 -34.37,25.93 -78.23,38.98 -131.73,38.98 -67.27,0 -120.61,-20.75 -160.02,-62.24 -39.41,-41.33 -59.11,-99.57 -59.11,-174.38 0,-77.35 19.85,-137.49 59.71,-180.17 39.86,-42.83 91.56,-64.16 155.12,-64.16 61.49,0 111.72,20.89 150.7,62.82 38.96,41.93 58.52,100.91 58.52,176.92 0,4.59 -0.15,11.55 -0.45,20.73l-343.59 0c2.95,50.53 17.18,89.35 42.97,116.17 25.63,26.81 57.78,40.29 96.15,40.29 28.6,0 53.05,-7.55 73.19,-22.67 20.3,-15.11 36.3,-39.26 48.16,-72.45zm-256.03 -125.35l256.93 0c-3.42,-38.81 -13.34,-67.86 -29.5,-87.26 -24.74,-30.09 -57.04,-45.19 -96.6,-45.19 -35.85,0 -65.93,12 -90.38,36.01 -24.29,24 -37.77,56.15 -40.45,96.45l0 -0.01z"/>
  <path id="_15_43" class="fil10" d="M16102.09 7616.77l0 -461.4 70.22 0 0 70.69c17.93,-32.75 34.52,-54.38 49.78,-64.75 15.26,-10.53 32,-15.71 50.23,-15.71 26.38,0 53.19,8.3 80.46,24.74l-27.86 72.16c-18.97,-10.67 -37.93,-16 -56.9,-16 -17.04,0 -32.3,5.19 -45.78,15.41 -13.48,10.22 -23.11,24.44 -28.9,42.67 -8.75,27.71 -13.03,58.09 -13.03,91.13l0 241.07 -78.23 0 0.01 -0.01z"/>
  <path id="_16_44" class="fil10" d="M16367.91 7478.96l77.34 -12.45c4.3,30.97 16.45,54.68 36.3,71.27 19.85,16.45 47.71,24.74 83.27,24.74 36.01,0 62.68,-7.25 80.15,-21.92 17.35,-14.52 26.08,-31.71 26.08,-51.41 0,-17.64 -7.85,-31.57 -23.41,-41.64 -10.96,-6.97 -37.63,-15.71 -80.01,-26.53 -57.19,-14.36 -96.75,-26.81 -118.99,-37.34 -22.06,-10.67 -38.81,-25.19 -50.22,-43.85 -11.41,-18.52 -17.19,-39.12 -17.19,-61.64 0,-20.59 4.75,-39.56 14.07,-57.05 9.49,-17.47 22.23,-32 38.39,-43.55 12.14,-8.89 28.74,-16.45 49.63,-22.67 21.04,-6.23 43.41,-9.34 67.41,-9.34 36.16,0 67.87,5.18 95.13,15.71 27.41,10.37 47.56,24.6 60.59,42.38 12.89,17.92 21.94,41.78 26.82,71.71l-76.45 10.67c-3.4,-24.01 -13.48,-42.83 -30.07,-56.31 -16.6,-13.48 -40.01,-20.15 -70.38,-20.15 -35.71,0 -61.35,5.92 -76.61,17.78 -15.26,11.86 -22.96,25.77 -22.96,41.64 0,10.08 3.11,19.26 9.48,27.41 6.37,8.29 16.3,15.26 29.93,20.73 7.85,2.97 30.66,9.63 68.89,20.01 55.12,14.67 93.65,26.82 115.57,36.16 21.92,9.32 39.12,23.11 51.56,40.89 12.6,17.92 18.82,40.15 18.82,66.82 0,25.93 -7.56,50.37 -22.82,73.33 -15.26,22.97 -37.18,40.75 -65.79,53.34 -28.74,12.6 -61.19,18.83 -97.34,18.83 -59.86,0 -105.64,-12.46 -137.06,-37.2 -31.4,-24.89 -51.41,-61.64 -60.14,-110.39l0.01 0.02z"/>
  <g id="_2159003802400">
   <path class="fil10" d="M8467.68 7058.46l74.09 0 0 74.09 -74.09 0 0 185.21c0.01,40.91 -33.17,74.09 -74.07,74.09 40.91,0 74.09,33.17 74.09,74.07l-0.01 185.22 74.09 0 0 74.09 -74.09 0c-39.63,-10.01 -74.09,-33.35 -74.09,-74.09l0 -148.16c0.03,-40.92 -33.15,-74.1 -74.06,-74.1l-37.06 0.01 0 -74.09 37.04 0c40.92,0 74.1,-33.18 74.1,-74.09l-0.03 -148.16c0.01,-40.91 33.19,-74.09 74.1,-74.09l-0.01 0zm518.59 0c40.91,0 74.09,33.18 74.09,74.09l0 148.16c-0.01,40.91 33.17,74.09 74.07,74.09l37.04 0 0 74.09 -37.04 0c-40.91,-0.01 -74.09,33.17 -74.09,74.07l0.01 148.18c0,40.89 -33.18,74.07 -74.09,74.07l-74.09 0.01 0 -74.09 74.09 0 0 -185.21c0,-40.92 33.18,-74.09 74.09,-74.09 -40.91,0 -74.09,-33.18 -74.09,-74.09l0 -185.21 -74.09 0 0 -74.09 74.09 0 0 0 0.01 0.02zm-259.29 444.51c20.45,-0.03 37.04,16.56 37.04,37.02 0,20.45 -16.59,37.04 -37.04,37.04 -20.44,0 -37.03,-16.59 -37.03,-37.04 0,-20.45 16.59,-37.04 37.03,-37.04l0 0.03 0 -0.01zm-148.16 0c20.47,-0.03 37.06,16.56 37.06,37.02 0,20.45 -16.59,37.04 -37.04,37.04 -20.45,0 -37.04,-16.59 -37.04,-37.04 0,-20.45 16.59,-37.04 37.04,-37.04l-0.01 0.03 -0.01 -0.01zm296.32 0c20.45,-0.03 37.04,16.56 37.04,37.02 0,20.45 -16.59,37.04 -37.04,37.04 -20.45,0 -37.04,-16.59 -37.04,-37.04 0,-20.45 16.59,-37.04 37.04,-37.04l0 0.03 0 -0.01z"/>
  </g>
  <g id="_2159003801472">
   <path class="fil4" d="M8986.27 5441.48l-518.59 0c-40.74,0 -74.09,33.35 -74.09,74.09l0 518.59c0,40.74 33.35,74.09 74.09,74.09l518.59 0c40.74,0 74.09,-33.35 74.09,-74.09l0 -518.59c0,-40.74 -33.35,-74.09 -74.09,-74.09l0 0zm-296.34 185.22l-74.09 0 0 74.07c0,40.75 -33.33,74.09 -74.07,74.09 40.74,0 74.07,33.33 74.07,74.09l0 74.07 74.09 0 0 74.09 -74.09 0c-40.74,0 -74.07,-33.33 -74.07,-74.09l0 -37.03c0,-40.75 -33.33,-74.09 -74.09,-74.09l0 -74.09c40.75,0 74.09,-33.33 74.09,-74.09l0 -37.03c0,-40.75 33.33,-74.09 74.07,-74.09l74.09 0 0 74.09 0 0 0 0.01zm296.34 185.2c-40.75,0 -74.09,33.33 -74.09,74.09l0 37.03c0,40.75 -33.33,74.09 -74.07,74.09l-74.09 0 0 -74.09 74.09 0 0 -74.07c0,-40.75 33.33,-74.09 74.07,-74.09 -40.74,0 -74.07,-33.33 -74.07,-74.09l0 -74.07 -74.09 0 0 -74.09 74.09 0c40.74,0 74.07,33.33 74.07,74.09l0 37.03c0,40.75 33.33,74.09 74.09,74.09l0 74.09 0 -0.01z"/>
  </g>
  <g id="_2159003800640">
   <path class="fil6" d="M8615.85 1227.41c-20.44,0 -37.03,-16.59 -37.03,-37.04l0 -111.12 -148.18 0c-40.89,-0.01 -74.07,-33.19 -74.07,-74.1l0 -444.47c0,-41.12 33.33,-74.07 74.07,-74.07l592.66 0c40.91,-0.01 74.09,33.17 74.09,74.07l-0.01 444.49c0.01,40.89 -33.17,74.07 -74.07,74.07l-225.96 0.01 -137.05 137.42c-7.41,7.04 -16.66,10.74 -25.93,10.74l0 0 -18.52 0 0 0zm37.04 -222.25l0 114.1 114.09 -114.1 256.33 0 0 -444.49 -592.66 0 0 444.49 222.25 0 0 0 -0.01 0zm222.24 -74.08l-296.31 0 0 -37.04c0,-49.25 98.9,-74.07 148.16,-74.07 49.25,0 148.15,24.82 148.15,74.07l0 37.04 0 0zm-148.15 -296.32c40.89,0 74.07,33.18 74.07,74.09 0,40.91 -33.18,74.09 -74.07,74.09 -40.89,0 -74.07,-33.18 -74.07,-74.09 0,-40.91 33.18,-74.09 74.07,-74.09z"/>
  </g>
  <g id="_2159003799008">
   <path class="fil5" d="M8963.86 4528.5l-555.63 0c-41.12,0 -74.07,-33.35 -74.07,-74.09l0 -444.5c0,-41.12 32.96,-74.09 74.07,-74.09l222.25 0 74.09 74.09 259.29 0c40.91,0 74.09,33.18 74.09,74.09l0 0 -629.72 0 0 370.41 79.27 -296.34 632.31 0 -84.46 314.86c-8.51,32.23 -37.41,55.57 -71.48,55.57l-0.01 0z"/>
   <g>
    <path class="fil5" d="M8614 2236.22l-87.78 0c-4.42,-16.9 -6.71,-34.38 -6.71,-51.86 0,-17.49 2.28,-34.97 6.72,-51.86l87.77 0c-2.24,17.12 -3.56,34.52 -3.71,51.83 0.15,17.35 1.47,34.75 3.71,51.9l0 -0.01zm-66.31 -155.57l75.57 0c8.61,-31.99 20.87,-63.01 36.32,-92.26 -47.22,16.16 -87.05,48.99 -111.87,92.27l-0.01 -0.01 -0.01 0zm358.57 0c-25.03,-43.29 -64.95,-76.08 -112.24,-92.23 15.62,29.12 27.8,60.17 35.92,92.2l76.31 0.03 0.01 0zm-179.28 310.03c22.02,-31.25 38.82,-65.97 49.64,-102.61l-99.27 0c10.82,36.64 27.62,71.36 49.62,102.58l0.01 0.03zm0 -413.01c-22.01,31.39 -38.81,66.22 -49.63,102.98l99.26 0c-10.81,-36.76 -27.61,-71.6 -49.63,-102.97l0 -0.01zm-179.29 310.41c25.02,43.13 64.76,75.91 111.87,92.23 -15.43,-29.23 -27.69,-60.26 -36.32,-92.22l-75.56 -0.01 0.01 0zm512.67 -363.01l0 518.59c0,40.89 -33.18,74.07 -74.09,74.07l-518.59 0.01c-40.89,-0.01 -74.07,-33.19 -74.07,-74.1l-0.01 -518.57c0.01,-40.91 33.19,-74.09 74.1,-74.09l518.57 0c40.91,0 74.09,33.18 74.09,74.09l0 0zm-74.09 259.29c0,-143.18 -116.12,-259.29 -259.29,-259.29 -143.16,0 -259.28,116.12 -259.28,259.29 0,143.16 116.12,259.28 259.28,259.28 143.18,0 259.29,-116.12 259.29,-259.28l0 0zm-142.62 0c-0.13,17.32 -1.44,34.72 -3.68,51.87l87.77 -0.01c4.44,-16.9 6.72,-34.38 6.72,-51.86 0,-17.49 -2.28,-34.97 -6.72,-51.86l-87.78 0c2.25,17.12 3.57,34.52 3.72,51.83l-0.03 0.03zm-49.63 195.95c47.26,-16.28 87.14,-49.04 112.25,-92.25l-76.33 0.01c-8.12,32.05 -20.3,63.1 -35.95,92.22l0.03 0.01 0 0.01zm-127.79 -247.8c-2.74,17.08 -4.14,34.52 -4.14,51.86 0,17.32 1.4,34.76 4.14,51.86l121.49 0c2.52,-17.15 3.96,-34.57 4.1,-51.88 -0.15,-17.3 -1.58,-34.76 -4.13,-51.84l-121.46 0.01 0 -0.01z"/>
   </g>
   <g>
    <path class="fil5" d="M8764.01 3430.5l37.04 0c20.45,-0.01 37.04,16.58 37.04,37.03l259.28 0.01 0 74.07 -259.28 0c0,20.44 -16.59,37.03 -37.04,37.03l-148.16 0.01c-20.44,-0.01 -37.03,-16.6 -37.03,-37.06l-259.29 0.01 0 -74.07 259.28 0c0.01,-20.47 16.6,-37.06 37.06,-37.06l37.03 0.01 0 -74.09 -259.29 0c-20.44,-0.01 -37.03,-16.6 -37.03,-37.06l-0.01 -148.13c0.01,-20.45 16.6,-37.04 37.06,-37.04l592.65 0c20.45,0 37.04,16.59 37.04,37.04l0 148.15c0,20.44 -16.59,37.03 -37.04,37.03l-259.29 0.01 0 74.09 0 0 -0.02 0.02zm-333.37 -592.66l592.66 0c20.45,0 37.04,16.59 37.04,37.04l0 148.18c0,20.45 -16.59,37.04 -37.04,37.04l-592.66 -0.01c-20.44,0.01 -37.03,-16.58 -37.03,-37.03l-0.01 -148.18c0.01,-20.45 16.6,-37.04 37.06,-37.04l-0.01 0 -0.01 0zm185.21 148.18l37.04 0 0 -74.09 -37.04 0 0 74.09 0 0zm0 296.32l37.04 0 0 -74.07 -37.04 0 0 74.07 0 0zm-148.17 -370.41l0 74.09 74.09 0 0 -74.09 -74.09 0 0 0zm0 296.34l0 74.07 74.09 0 0 -74.07 -74.09 0z"/>
   </g>
  </g>
 </g>
</svg>
