<?xml version="1.0" encoding="UTF-8"?>
<!DOCTYPE svg PUBLIC "-//W3C//DTD SVG 1.1//EN" "http://www.w3.org/Graphics/SVG/1.1/DTD/svg11.dtd">
<!-- Creator: CorelDRAW 2019 (64-Bit) -->
<svg xmlns="http://www.w3.org/2000/svg" xml:space="preserve" width="25%" height="25%" version="1.1" style="shape-rendering:geometricPrecision; text-rendering:geometricPrecision; image-rendering:optimizeQuality; fill-rule:evenodd; clip-rule:evenodd"
viewBox="0 0 4500 1875"
 xmlns:xlink="http://www.w3.org/1999/xlink"
 xmlns:xodm="http://www.corel.com/coreldraw/odm/2003">
 <defs>
  <style type="text/css">
   <![CDATA[
    .str0 {stroke:#FEFEFE;stroke-width:26.46;stroke-miterlimit:22.9256}
    .fil3 {fill:#FEFEFE}
    .fil0 {fill:#A0D0EE}
    .fil1 {fill:#4BBAEB}
    .fil2 {fill:#007BC1}
    .fil4 {fill:#007BC1;fill-rule:nonzero}
   ]]>
  </style>
 </defs>
 <g id="Ebene_x0020_1">
  <metadata id="CorelCorpID_0Corel-Layer"/>
  <g id="_1870962318320">
   <path class="fil0 str0" d="M831.27 879.8l541.17 -454.09c-134.23,-159.96 -332.35,-252.35 -541.17,-252.35 -390.16,0 -706.44,316.29 -706.44,706.44l706.44 0z"/>
   <path class="fil1 str0" d="M831.27 879.8l539.37 -196.31c-82.53,-226.75 -298.07,-377.67 -539.37,-377.67 -317,0 -573.98,256.98 -573.98,573.98 0,152.23 60.47,298.22 168.12,405.87l405.87 -405.87z"/>
   <path class="fil2 str0" d="M831.27 879.8l441.52 0c0,-243.85 -197.68,-441.53 -441.52,-441.53 -243.85,0 -441.53,197.68 -441.53,441.53 0,243.85 197.68,441.53 441.53,441.53l0 -441.53z"/>
   <circle class="fil3 str0" transform="matrix(1.85392E-14 -0.7 0.7 1.85392E-14 831.273 879.8)" r="441.53"/>
  </g>
  <path class="fil4" d="M1034.78 1493.17l56.6 0 0 -523.33 168.98 0 0 -49.22 -394.55 0 0 49.22 168.97 0 0 523.33zm578.29 -66.44c-12.58,8.2 -30.76,15.45 -54.55,21.74 -23.79,6.29 -44.7,9.44 -62.75,9.44 -43.2,0 -76.97,-14.9 -101.31,-44.84 -24.33,-29.94 -36.5,-68.08 -36.5,-114.29l286.28 0 0 -26.25c0,-28.98 -3.28,-55.91 -9.84,-80.8 -6.56,-24.88 -16.54,-46.89 -29.94,-66.03 -13.4,-19.14 -30.76,-34.04 -52.09,-44.7 -21.32,-10.66 -46.21,-15.99 -74.64,-15.99 -25.7,0 -49.49,5.33 -71.37,15.99 -21.87,10.66 -40.6,25.84 -56.19,45.53 -15.58,19.68 -27.62,42.93 -36.09,69.72 -8.48,26.79 -12.72,56.05 -12.72,87.77 0,32.26 3.56,61.65 10.66,88.18 7.11,26.52 18.18,49.63 33.22,69.32 15.04,19.68 34.73,34.73 59.06,45.12 24.34,10.39 53.45,15.58 87.36,15.58 20.23,0 41.15,-1.91 62.75,-5.88 21.6,-3.83 41.15,-9.43 58.65,-16.68l0 -52.91zm-255.1 -172.26c0,-17.5 2.87,-34.86 8.61,-52.09 5.74,-17.23 13.94,-32.95 24.61,-47.17 10.66,-14.22 23.65,-25.43 38.96,-33.63 15.31,-8.2 32.27,-12.3 50.86,-12.3 18.59,0 34.73,3.97 48.39,11.89 13.67,7.93 24.75,18.73 33.22,32.4 8.47,13.67 14.76,29.12 18.86,46.35 4.1,17.23 6.15,35.41 6.15,54.55l-229.68 0zm384.71 238.7l51.68 0 0 -615.2 -51.68 0 0 615.2zm462.63 -66.44c-12.58,8.2 -30.76,15.45 -54.55,21.74 -23.79,6.29 -44.71,9.44 -62.75,9.44 -43.2,0 -76.97,-14.9 -101.31,-44.84 -24.34,-29.94 -36.5,-68.08 -36.5,-114.29l286.27 0 0 -26.25c0,-28.98 -3.28,-55.91 -9.84,-80.8 -6.56,-24.88 -16.54,-46.89 -29.94,-66.03 -13.4,-19.14 -30.76,-34.04 -52.09,-44.7 -21.33,-10.66 -46.21,-15.99 -74.64,-15.99 -25.7,0 -49.49,5.33 -71.36,15.99 -21.88,10.66 -40.61,25.84 -56.19,45.53 -15.58,19.68 -27.61,42.93 -36.09,69.72 -8.48,26.79 -12.71,56.05 -12.71,87.77 0,32.26 3.55,61.65 10.66,88.18 7.11,26.52 18.18,49.63 33.22,69.32 15.04,19.68 34.72,34.73 59.06,45.12 24.33,10.39 53.45,15.58 87.36,15.58 20.23,0 41.15,-1.91 62.75,-5.88 21.6,-3.83 41.15,-9.43 58.65,-16.68l0 -52.91zm-255.1 -172.26c0,-17.5 2.87,-34.86 8.61,-52.09 5.74,-17.23 13.94,-32.95 24.61,-47.17 10.66,-14.22 23.65,-25.43 38.96,-33.63 15.31,-8.2 32.27,-12.3 50.86,-12.3 18.59,0 34.73,3.97 48.39,11.89 13.67,7.93 24.75,18.73 33.22,32.4 8.47,13.67 14.76,29.12 18.86,46.35 4.1,17.23 6.15,35.41 6.15,54.55l-229.68 0zm369.12 223.93c16.95,7.11 36.36,12.85 58.24,17.23 21.88,4.37 45.66,6.56 71.36,6.56 22.97,0 45.53,-3.01 67.67,-9.02 22.15,-6.02 42.38,-15.59 60.7,-28.71 18.32,-13.12 32.81,-30.08 43.47,-50.86 10.66,-20.78 15.99,-44.84 15.99,-72.18 0,-20.78 -3.83,-39.51 -11.48,-56.19 -7.66,-16.68 -17.91,-31.31 -30.76,-43.89 -12.85,-12.58 -26.8,-23.79 -41.84,-33.63 -15.04,-9.84 -33.22,-20.23 -54.55,-31.17 -2.73,-1.64 -7.11,-4.1 -13.13,-7.38 -37.73,-20.23 -65.62,-38.01 -83.67,-53.32 -18.05,-15.31 -27.07,-34.45 -27.07,-57.42 0,-17.5 3.56,-32.67 10.66,-45.52 7.11,-12.85 16.54,-23.11 28.3,-30.76 11.76,-7.66 24.88,-13.26 39.37,-16.82 14.49,-3.55 29.67,-5.33 45.53,-5.33 20.23,0 39.51,1.91 57.83,5.74 18.32,3.83 33.77,9.02 46.34,15.58l9.02 -51.68c-17.5,-6.56 -36.5,-11.35 -57.01,-14.36 -20.5,-3.01 -38.96,-4.51 -55.37,-4.51 -51.4,0 -94.33,13.4 -128.78,40.19 -16.4,13.13 -29.26,28.99 -38.55,47.58 -9.3,18.59 -13.95,39.1 -13.95,61.52 0,18.59 3.97,35.68 11.89,51.27 7.93,15.58 18.45,29.53 31.58,41.83 13.13,12.3 26.93,22.97 41.42,31.99 14.49,9.02 33.77,20.37 57.83,34.04l4.92 2.46c38.83,21.33 67.67,40.06 86.54,56.19 18.87,16.13 28.3,35.68 28.3,58.65 0,38.83 -12.03,68.09 -36.09,87.77 -24.06,19.69 -54.96,29.53 -92.69,29.53 -25.7,0 -48.81,-2.87 -69.32,-8.61 -20.51,-5.74 -39.51,-14.08 -57.01,-25.02l-5.74 58.24zm702.15 -397.01c-12.58,-4.38 -27.2,-8.2 -43.88,-11.49 -16.68,-3.28 -35.68,-4.92 -57.01,-4.92 -30.62,0 -58.65,5.33 -84.08,15.99 -25.43,10.66 -47.3,25.7 -65.62,45.12 -18.32,19.41 -32.4,42.65 -42.24,69.72 -9.84,27.07 -14.76,56.46 -14.76,88.18 0,29.53 4.24,57.55 12.71,84.08 8.48,26.52 21.05,49.9 37.73,70.13 16.68,20.23 37.73,35.95 63.16,47.16 25.43,11.21 54.27,16.82 86.54,16.82 21.33,0 40.47,-0.96 57.42,-2.87 16.95,-2.05 33.63,-5.74 50.03,-11.35l-4.92 -48.94c-33.91,12.58 -65.35,18.87 -94.33,18.87 -22.97,0 -43.89,-4.51 -62.75,-13.54 -18.87,-9.02 -34.86,-21.46 -47.99,-37.6 -13.12,-16.13 -23.24,-34.72 -30.35,-55.64 -7.11,-21.06 -10.66,-43.48 -10.66,-67.54 0,-51.82 13.94,-93.79 41.84,-126.05 27.89,-32.13 66.44,-48.26 115.66,-48.26 13.13,0 27.62,1.91 43.47,5.74 15.86,3.83 31.17,9.03 45.93,15.59l4.1 -49.21zm55.78 202.61c0,28.98 3.97,56.73 11.89,83.25 7.93,26.53 19.82,49.9 35.68,70.13 15.86,20.23 36.23,36.09 61.11,47.58 24.88,11.48 53.73,17.23 86.54,17.23 32.81,0 61.66,-5.74 86.54,-17.23 24.88,-11.48 45.25,-27.48 61.11,-47.98 15.86,-20.51 27.75,-43.89 35.68,-70.13 7.93,-26.25 11.89,-53.87 11.89,-82.85 0,-28.98 -3.96,-56.74 -11.89,-83.26 -7.93,-26.52 -19.82,-49.9 -35.68,-70.13 -15.86,-20.23 -36.23,-36.23 -61.11,-47.98 -24.88,-11.76 -53.73,-17.63 -86.54,-17.63 -32.81,0 -61.52,5.88 -86.13,17.63 -24.61,11.76 -44.98,27.89 -61.11,48.4 -16.13,20.5 -28.16,43.88 -36.09,70.13 -7.93,26.25 -11.89,53.87 -11.89,82.85zm56.6 -0.41c0,-50.17 12.17,-91.74 36.5,-124.82 24.34,-32.95 58.38,-49.49 102.12,-49.49 43.75,0 77.79,16.54 102.13,49.49 24.34,33.08 36.5,74.64 36.5,124.82 0,50.17 -12.17,91.73 -36.5,124.82 -24.34,32.95 -58.38,49.49 -102.13,49.49 -43.75,0 -77.79,-16.54 -102.12,-49.49 -24.34,-33.08 -36.5,-74.64 -36.5,-124.82zm426.54 381.02l51.68 0 0 -242.8 1.64 0c13.13,27.34 30.08,47.58 50.86,60.7 20.78,13.13 47.3,19.69 79.57,19.69 55.23,0 97.75,-20.23 127.55,-60.7 29.8,-40.47 44.7,-92.96 44.7,-157.49 0,-67.26 -13.4,-119.76 -40.2,-157.49 -14.22,-19.69 -32.26,-34.86 -54.14,-45.53 -21.88,-10.66 -47.85,-15.99 -77.93,-15.99 -19.69,0 -37.19,2.87 -52.5,8.61 -15.31,5.74 -28.03,12.99 -38.14,21.74 -10.12,8.75 -18.18,17.36 -24.2,25.84 -6.01,8.48 -11.76,17.36 -17.23,26.66l-1.64 3.28 -1.64 0 3.28 -76.28 -51.68 0 0 589.78zm299.4 -381.02c0,22.42 -1.91,43.61 -5.74,63.84 -3.83,20.24 -10.53,38.56 -20.1,55.23 -9.57,16.68 -22.42,29.94 -38.55,40.05 -16.13,10.12 -35.96,15.18 -59.47,15.18 -21.88,0 -40.74,-5.2 -56.6,-15.59 -15.86,-10.39 -28.71,-24.06 -38.55,-41.29 -9.84,-17.23 -17.09,-35.95 -21.74,-56.46 -4.65,-20.51 -6.97,-40.74 -6.97,-60.97 0,-20.23 2.32,-40.47 6.97,-60.98 4.65,-20.51 11.76,-39.23 21.33,-56.46 9.57,-17.23 22.42,-30.89 38.55,-41.29 16.13,-10.39 35.14,-15.58 57.01,-15.58 23.51,0 43.34,5.06 59.47,15.17 16.13,10.12 28.98,23.38 38.55,40.06 9.57,16.68 16.27,35 20.1,55.23 3.83,20.23 5.74,41.42 5.74,63.85zm442.13 143.13c-12.58,8.2 -30.76,15.45 -54.55,21.74 -23.79,6.29 -44.7,9.44 -62.75,9.44 -43.2,0 -76.97,-14.9 -101.31,-44.84 -24.33,-29.94 -36.5,-68.08 -36.5,-114.29l286.27 0 0 -26.25c0,-28.98 -3.28,-55.91 -9.84,-80.8 -6.56,-24.88 -16.54,-46.89 -29.94,-66.03 -13.4,-19.14 -30.76,-34.04 -52.09,-44.7 -21.33,-10.66 -46.21,-15.99 -74.64,-15.99 -25.7,0 -49.49,5.33 -71.36,15.99 -21.87,10.66 -40.61,25.84 -56.19,45.53 -15.59,19.68 -27.62,42.93 -36.09,69.72 -8.47,26.79 -12.71,56.05 -12.71,87.77 0,32.26 3.55,61.65 10.66,88.18 7.11,26.52 18.19,49.63 33.22,69.32 15.04,19.68 34.72,34.73 59.06,45.12 24.33,10.39 53.45,15.58 87.36,15.58 20.23,0 41.15,-1.91 62.75,-5.88 21.6,-3.83 41.15,-9.43 58.65,-16.68l0 -52.91zm-255.1 -172.26c0,-17.5 2.87,-34.86 8.61,-52.09 5.74,-17.23 13.95,-32.95 24.61,-47.17 10.66,-14.22 23.65,-25.43 38.96,-33.63 15.31,-8.2 32.26,-12.3 50.86,-12.3 18.59,0 34.72,3.97 48.39,11.89 13.67,7.93 24.74,18.73 33.22,32.4 8.48,13.67 14.77,29.12 18.86,46.35 4.1,17.23 6.15,35.41 6.15,54.55l-229.68 0z"/>
 </g>
</svg>
