<?xml version="1.0" encoding="UTF-8"?>
<!DOCTYPE svg PUBLIC "-//W3C//DTD SVG 1.1//EN" "http://www.w3.org/Graphics/SVG/1.1/DTD/svg11.dtd">
<!-- Creator: CorelDRAW 2019 (64-Bit) -->
<svg xmlns="http://www.w3.org/2000/svg" xml:space="preserve" width="25%" height="25%" version="1.1" style="shape-rendering:geometricPrecision; text-rendering:geometricPrecision; image-rendering:optimizeQuality; fill-rule:evenodd; clip-rule:evenodd"
viewBox="0 0 3750 1875"
 xmlns:xlink="http://www.w3.org/1999/xlink"
 xmlns:xodm="http://www.corel.com/coreldraw/odm/2003">
 <defs>
  <style type="text/css">
   <![CDATA[
    .str0 {stroke:#FEFEFE;stroke-width:26.46;stroke-miterlimit:22.9256}
    .fil0 {fill:#F1908E}
    .fil1 {fill:#EE7773}
    .fil8 {fill:#EA5855}
    .fil9 {fill:#E84745}
    .fil2 {fill:#A0D0EE}
    .fil3 {fill:#4BBAEB}
    .fil7 {fill:#007BC1}
    .fil10 {fill:#E84745;fill-rule:nonzero}
    .fil6 {fill:#A0D0EE;fill-rule:nonzero}
    .fil5 {fill:#4BBAEB;fill-rule:nonzero}
    .fil4 {fill:#007BC1;fill-rule:nonzero}
   ]]>
  </style>
 </defs>
 <g id="Ebene_x0020_1">
  <metadata id="CorelCorpID_0Corel-Layer"/>
  <path class="fil0 str0" d="M749.03 947.52l-706.44 0c0,390.16 316.28,706.44 706.44,706.44 390.16,0 706.44,-316.29 706.44,-706.44 0,-166.09 -58.51,-326.86 -165.28,-454.09l-541.16 454.09z"/>
  <path class="fil1 str0" d="M749.03 947.52l-405.87 405.87c107.64,107.64 253.64,168.12 405.87,168.12 317,0 573.98,-256.98 573.98,-573.98 0,-66.96 -11.72,-133.4 -34.62,-196.31l-539.37 196.31z"/>
  <path class="fil2 str0" d="M749.03 947.52l541.16 -454.09c-134.22,-159.96 -332.34,-252.35 -541.16,-252.35 -390.16,0 -706.44,316.29 -706.44,706.44l706.44 0z"/>
  <path class="fil3 str0" d="M749.03 947.52l539.37 -196.31c-82.53,-226.75 -298.07,-377.67 -539.37,-377.67 -317,0 -573.98,256.98 -573.98,573.98 0,152.23 60.47,298.22 168.12,405.87l405.87 -405.87z"/>
  <path class="fil4" d="M1669.68 1297.03l14.45 1.9c-2.25,8.39 -6.46,14.92 -12.6,19.55 -6.14,4.63 -13.97,6.96 -23.52,6.96 -12.01,0 -21.54,-3.7 -28.58,-11.12 -7.04,-7.38 -10.55,-17.78 -10.55,-31.14 0,-13.81 3.54,-24.55 10.66,-32.17 7.12,-7.65 16.35,-11.46 27.7,-11.46 10.98,0 19.95,3.73 26.91,11.22 6.96,7.49 10.45,18.02 10.45,31.59 0,0.82 -0.03,2.06 -0.08,3.7l-61.36 0c0.53,9.02 3.07,15.95 7.67,20.74 4.58,4.79 10.32,7.2 17.17,7.2 5.11,0 9.47,-1.35 13.07,-4.05 3.63,-2.7 6.48,-7.01 8.6,-12.94zm-45.72 -22.38l45.88 0c-0.61,-6.93 -2.38,-12.12 -5.27,-15.58 -4.42,-5.37 -10.18,-8.07 -17.25,-8.07 -6.4,0 -11.77,2.14 -16.14,6.43 -4.34,4.29 -6.74,10.03 -7.22,17.22z"/>
  <path id="1" class="fil4" d="M1701.77 1323.7l0 -82.39 12.54 0 0 11.69c6.03,-8.97 14.76,-13.44 26.16,-13.44 4.97,0 9.52,0.9 13.68,2.67 4.15,1.77 7.27,4.13 9.34,7.01 2.06,2.88 3.52,6.32 4.34,10.29 0.5,2.59 0.77,7.12 0.77,13.57l0 50.59 -13.97 0 0 -50.06c0,-5.69 -0.53,-9.95 -1.62,-12.75 -1.09,-2.81 -3.02,-5.05 -5.77,-6.75 -2.75,-1.66 -6.01,-2.51 -9.71,-2.51 -5.93,0 -11.04,1.88 -15.35,5.66 -4.31,3.76 -6.45,10.93 -6.45,21.46l0 44.95 -13.97 0z"/>
  <path id="2" class="fil4" d="M1820.39 1311.24l1.9 12.33c-3.92,0.82 -7.43,1.25 -10.51,1.25 -5.05,0 -8.97,-0.79 -11.77,-2.41 -2.78,-1.61 -4.74,-3.7 -5.87,-6.32 -1.14,-2.62 -1.69,-8.12 -1.69,-16.51l0 -47.47 -10.32 0 0 -10.79 10.32 0 0 -20.37 13.97 -8.39 0 28.76 13.97 0 0 10.79 -13.97 0 0 48.26c0,4 0.24,6.56 0.74,7.7 0.47,1.14 1.27,2.04 2.38,2.73 1.11,0.66 2.7,1 4.76,1 1.54,0 3.57,-0.18 6.09,-0.56z"/>
  <path id="3" class="fil4" d="M1834.17 1225.91l0 -15.88 13.97 0 0 15.88 -13.97 0zm0 97.79l0 -82.39 13.97 0 0 82.39 -13.97 0z"/>
  <path id="4" class="fil4" d="M1899.76 1311.24l1.9 12.33c-3.92,0.82 -7.43,1.25 -10.51,1.25 -5.05,0 -8.97,-0.79 -11.77,-2.41 -2.78,-1.61 -4.74,-3.7 -5.87,-6.32 -1.14,-2.62 -1.69,-8.12 -1.69,-16.51l0 -47.47 -10.32 0 0 -10.79 10.32 0 0 -20.37 13.97 -8.39 0 28.76 13.97 0 0 10.79 -13.97 0 0 48.26c0,4 0.24,6.56 0.74,7.7 0.47,1.14 1.27,2.04 2.38,2.73 1.11,0.66 2.7,1 4.76,1 1.54,0 3.57,-0.18 6.09,-0.56z"/>
  <path id="5" class="fil4" d="M1913.55 1225.91l0 -15.88 13.97 0 0 15.88 -13.97 0zm0 97.79l0 -82.39 13.97 0 0 82.39 -13.97 0z"/>
  <path id="6" class="fil4" d="M2005.01 1297.03l14.45 1.9c-2.25,8.39 -6.46,14.92 -12.6,19.55 -6.14,4.63 -13.97,6.96 -23.52,6.96 -12.01,0 -21.54,-3.7 -28.58,-11.12 -7.04,-7.38 -10.55,-17.78 -10.55,-31.14 0,-13.81 3.54,-24.55 10.66,-32.17 7.12,-7.65 16.35,-11.46 27.7,-11.46 10.98,0 19.95,3.73 26.91,11.22 6.96,7.49 10.45,18.02 10.45,31.59 0,0.82 -0.03,2.06 -0.08,3.7l-61.36 0c0.53,9.02 3.07,15.95 7.67,20.74 4.58,4.79 10.32,7.2 17.17,7.2 5.11,0 9.47,-1.35 13.07,-4.05 3.63,-2.7 6.48,-7.01 8.6,-12.94zm-45.72 -22.38l45.88 0c-0.61,-6.93 -2.38,-12.12 -5.27,-15.58 -4.42,-5.37 -10.18,-8.07 -17.25,-8.07 -6.4,0 -11.77,2.14 -16.14,6.43 -4.34,4.29 -6.75,10.03 -7.22,17.22z"/>
  <path id="7" class="fil4" d="M2031.55 1299.1l13.81 -2.22c0.77,5.53 2.94,9.76 6.48,12.73 3.55,2.94 8.52,4.42 14.87,4.42 6.43,0 11.19,-1.3 14.31,-3.91 3.1,-2.59 4.66,-5.66 4.66,-9.18 0,-3.15 -1.4,-5.64 -4.18,-7.44 -1.96,-1.24 -6.72,-2.8 -14.29,-4.74 -10.21,-2.56 -17.28,-4.79 -21.25,-6.67 -3.94,-1.9 -6.93,-4.5 -8.97,-7.83 -2.04,-3.31 -3.07,-6.98 -3.07,-11.01 0,-3.68 0.85,-7.07 2.51,-10.19 1.7,-3.12 3.97,-5.72 6.86,-7.78 2.17,-1.59 5.13,-2.94 8.86,-4.05 3.76,-1.11 7.75,-1.67 12.04,-1.67 6.46,0 12.12,0.92 16.99,2.81 4.89,1.85 8.49,4.39 10.82,7.57 2.3,3.2 3.92,7.46 4.79,12.81l-13.65 1.9c-0.61,-4.29 -2.41,-7.65 -5.37,-10.06 -2.97,-2.41 -7.14,-3.6 -12.57,-3.6 -6.38,0 -10.95,1.06 -13.68,3.17 -2.72,2.12 -4.1,4.6 -4.1,7.43 0,1.8 0.56,3.44 1.69,4.89 1.14,1.48 2.91,2.73 5.35,3.7 1.4,0.53 5.47,1.72 12.3,3.57 9.84,2.62 16.72,4.79 20.64,6.46 3.91,1.66 6.98,4.13 9.21,7.3 2.25,3.2 3.36,7.17 3.36,11.93 0,4.63 -1.35,9 -4.07,13.1 -2.72,4.1 -6.64,7.28 -11.75,9.53 -5.13,2.25 -10.93,3.36 -17.38,3.36 -10.69,0 -18.86,-2.22 -24.47,-6.64 -5.61,-4.45 -9.18,-11.01 -10.74,-19.71z"/>
  <path id="8" class="fil4" d="M2214.41 1313.38c-5.19,4.42 -10.19,7.52 -14.98,9.34 -4.79,1.83 -9.92,2.73 -15.43,2.73 -9.05,0 -16.01,-2.2 -20.88,-6.62 -4.87,-4.39 -7.3,-10.03 -7.3,-16.88 0,-4.02 0.92,-7.7 2.75,-11.03 1.85,-3.33 4.26,-5.98 7.22,-7.99 2.99,-2.01 6.32,-3.55 10.05,-4.58 2.75,-0.72 6.91,-1.4 12.43,-2.09 11.27,-1.32 19.61,-2.94 24.92,-4.79 0.05,-1.9 0.08,-3.12 0.08,-3.62 0,-5.66 -1.32,-9.66 -3.97,-11.99 -3.57,-3.15 -8.89,-4.71 -15.93,-4.71 -6.59,0 -11.45,1.16 -14.58,3.47 -3.15,2.3 -5.45,6.38 -6.96,12.25l-13.65 -1.9c1.24,-5.85 3.28,-10.58 6.14,-14.18 2.86,-3.6 6.98,-6.35 12.38,-8.31 5.37,-1.93 11.64,-2.91 18.73,-2.91 7.04,0 12.78,0.82 17.2,2.49 4.39,1.67 7.65,3.73 9.71,6.24 2.07,2.52 3.52,5.69 4.37,9.52 0.45,2.38 0.69,6.67 0.69,12.83l0 18.52c0,12.94 0.29,21.11 0.87,24.58 0.55,3.46 1.72,6.77 3.41,9.95l-14.61 0c-1.4,-2.94 -2.3,-6.38 -2.7,-10.32zm-1.11 -30.95c-5.08,2.06 -12.7,3.81 -22.86,5.24 -5.77,0.82 -9.84,1.75 -12.22,2.78 -2.38,1.03 -4.21,2.54 -5.51,4.5 -1.29,1.98 -1.96,4.18 -1.96,6.62 0,3.68 1.4,6.77 4.23,9.23 2.83,2.46 6.96,3.7 12.38,3.7 5.37,0 10.16,-1.16 14.37,-3.52 4.18,-2.33 7.28,-5.53 9.24,-9.58 1.51,-3.15 2.25,-7.78 2.25,-13.89l0.08 -5.08z"/>
  <path id="9" class="fil4" d="M2248.88 1323.7l0 -82.39 12.54 0 0 11.69c6.03,-8.97 14.76,-13.44 26.16,-13.44 4.97,0 9.53,0.9 13.68,2.67 4.16,1.77 7.28,4.13 9.34,7.01 2.06,2.88 3.52,6.32 4.34,10.29 0.5,2.59 0.77,7.12 0.77,13.57l0 50.59 -13.97 0 0 -50.06c0,-5.69 -0.53,-9.95 -1.61,-12.75 -1.09,-2.81 -3.02,-5.05 -5.77,-6.75 -2.75,-1.66 -6.01,-2.51 -9.71,-2.51 -5.93,0 -11.04,1.88 -15.35,5.66 -4.31,3.76 -6.45,10.93 -6.45,21.46l0 44.95 -13.97 0z"/>
  <path id="10" class="fil4" d="M2390.36 1323.7l0 -10.45c-5.21,8.12 -12.89,12.2 -23.02,12.2 -6.56,0 -12.59,-1.8 -18.07,-5.42 -5.5,-3.6 -9.76,-8.65 -12.81,-15.11 -3.01,-6.48 -4.52,-13.92 -4.52,-22.33 0,-8.2 1.38,-15.63 4.1,-22.33 2.75,-6.67 6.85,-11.8 12.33,-15.35 5.45,-3.57 11.59,-5.35 18.34,-5.35 4.97,0 9.39,1.06 13.25,3.15 3.86,2.09 7.01,4.84 9.45,8.2l0 -40.88 13.97 0 0 113.66 -13.02 0zm-44.13 -41.09c0,10.53 2.22,18.39 6.69,23.6 4.45,5.21 9.71,7.81 15.77,7.81 6.11,0 11.3,-2.49 15.58,-7.46 4.26,-4.97 6.41,-12.57 6.41,-22.78 0,-11.22 -2.17,-19.48 -6.54,-24.74 -4.34,-5.27 -9.71,-7.88 -16.09,-7.88 -6.22,0 -11.41,2.51 -15.59,7.57 -4.15,5.06 -6.24,13.02 -6.24,23.89z"/>
  <path id="11" class="fil4" d="M2523.39 1313.38c-5.19,4.42 -10.19,7.52 -14.98,9.34 -4.79,1.83 -9.92,2.73 -15.43,2.73 -9.05,0 -16.01,-2.2 -20.88,-6.62 -4.87,-4.39 -7.3,-10.03 -7.3,-16.88 0,-4.02 0.92,-7.7 2.75,-11.03 1.85,-3.33 4.26,-5.98 7.22,-7.99 2.99,-2.01 6.32,-3.55 10.05,-4.58 2.75,-0.72 6.9,-1.4 12.43,-2.09 11.27,-1.32 19.61,-2.94 24.92,-4.79 0.05,-1.9 0.08,-3.12 0.08,-3.62 0,-5.66 -1.32,-9.66 -3.97,-11.99 -3.57,-3.15 -8.89,-4.71 -15.93,-4.71 -6.59,0 -11.45,1.16 -14.58,3.47 -3.15,2.3 -5.45,6.38 -6.96,12.25l-13.65 -1.9c1.24,-5.85 3.28,-10.58 6.14,-14.18 2.86,-3.6 6.99,-6.35 12.38,-8.31 5.37,-1.93 11.64,-2.91 18.73,-2.91 7.04,0 12.78,0.82 17.2,2.49 4.39,1.67 7.65,3.73 9.71,6.24 2.07,2.52 3.52,5.69 4.37,9.52 0.45,2.38 0.69,6.67 0.69,12.83l0 18.52c0,12.94 0.29,21.11 0.87,24.58 0.55,3.46 1.72,6.77 3.41,9.95l-14.61 0c-1.4,-2.94 -2.3,-6.38 -2.7,-10.32zm-1.11 -30.95c-5.08,2.06 -12.7,3.81 -22.86,5.24 -5.77,0.82 -9.84,1.75 -12.22,2.78 -2.38,1.03 -4.21,2.54 -5.51,4.5 -1.29,1.98 -1.96,4.18 -1.96,6.62 0,3.68 1.4,6.77 4.23,9.23 2.83,2.46 6.96,3.7 12.38,3.7 5.37,0 10.16,-1.16 14.37,-3.52 4.18,-2.33 7.28,-5.53 9.24,-9.58 1.51,-3.15 2.25,-7.78 2.25,-13.89l0.08 -5.08z"/>
  <path id="12" class="fil4" d="M2570.72 1323.7l-13.02 0 0 -113.66 13.97 0 0 40.56c5.9,-7.36 13.41,-11.03 22.57,-11.03 5.05,0 9.87,1 14.39,3.04 4.53,2.04 8.23,4.92 11.17,8.6 2.91,3.7 5.21,8.15 6.85,13.36 1.66,5.19 2.49,10.77 2.49,16.69 0,14.08 -3.49,24.98 -10.45,32.65 -6.98,7.7 -15.34,11.54 -25.11,11.54 -9.71,0 -17.33,-4.05 -22.86,-12.12l0 10.37zm-0.16 -41.81c0,9.84 1.35,16.96 4.02,21.35 4.39,7.17 10.32,10.77 17.8,10.77 6.11,0 11.38,-2.64 15.8,-7.94 4.45,-5.29 6.67,-13.18 6.67,-23.65 0,-10.74 -2.12,-18.65 -6.38,-23.76 -4.26,-5.11 -9.42,-7.67 -15.45,-7.67 -6.11,0 -11.38,2.64 -15.8,7.94 -4.44,5.29 -6.67,12.94 -6.67,22.96z"/>
  <path id="13" class="fil4" d="M2640.6 1299.1l13.81 -2.22c0.77,5.53 2.94,9.76 6.48,12.73 3.54,2.94 8.52,4.42 14.87,4.42 6.43,0 11.19,-1.3 14.31,-3.91 3.1,-2.59 4.66,-5.66 4.66,-9.18 0,-3.15 -1.4,-5.64 -4.18,-7.44 -1.96,-1.24 -6.72,-2.8 -14.29,-4.74 -10.21,-2.56 -17.28,-4.79 -21.25,-6.67 -3.94,-1.9 -6.93,-4.5 -8.97,-7.83 -2.04,-3.31 -3.07,-6.98 -3.07,-11.01 0,-3.68 0.85,-7.07 2.51,-10.19 1.69,-3.12 3.97,-5.72 6.86,-7.78 2.17,-1.59 5.13,-2.94 8.86,-4.05 3.76,-1.11 7.75,-1.67 12.04,-1.67 6.46,0 12.12,0.92 16.99,2.81 4.89,1.85 8.49,4.39 10.82,7.57 2.3,3.2 3.92,7.46 4.79,12.81l-13.65 1.9c-0.61,-4.29 -2.41,-7.65 -5.37,-10.06 -2.97,-2.41 -7.14,-3.6 -12.57,-3.6 -6.38,0 -10.95,1.06 -13.68,3.17 -2.73,2.12 -4.1,4.6 -4.1,7.43 0,1.8 0.56,3.44 1.69,4.89 1.14,1.48 2.91,2.73 5.35,3.7 1.4,0.53 5.47,1.72 12.3,3.57 9.84,2.62 16.72,4.79 20.64,6.46 3.91,1.66 6.98,4.13 9.21,7.3 2.25,3.2 3.36,7.17 3.36,11.93 0,4.63 -1.35,9 -4.07,13.1 -2.72,4.1 -6.64,7.28 -11.75,9.53 -5.13,2.25 -10.93,3.36 -17.38,3.36 -10.69,0 -18.86,-2.22 -24.47,-6.64 -5.61,-4.45 -9.18,-11.01 -10.74,-19.71z"/>
  <path id="14" class="fil4" d="M2755.85 1311.24l1.9 12.33c-3.92,0.82 -7.43,1.25 -10.51,1.25 -5.05,0 -8.97,-0.79 -11.77,-2.41 -2.78,-1.61 -4.74,-3.7 -5.87,-6.32 -1.14,-2.62 -1.69,-8.12 -1.69,-16.51l0 -47.47 -10.32 0 0 -10.79 10.32 0 0 -20.37 13.97 -8.39 0 28.76 13.97 0 0 10.79 -13.97 0 0 48.26c0,4 0.24,6.56 0.74,7.7 0.48,1.14 1.27,2.04 2.38,2.73 1.11,0.66 2.7,1 4.76,1 1.53,0 3.57,-0.18 6.09,-0.56z"/>
  <path id="15" class="fil4" d="M2769.48 1323.7l0 -82.39 12.54 0 0 12.62c3.2,-5.85 6.16,-9.71 8.89,-11.56 2.72,-1.88 5.71,-2.81 8.97,-2.81 4.71,0 9.5,1.48 14.37,4.42l-4.98 12.88c-3.39,-1.9 -6.77,-2.86 -10.16,-2.86 -3.04,0 -5.77,0.93 -8.18,2.75 -2.41,1.83 -4.13,4.37 -5.16,7.62 -1.56,4.95 -2.33,10.37 -2.33,16.27l0 43.05 -13.97 0z"/>
  <path id="16" class="fil4" d="M2876.32 1313.38c-5.19,4.42 -10.19,7.52 -14.98,9.34 -4.79,1.83 -9.92,2.73 -15.42,2.73 -9.05,0 -16.01,-2.2 -20.88,-6.62 -4.87,-4.39 -7.3,-10.03 -7.3,-16.88 0,-4.02 0.92,-7.7 2.75,-11.03 1.85,-3.33 4.26,-5.98 7.22,-7.99 2.99,-2.01 6.32,-3.55 10.06,-4.58 2.75,-0.72 6.9,-1.4 12.43,-2.09 11.27,-1.32 19.61,-2.94 24.92,-4.79 0.05,-1.9 0.08,-3.12 0.08,-3.62 0,-5.66 -1.32,-9.66 -3.97,-11.99 -3.57,-3.15 -8.89,-4.71 -15.93,-4.71 -6.59,0 -11.45,1.16 -14.58,3.47 -3.15,2.3 -5.45,6.38 -6.96,12.25l-13.65 -1.9c1.24,-5.85 3.28,-10.58 6.14,-14.18 2.86,-3.6 6.99,-6.35 12.38,-8.31 5.37,-1.93 11.64,-2.91 18.73,-2.91 7.04,0 12.78,0.82 17.2,2.49 4.39,1.67 7.65,3.73 9.71,6.24 2.07,2.52 3.52,5.69 4.36,9.52 0.45,2.38 0.69,6.67 0.69,12.83l0 18.52c0,12.94 0.29,21.11 0.87,24.58 0.56,3.46 1.72,6.77 3.41,9.95l-14.61 0c-1.4,-2.94 -2.3,-6.38 -2.7,-10.32zm-1.11 -30.95c-5.08,2.06 -12.7,3.81 -22.86,5.24 -5.77,0.82 -9.84,1.75 -12.22,2.78 -2.38,1.03 -4.21,2.54 -5.5,4.5 -1.3,1.98 -1.96,4.18 -1.96,6.62 0,3.68 1.4,6.77 4.23,9.23 2.83,2.46 6.96,3.7 12.38,3.7 5.37,0 10.16,-1.16 14.37,-3.52 4.18,-2.33 7.28,-5.53 9.23,-9.58 1.51,-3.15 2.25,-7.78 2.25,-13.89l0.08 -5.08z"/>
  <path id="17" class="fil4" d="M2964.61 1293.54l13.65 1.9c-1.51,9.39 -5.32,16.72 -11.49,22.04 -6.16,5.32 -13.76,7.96 -22.73,7.96 -11.24,0 -20.29,-3.68 -27.12,-11.03 -6.85,-7.36 -10.26,-17.89 -10.26,-31.59 0,-8.89 1.48,-16.64 4.42,-23.31 2.94,-6.64 7.41,-11.64 13.44,-14.95 6.01,-3.33 12.54,-5 19.63,-5 8.91,0 16.24,2.25 21.91,6.77 5.69,4.52 9.34,10.95 10.93,19.26l-13.5 2.06c-1.3,-5.53 -3.57,-9.68 -6.88,-12.49 -3.28,-2.78 -7.25,-4.18 -11.91,-4.18 -7.04,0 -12.75,2.51 -17.17,7.54 -4.39,5.06 -6.59,12.99 -6.59,23.89 0,11.06 2.12,19.08 6.35,24.08 4.26,5 9.79,7.51 16.59,7.51 5.5,0 10.08,-1.66 13.73,-5.03 3.68,-3.34 6,-8.49 6.98,-15.45z"/>
  <path id="18" class="fil4" d="M3020.49 1311.24l1.9 12.33c-3.92,0.82 -7.43,1.25 -10.5,1.25 -5.05,0 -8.97,-0.79 -11.78,-2.41 -2.78,-1.61 -4.74,-3.7 -5.87,-6.32 -1.14,-2.62 -1.69,-8.12 -1.69,-16.51l0 -47.47 -10.32 0 0 -10.79 10.32 0 0 -20.37 13.97 -8.39 0 28.76 13.97 0 0 10.79 -13.97 0 0 48.26c0,4 0.24,6.56 0.74,7.7 0.47,1.14 1.27,2.04 2.38,2.73 1.11,0.66 2.7,1 4.76,1 1.54,0 3.57,-0.18 6.09,-0.56z"/>
  <path id="19" class="fil4" d="M3034.27 1225.91l0 -15.88 13.97 0 0 15.88 -13.97 0zm0 97.79l0 -82.39 13.97 0 0 82.39 -13.97 0z"/>
  <path id="20" class="fil4" d="M3064.31 1282.51c0,-15.21 4.23,-26.48 12.72,-33.81 7.07,-6.09 15.72,-9.13 25.9,-9.13 11.3,0 20.56,3.7 27.76,11.11 7.17,7.38 10.77,17.62 10.77,30.66 0,10.58 -1.59,18.89 -4.76,24.95 -3.18,6.06 -7.81,10.77 -13.89,14.13 -6.06,3.36 -12.7,5.03 -19.87,5.03 -11.53,0 -20.85,-3.68 -27.97,-11.06 -7.12,-7.38 -10.66,-18.02 -10.66,-31.88zm14.29 0.03c0,10.53 2.3,18.41 6.9,23.63 4.63,5.24 10.43,7.86 17.44,7.86 6.93,0 12.7,-2.62 17.33,-7.88 4.61,-5.26 6.91,-13.28 6.91,-24.05 0,-10.16 -2.33,-17.86 -6.96,-23.07 -4.63,-5.24 -10.4,-7.86 -17.28,-7.86 -7.01,0 -12.81,2.6 -17.44,7.81 -4.6,5.21 -6.9,13.07 -6.9,23.57z"/>
  <path id="21" class="fil4" d="M3157.84 1323.7l0 -82.39 12.54 0 0 11.69c6.03,-8.97 14.76,-13.44 26.16,-13.44 4.98,0 9.53,0.9 13.68,2.67 4.15,1.77 7.27,4.13 9.34,7.01 2.06,2.88 3.52,6.32 4.34,10.29 0.5,2.59 0.77,7.12 0.77,13.57l0 50.59 -13.97 0 0 -50.06c0,-5.69 -0.53,-9.95 -1.61,-12.75 -1.09,-2.81 -3.02,-5.05 -5.77,-6.75 -2.75,-1.66 -6.01,-2.51 -9.71,-2.51 -5.93,0 -11.04,1.88 -15.35,5.66 -4.31,3.76 -6.45,10.93 -6.45,21.46l0 44.95 -13.97 0z"/>
  <path id="22" class="fil4" d="M3240.57 1299.1l13.81 -2.22c0.77,5.53 2.94,9.76 6.48,12.73 3.55,2.94 8.52,4.42 14.87,4.42 6.43,0 11.19,-1.3 14.31,-3.91 3.1,-2.59 4.66,-5.66 4.66,-9.18 0,-3.15 -1.4,-5.64 -4.18,-7.44 -1.96,-1.24 -6.72,-2.8 -14.29,-4.74 -10.21,-2.56 -17.28,-4.79 -21.25,-6.67 -3.94,-1.9 -6.93,-4.5 -8.97,-7.83 -2.04,-3.31 -3.07,-6.98 -3.07,-11.01 0,-3.68 0.85,-7.07 2.51,-10.19 1.69,-3.12 3.97,-5.72 6.85,-7.78 2.17,-1.59 5.13,-2.94 8.86,-4.05 3.76,-1.11 7.75,-1.67 12.04,-1.67 6.46,0 12.12,0.92 16.99,2.81 4.9,1.85 8.49,4.39 10.82,7.57 2.3,3.2 3.92,7.46 4.79,12.81l-13.65 1.9c-0.61,-4.29 -2.41,-7.65 -5.37,-10.06 -2.97,-2.41 -7.15,-3.6 -12.57,-3.6 -6.38,0 -10.95,1.06 -13.68,3.17 -2.72,2.12 -4.1,4.6 -4.1,7.43 0,1.8 0.55,3.44 1.69,4.89 1.14,1.48 2.91,2.73 5.34,3.7 1.4,0.53 5.48,1.72 12.3,3.57 9.84,2.62 16.72,4.79 20.64,6.46 3.92,1.66 6.99,4.13 9.21,7.3 2.25,3.2 3.36,7.17 3.36,11.93 0,4.63 -1.35,9 -4.08,13.1 -2.72,4.1 -6.64,7.28 -11.75,9.53 -5.13,2.25 -10.93,3.36 -17.38,3.36 -10.69,0 -18.87,-2.22 -24.47,-6.64 -5.61,-4.45 -9.18,-11.01 -10.74,-19.71z"/>
  <path class="fil5" d="M1608.88 768.62l0 -15.88 13.97 0 0 15.88 -13.97 0zm0 97.79l0 -82.39 13.97 0 0 82.39 -13.97 0z"/>
  <path id="1" class="fil5" d="M1644.15 866.41l0 -82.39 12.54 0 0 11.69c6.03,-8.97 14.76,-13.44 26.16,-13.44 4.97,0 9.52,0.9 13.68,2.67 4.16,1.77 7.28,4.13 9.34,7.01 2.06,2.88 3.52,6.33 4.34,10.29 0.5,2.6 0.77,7.12 0.77,13.57l0 50.59 -13.97 0 0 -50.06c0,-5.69 -0.53,-9.95 -1.62,-12.75 -1.09,-2.8 -3.02,-5.05 -5.77,-6.75 -2.75,-1.66 -6.01,-2.51 -9.71,-2.51 -5.93,0 -11.04,1.88 -15.35,5.66 -4.31,3.76 -6.46,10.93 -6.46,21.46l0 44.95 -13.97 0z"/>
  <path id="2" class="fil5" d="M1735.78 866.41l0 -71.6 -12.38 0 0 -10.79 12.38 0 0 -8.73c0,-5.53 0.47,-9.63 1.45,-12.3 1.35,-3.6 3.68,-6.53 7.06,-8.78 3.36,-2.25 8.1,-3.36 14.18,-3.36 3.94,0 8.28,0.48 13.05,1.4l-2.09 12.22c-2.91,-0.5 -5.64,-0.77 -8.23,-0.77 -4.23,0 -7.22,0.9 -9,2.7 -1.75,1.8 -2.62,5.16 -2.62,10.08l0 7.54 16.03 0 0 10.79 -15.88 0 0 71.6 -13.97 0z"/>
  <path id="3" class="fil5" d="M1776.39 866.41l0 -82.39 12.54 0 0 12.62c3.2,-5.85 6.16,-9.71 8.89,-11.56 2.73,-1.88 5.72,-2.8 8.97,-2.8 4.71,0 9.5,1.48 14.37,4.42l-4.97 12.88c-3.39,-1.9 -6.77,-2.86 -10.16,-2.86 -3.04,0 -5.77,0.93 -8.17,2.75 -2.41,1.83 -4.13,4.37 -5.16,7.62 -1.56,4.95 -2.33,10.37 -2.33,16.27l0 43.05 -13.97 0z"/>
  <path id="4" class="fil5" d="M1883.23 856.09c-5.19,4.42 -10.19,7.51 -14.98,9.34 -4.79,1.83 -9.92,2.73 -15.42,2.73 -9.05,0 -16.01,-2.2 -20.88,-6.62 -4.87,-4.39 -7.3,-10.03 -7.3,-16.88 0,-4.02 0.92,-7.7 2.75,-11.03 1.85,-3.33 4.26,-5.98 7.22,-7.99 2.99,-2.01 6.32,-3.54 10.06,-4.58 2.75,-0.72 6.9,-1.4 12.43,-2.09 11.27,-1.32 19.61,-2.94 24.92,-4.79 0.05,-1.91 0.08,-3.12 0.08,-3.62 0,-5.66 -1.32,-9.66 -3.97,-11.99 -3.57,-3.15 -8.89,-4.71 -15.93,-4.71 -6.59,0 -11.45,1.16 -14.58,3.47 -3.15,2.3 -5.45,6.38 -6.96,12.25l-13.65 -1.9c1.24,-5.85 3.28,-10.58 6.14,-14.18 2.86,-3.6 6.98,-6.35 12.38,-8.31 5.37,-1.93 11.64,-2.91 18.73,-2.91 7.04,0 12.78,0.82 17.2,2.49 4.39,1.67 7.65,3.73 9.71,6.24 2.07,2.51 3.52,5.69 4.37,9.52 0.45,2.38 0.69,6.67 0.69,12.83l0 18.52c0,12.94 0.29,21.11 0.87,24.58 0.55,3.46 1.72,6.77 3.41,9.95l-14.61 0c-1.4,-2.94 -2.3,-6.38 -2.7,-10.32zm-1.11 -30.96c-5.08,2.06 -12.7,3.81 -22.86,5.24 -5.77,0.82 -9.84,1.75 -12.22,2.78 -2.38,1.03 -4.21,2.54 -5.51,4.5 -1.29,1.99 -1.96,4.18 -1.96,6.62 0,3.68 1.4,6.77 4.23,9.23 2.83,2.46 6.96,3.7 12.38,3.7 5.37,0 10.16,-1.16 14.37,-3.52 4.18,-2.33 7.28,-5.53 9.23,-9.58 1.51,-3.15 2.25,-7.78 2.25,-13.89l0.08 -5.08z"/>
  <path id="5" class="fil5" d="M1912.15 841.81l13.81 -2.22c0.77,5.53 2.94,9.76 6.48,12.73 3.55,2.94 8.52,4.42 14.87,4.42 6.43,0 11.19,-1.29 14.31,-3.91 3.1,-2.59 4.66,-5.66 4.66,-9.18 0,-3.15 -1.4,-5.64 -4.18,-7.43 -1.96,-1.25 -6.72,-2.81 -14.29,-4.74 -10.21,-2.57 -17.28,-4.79 -21.25,-6.67 -3.94,-1.91 -6.93,-4.5 -8.97,-7.83 -2.04,-3.31 -3.07,-6.99 -3.07,-11.01 0,-3.68 0.85,-7.06 2.51,-10.19 1.69,-3.12 3.97,-5.71 6.86,-7.78 2.17,-1.59 5.13,-2.94 8.86,-4.05 3.76,-1.11 7.75,-1.67 12.04,-1.67 6.46,0 12.12,0.92 16.99,2.8 4.89,1.85 8.49,4.39 10.82,7.57 2.3,3.2 3.92,7.46 4.79,12.8l-13.65 1.9c-0.61,-4.29 -2.41,-7.65 -5.37,-10.05 -2.97,-2.41 -7.15,-3.6 -12.57,-3.6 -6.38,0 -10.95,1.06 -13.68,3.18 -2.72,2.12 -4.1,4.6 -4.1,7.43 0,1.8 0.56,3.44 1.69,4.9 1.14,1.48 2.91,2.72 5.35,3.7 1.4,0.53 5.48,1.72 12.3,3.57 9.84,2.62 16.72,4.79 20.64,6.46 3.91,1.66 6.99,4.13 9.21,7.3 2.25,3.2 3.36,7.17 3.36,11.93 0,4.63 -1.35,9 -4.08,13.1 -2.73,4.1 -6.64,7.28 -11.75,9.52 -5.13,2.25 -10.93,3.36 -17.38,3.36 -10.69,0 -18.87,-2.23 -24.47,-6.64 -5.61,-4.44 -9.18,-11.01 -10.74,-19.71z"/>
  <path id="6" class="fil5" d="M2027.4 853.95l1.9 12.33c-3.92,0.82 -7.43,1.25 -10.51,1.25 -5.05,0 -8.97,-0.79 -11.77,-2.41 -2.78,-1.61 -4.74,-3.7 -5.87,-6.32 -1.14,-2.62 -1.69,-8.12 -1.69,-16.51l0 -47.47 -10.32 0 0 -10.79 10.32 0 0 -20.37 13.97 -8.39 0 28.76 13.97 0 0 10.79 -13.97 0 0 48.26c0,4 0.24,6.56 0.74,7.7 0.47,1.14 1.27,2.04 2.38,2.73 1.11,0.66 2.7,1 4.76,1 1.54,0 3.57,-0.19 6.09,-0.55z"/>
  <path id="7" class="fil5" d="M2041.03 866.41l0 -82.39 12.54 0 0 12.62c3.2,-5.85 6.16,-9.71 8.89,-11.56 2.72,-1.88 5.72,-2.8 8.97,-2.8 4.71,0 9.5,1.48 14.37,4.42l-4.97 12.88c-3.39,-1.9 -6.77,-2.86 -10.16,-2.86 -3.04,0 -5.77,0.93 -8.17,2.75 -2.41,1.83 -4.13,4.37 -5.16,7.62 -1.56,4.95 -2.33,10.37 -2.33,16.27l0 43.05 -13.97 0z"/>
  <path id="8" class="fil5" d="M2147.87 866.41l0 -12.25c-6.41,9.34 -15.08,14 -26.06,14 -4.84,0 -9.37,-0.93 -13.57,-2.78 -4.21,-1.88 -7.33,-4.21 -9.37,-7.01 -2.04,-2.83 -3.47,-6.27 -4.29,-10.35 -0.56,-2.75 -0.85,-7.09 -0.85,-13.02l0 -50.99 13.97 0 0 45.59c0,7.27 0.29,12.19 0.85,14.71 0.87,3.68 2.72,6.54 5.58,8.63 2.83,2.09 6.32,3.15 10.5,3.15 4.18,0 8.1,-1.06 11.75,-3.2 3.65,-2.14 6.24,-5.08 7.78,-8.76 1.51,-3.68 2.28,-9.05 2.28,-16.06l0 -44.05 13.97 0 0 82.39 -12.54 0z"/>
  <path id="9" class="fil5" d="M2236.16 836.25l13.65 1.9c-1.51,9.39 -5.32,16.72 -11.48,22.04 -6.16,5.32 -13.76,7.97 -22.73,7.97 -11.25,0 -20.29,-3.68 -27.12,-11.03 -6.85,-7.36 -10.26,-17.88 -10.26,-31.59 0,-8.89 1.48,-16.64 4.42,-23.31 2.94,-6.64 7.41,-11.64 13.44,-14.95 6,-3.33 12.54,-5 19.63,-5 8.91,0 16.25,2.25 21.91,6.77 5.69,4.52 9.34,10.95 10.93,19.26l-13.49 2.06c-1.3,-5.53 -3.57,-9.68 -6.88,-12.49 -3.28,-2.78 -7.25,-4.18 -11.9,-4.18 -7.04,0 -12.75,2.51 -17.17,7.54 -4.39,5.05 -6.59,12.99 -6.59,23.89 0,11.06 2.12,19.08 6.35,24.08 4.26,5 9.79,7.51 16.59,7.51 5.5,0 10.08,-1.66 13.73,-5.02 3.68,-3.34 6.01,-8.5 6.99,-15.45z"/>
  <path id="10" class="fil5" d="M2292.04 853.95l1.91 12.33c-3.92,0.82 -7.43,1.25 -10.51,1.25 -5.05,0 -8.97,-0.79 -11.78,-2.41 -2.78,-1.61 -4.73,-3.7 -5.87,-6.32 -1.14,-2.62 -1.69,-8.12 -1.69,-16.51l0 -47.47 -10.32 0 0 -10.79 10.32 0 0 -20.37 13.97 -8.39 0 28.76 13.97 0 0 10.79 -13.97 0 0 48.26c0,4 0.24,6.56 0.74,7.7 0.48,1.14 1.27,2.04 2.38,2.73 1.11,0.66 2.7,1 4.76,1 1.53,0 3.57,-0.19 6.09,-0.55z"/>
  <path id="11" class="fil5" d="M2359.64 866.41l0 -12.25c-6.41,9.34 -15.08,14 -26.06,14 -4.84,0 -9.37,-0.93 -13.57,-2.78 -4.21,-1.88 -7.33,-4.21 -9.37,-7.01 -2.04,-2.83 -3.47,-6.27 -4.29,-10.35 -0.56,-2.75 -0.85,-7.09 -0.85,-13.02l0 -50.99 13.97 0 0 45.59c0,7.27 0.29,12.19 0.85,14.71 0.87,3.68 2.72,6.54 5.58,8.63 2.83,2.09 6.32,3.15 10.5,3.15 4.18,0 8.1,-1.06 11.75,-3.2 3.65,-2.14 6.24,-5.08 7.78,-8.76 1.51,-3.68 2.27,-9.05 2.27,-16.06l0 -44.05 13.97 0 0 82.39 -12.54 0z"/>
  <path id="12" class="fil5" d="M2393.96 866.41l0 -82.39 12.54 0 0 12.62c3.2,-5.85 6.16,-9.71 8.89,-11.56 2.72,-1.88 5.71,-2.8 8.97,-2.8 4.71,0 9.5,1.48 14.37,4.42l-4.98 12.88c-3.39,-1.9 -6.77,-2.86 -10.16,-2.86 -3.04,0 -5.77,0.93 -8.18,2.75 -2.41,1.83 -4.13,4.37 -5.16,7.62 -1.56,4.95 -2.33,10.37 -2.33,16.27l0 43.05 -13.97 0z"/>
  <path id="13" class="fil5" d="M2503.18 839.74l14.45 1.91c-2.25,8.39 -6.46,14.92 -12.59,19.55 -6.14,4.63 -13.97,6.96 -23.52,6.96 -12.01,0 -21.54,-3.71 -28.58,-11.12 -7.04,-7.38 -10.55,-17.78 -10.55,-31.14 0,-13.81 3.55,-24.55 10.66,-32.17 7.12,-7.65 16.35,-11.46 27.7,-11.46 10.98,0 19.95,3.73 26.91,11.22 6.96,7.49 10.45,18.02 10.45,31.59 0,0.82 -0.03,2.06 -0.08,3.7l-61.36 0c0.53,9.02 3.07,15.95 7.67,20.75 4.58,4.79 10.32,7.19 17.17,7.19 5.11,0 9.47,-1.35 13.07,-4.05 3.63,-2.7 6.48,-7.01 8.6,-12.94zm-45.72 -22.38l45.88 0c-0.61,-6.93 -2.38,-12.12 -5.27,-15.58 -4.42,-5.37 -10.18,-8.07 -17.25,-8.07 -6.4,0 -11.77,2.14 -16.14,6.43 -4.34,4.28 -6.74,10.03 -7.22,17.22z"/>
  <path id="14" class="fil5" d="M2633.19 856.09c-5.19,4.42 -10.19,7.51 -14.98,9.34 -4.79,1.83 -9.92,2.73 -15.42,2.73 -9.05,0 -16.01,-2.2 -20.88,-6.62 -4.87,-4.39 -7.3,-10.03 -7.3,-16.88 0,-4.02 0.92,-7.7 2.75,-11.03 1.85,-3.33 4.26,-5.98 7.22,-7.99 2.99,-2.01 6.32,-3.54 10.06,-4.58 2.75,-0.72 6.9,-1.4 12.43,-2.09 11.27,-1.32 19.61,-2.94 24.92,-4.79 0.05,-1.91 0.08,-3.12 0.08,-3.62 0,-5.66 -1.32,-9.66 -3.97,-11.99 -3.57,-3.15 -8.89,-4.71 -15.93,-4.71 -6.59,0 -11.45,1.16 -14.58,3.47 -3.15,2.3 -5.45,6.38 -6.96,12.25l-13.65 -1.9c1.24,-5.85 3.28,-10.58 6.14,-14.18 2.86,-3.6 6.99,-6.35 12.38,-8.31 5.37,-1.93 11.64,-2.91 18.73,-2.91 7.04,0 12.78,0.82 17.2,2.49 4.39,1.67 7.65,3.73 9.71,6.24 2.07,2.51 3.52,5.69 4.36,9.52 0.45,2.38 0.69,6.67 0.69,12.83l0 18.52c0,12.94 0.29,21.11 0.87,24.58 0.56,3.46 1.72,6.77 3.41,9.95l-14.61 0c-1.4,-2.94 -2.3,-6.38 -2.7,-10.32zm-1.11 -30.96c-5.08,2.06 -12.7,3.81 -22.86,5.24 -5.77,0.82 -9.84,1.75 -12.22,2.78 -2.38,1.03 -4.21,2.54 -5.5,4.5 -1.3,1.99 -1.96,4.18 -1.96,6.62 0,3.68 1.4,6.77 4.23,9.23 2.83,2.46 6.96,3.7 12.38,3.7 5.37,0 10.16,-1.16 14.37,-3.52 4.18,-2.33 7.28,-5.53 9.23,-9.58 1.51,-3.15 2.25,-7.78 2.25,-13.89l0.08 -5.08z"/>
  <path id="15" class="fil5" d="M2667.67 866.41l0 -82.39 12.54 0 0 11.69c6.03,-8.97 14.76,-13.44 26.16,-13.44 4.97,0 9.53,0.9 13.68,2.67 4.15,1.77 7.28,4.13 9.34,7.01 2.06,2.88 3.52,6.33 4.34,10.29 0.5,2.6 0.77,7.12 0.77,13.57l0 50.59 -13.97 0 0 -50.06c0,-5.69 -0.53,-9.95 -1.62,-12.75 -1.09,-2.8 -3.02,-5.05 -5.77,-6.75 -2.75,-1.66 -6.01,-2.51 -9.71,-2.51 -5.93,0 -11.03,1.88 -15.35,5.66 -4.31,3.76 -6.45,10.93 -6.45,21.46l0 44.95 -13.97 0z"/>
  <path id="16" class="fil5" d="M2809.14 866.41l0 -10.45c-5.21,8.12 -12.89,12.2 -23.02,12.2 -6.56,0 -12.59,-1.8 -18.07,-5.42 -5.51,-3.6 -9.77,-8.65 -12.81,-15.11 -3.02,-6.48 -4.52,-13.92 -4.52,-22.33 0,-8.2 1.38,-15.63 4.1,-22.33 2.75,-6.67 6.85,-11.8 12.33,-15.34 5.45,-3.57 11.59,-5.35 18.34,-5.35 4.97,0 9.39,1.06 13.26,3.15 3.86,2.09 7.01,4.84 9.45,8.2l0 -40.88 13.97 0 0 113.67 -13.02 0zm-44.13 -41.09c0,10.53 2.22,18.39 6.69,23.6 4.44,5.21 9.71,7.8 15.77,7.8 6.11,0 11.3,-2.49 15.58,-7.46 4.26,-4.97 6.4,-12.57 6.4,-22.78 0,-11.22 -2.17,-19.47 -6.54,-24.74 -4.34,-5.26 -9.71,-7.88 -16.09,-7.88 -6.22,0 -11.4,2.51 -15.59,7.57 -4.15,5.06 -6.24,13.02 -6.24,23.89z"/>
  <path id="17" class="fil5" d="M2888.36 898.01l0 -113.99 12.7 0 0 10.82c2.99,-4.18 6.38,-7.33 10.16,-9.42 3.76,-2.09 8.34,-3.15 13.7,-3.15 7.04,0 13.23,1.8 18.6,5.42 5.37,3.6 9.42,8.7 12.17,15.26 2.73,6.59 4.1,13.79 4.1,21.64 0,8.39 -1.51,15.96 -4.53,22.7 -3.01,6.72 -7.41,11.88 -13.17,15.48 -5.74,3.57 -11.8,5.37 -18.15,5.37 -4.66,0 -8.84,-0.98 -12.51,-2.94 -3.71,-1.96 -6.72,-4.42 -9.1,-7.41l0 40.19 -13.97 0zm12.7 -72.28c0,10.56 2.14,18.36 6.4,23.41 4.29,5.05 9.47,7.59 15.56,7.59 6.19,0 11.48,-2.62 15.88,-7.86 4.42,-5.24 6.61,-13.34 6.61,-24.32 0,-10.48 -2.14,-18.31 -6.45,-23.52 -4.31,-5.21 -9.45,-7.81 -15.43,-7.81 -5.93,0 -11.17,2.78 -15.72,8.31 -4.58,5.56 -6.85,13.6 -6.85,24.18z"/>
  <path id="18" class="fil5" d="M3032.85 839.74l14.45 1.91c-2.25,8.39 -6.46,14.92 -12.6,19.55 -6.14,4.63 -13.97,6.96 -23.52,6.96 -12.01,0 -21.54,-3.71 -28.57,-11.12 -7.04,-7.38 -10.56,-17.78 -10.56,-31.14 0,-13.81 3.55,-24.55 10.66,-32.17 7.12,-7.65 16.35,-11.46 27.7,-11.46 10.98,0 19.95,3.73 26.91,11.22 6.96,7.49 10.45,18.02 10.45,31.59 0,0.82 -0.03,2.06 -0.08,3.7l-61.35 0c0.53,9.02 3.07,15.95 7.67,20.75 4.58,4.79 10.32,7.19 17.17,7.19 5.11,0 9.47,-1.35 13.07,-4.05 3.63,-2.7 6.48,-7.01 8.6,-12.94zm-45.72 -22.38l45.88 0c-0.61,-6.93 -2.38,-12.12 -5.27,-15.58 -4.42,-5.37 -10.18,-8.07 -17.25,-8.07 -6.4,0 -11.77,2.14 -16.14,6.43 -4.34,4.28 -6.74,10.03 -7.22,17.22z"/>
  <path id="19" class="fil5" d="M3064.79 866.41l0 -82.39 12.54 0 0 12.62c3.2,-5.85 6.16,-9.71 8.89,-11.56 2.72,-1.88 5.72,-2.8 8.97,-2.8 4.71,0 9.5,1.48 14.37,4.42l-4.97 12.88c-3.39,-1.9 -6.77,-2.86 -10.16,-2.86 -3.04,0 -5.77,0.93 -8.17,2.75 -2.41,1.83 -4.13,4.37 -5.16,7.62 -1.56,4.95 -2.33,10.37 -2.33,16.27l0 43.05 -13.97 0z"/>
  <path id="20" class="fil5" d="M3112.25 841.81l13.81 -2.22c0.77,5.53 2.94,9.76 6.48,12.73 3.54,2.94 8.52,4.42 14.87,4.42 6.43,0 11.19,-1.29 14.31,-3.91 3.1,-2.59 4.66,-5.66 4.66,-9.18 0,-3.15 -1.4,-5.64 -4.18,-7.43 -1.96,-1.25 -6.72,-2.81 -14.29,-4.74 -10.21,-2.57 -17.28,-4.79 -21.25,-6.67 -3.94,-1.91 -6.93,-4.5 -8.97,-7.83 -2.04,-3.31 -3.07,-6.99 -3.07,-11.01 0,-3.68 0.85,-7.06 2.51,-10.19 1.7,-3.12 3.97,-5.71 6.86,-7.78 2.17,-1.59 5.13,-2.94 8.86,-4.05 3.76,-1.11 7.75,-1.67 12.04,-1.67 6.46,0 12.12,0.92 16.99,2.8 4.89,1.85 8.49,4.39 10.82,7.57 2.3,3.2 3.92,7.46 4.79,12.8l-13.65 1.9c-0.61,-4.29 -2.41,-7.65 -5.37,-10.05 -2.96,-2.41 -7.14,-3.6 -12.57,-3.6 -6.38,0 -10.95,1.06 -13.68,3.18 -2.73,2.12 -4.1,4.6 -4.1,7.43 0,1.8 0.56,3.44 1.69,4.9 1.14,1.48 2.91,2.72 5.35,3.7 1.4,0.53 5.47,1.72 12.3,3.57 9.84,2.62 16.72,4.79 20.64,6.46 3.91,1.66 6.99,4.13 9.21,7.3 2.25,3.2 3.36,7.17 3.36,11.93 0,4.63 -1.35,9 -4.07,13.1 -2.73,4.1 -6.64,7.28 -11.75,9.52 -5.13,2.25 -10.93,3.36 -17.38,3.36 -10.69,0 -18.86,-2.23 -24.47,-6.64 -5.61,-4.44 -9.18,-11.01 -10.74,-19.71z"/>
  <path id="21" class="fil5" d="M3197.18 768.62l0 -15.88 13.97 0 0 15.88 -13.97 0zm0 97.79l0 -82.39 13.97 0 0 82.39 -13.97 0z"/>
  <path id="22" class="fil5" d="M3226.9 841.81l13.81 -2.22c0.77,5.53 2.94,9.76 6.48,12.73 3.55,2.94 8.52,4.42 14.87,4.42 6.43,0 11.19,-1.29 14.31,-3.91 3.1,-2.59 4.66,-5.66 4.66,-9.18 0,-3.15 -1.4,-5.64 -4.18,-7.43 -1.96,-1.25 -6.72,-2.81 -14.29,-4.74 -10.21,-2.57 -17.28,-4.79 -21.25,-6.67 -3.94,-1.91 -6.93,-4.5 -8.97,-7.83 -2.04,-3.31 -3.07,-6.99 -3.07,-11.01 0,-3.68 0.85,-7.06 2.51,-10.19 1.69,-3.12 3.97,-5.71 6.85,-7.78 2.17,-1.59 5.13,-2.94 8.86,-4.05 3.76,-1.11 7.75,-1.67 12.04,-1.67 6.46,0 12.12,0.92 16.99,2.8 4.89,1.85 8.49,4.39 10.82,7.57 2.3,3.2 3.92,7.46 4.79,12.8l-13.65 1.9c-0.61,-4.29 -2.41,-7.65 -5.37,-10.05 -2.97,-2.41 -7.14,-3.6 -12.57,-3.6 -6.38,0 -10.95,1.06 -13.68,3.18 -2.72,2.12 -4.1,4.6 -4.1,7.43 0,1.8 0.55,3.44 1.69,4.9 1.14,1.48 2.91,2.72 5.34,3.7 1.4,0.53 5.48,1.72 12.3,3.57 9.84,2.62 16.72,4.79 20.64,6.46 3.91,1.66 6.98,4.13 9.21,7.3 2.25,3.2 3.36,7.17 3.36,11.93 0,4.63 -1.35,9 -4.08,13.1 -2.72,4.1 -6.64,7.28 -11.75,9.52 -5.13,2.25 -10.93,3.36 -17.38,3.36 -10.69,0 -18.87,-2.23 -24.47,-6.64 -5.61,-4.44 -9.18,-11.01 -10.74,-19.71z"/>
  <path id="23" class="fil5" d="M3342.15 853.95l1.91 12.33c-3.92,0.82 -7.43,1.25 -10.51,1.25 -5.05,0 -8.97,-0.79 -11.78,-2.41 -2.78,-1.61 -4.73,-3.7 -5.87,-6.32 -1.14,-2.62 -1.69,-8.12 -1.69,-16.51l0 -47.47 -10.32 0 0 -10.79 10.32 0 0 -20.37 13.97 -8.39 0 28.76 13.97 0 0 10.79 -13.97 0 0 48.26c0,4 0.24,6.56 0.74,7.7 0.47,1.14 1.27,2.04 2.38,2.73 1.11,0.66 2.7,1 4.76,1 1.53,0 3.57,-0.19 6.09,-0.55z"/>
  <path id="24" class="fil5" d="M3412.13 839.74l14.45 1.91c-2.25,8.39 -6.46,14.92 -12.59,19.55 -6.14,4.63 -13.97,6.96 -23.52,6.96 -12.01,0 -21.54,-3.71 -28.58,-11.12 -7.04,-7.38 -10.55,-17.78 -10.55,-31.14 0,-13.81 3.55,-24.55 10.66,-32.17 7.12,-7.65 16.35,-11.46 27.7,-11.46 10.98,0 19.95,3.73 26.91,11.22 6.96,7.49 10.45,18.02 10.45,31.59 0,0.82 -0.03,2.06 -0.08,3.7l-61.36 0c0.53,9.02 3.07,15.95 7.67,20.75 4.58,4.79 10.32,7.19 17.17,7.19 5.11,0 9.47,-1.35 13.07,-4.05 3.63,-2.7 6.48,-7.01 8.6,-12.94zm-45.72 -22.38l45.88 0c-0.61,-6.93 -2.38,-12.12 -5.27,-15.58 -4.42,-5.37 -10.19,-8.07 -17.25,-8.07 -6.4,0 -11.77,2.14 -16.14,6.43 -4.34,4.28 -6.74,10.03 -7.22,17.22z"/>
  <path id="25" class="fil5" d="M3444.23 866.41l0 -82.39 12.54 0 0 11.69c6.03,-8.97 14.76,-13.44 26.16,-13.44 4.97,0 9.52,0.9 13.68,2.67 4.15,1.77 7.27,4.13 9.34,7.01 2.06,2.88 3.52,6.33 4.34,10.29 0.5,2.6 0.77,7.12 0.77,13.57l0 50.59 -13.97 0 0 -50.06c0,-5.69 -0.53,-9.95 -1.62,-12.75 -1.09,-2.8 -3.02,-5.05 -5.77,-6.75 -2.75,-1.66 -6.01,-2.51 -9.71,-2.51 -5.93,0 -11.04,1.88 -15.35,5.66 -4.31,3.76 -6.45,10.93 -6.45,21.46l0 44.95 -13.97 0z"/>
  <path id="26" class="fil5" d="M3586.34 836.25l13.65 1.9c-1.51,9.39 -5.32,16.72 -11.49,22.04 -6.16,5.32 -13.76,7.97 -22.73,7.97 -11.24,0 -20.29,-3.68 -27.12,-11.03 -6.85,-7.36 -10.26,-17.88 -10.26,-31.59 0,-8.89 1.48,-16.64 4.42,-23.31 2.94,-6.64 7.41,-11.64 13.44,-14.95 6.01,-3.33 12.54,-5 19.63,-5 8.91,0 16.24,2.25 21.91,6.77 5.69,4.52 9.34,10.95 10.93,19.26l-13.49 2.06c-1.3,-5.53 -3.57,-9.68 -6.88,-12.49 -3.28,-2.78 -7.25,-4.18 -11.9,-4.18 -7.04,0 -12.75,2.51 -17.17,7.54 -4.39,5.05 -6.59,12.99 -6.59,23.89 0,11.06 2.12,19.08 6.35,24.08 4.26,5 9.79,7.51 16.59,7.51 5.5,0 10.08,-1.66 13.73,-5.02 3.68,-3.34 6,-8.5 6.99,-15.45z"/>
  <path id="27" class="fil5" d="M3668.09 839.74l14.45 1.91c-2.25,8.39 -6.46,14.92 -12.59,19.55 -6.14,4.63 -13.97,6.96 -23.52,6.96 -12.01,0 -21.54,-3.71 -28.58,-11.12 -7.04,-7.38 -10.55,-17.78 -10.55,-31.14 0,-13.81 3.55,-24.55 10.66,-32.17 7.12,-7.65 16.35,-11.46 27.7,-11.46 10.98,0 19.95,3.73 26.91,11.22 6.96,7.49 10.45,18.02 10.45,31.59 0,0.82 -0.03,2.06 -0.08,3.7l-61.36 0c0.53,9.02 3.07,15.95 7.67,20.75 4.58,4.79 10.32,7.19 17.17,7.19 5.11,0 9.47,-1.35 13.07,-4.05 3.63,-2.7 6.48,-7.01 8.6,-12.94zm-45.72 -22.38l45.88 0c-0.61,-6.93 -2.38,-12.12 -5.27,-15.58 -4.42,-5.37 -10.19,-8.07 -17.25,-8.07 -6.4,0 -11.77,2.14 -16.14,6.43 -4.34,4.28 -6.74,10.03 -7.22,17.22z"/>
  <path id="28" class="fil5" d="M1608.88 945.97l0 -15.88 13.97 0 0 15.88 -13.97 0zm0 97.79l0 -82.39 13.97 0 0 82.39 -13.97 0z"/>
  <path id="29" class="fil5" d="M1644.15 1043.76l0 -82.39 12.54 0 0 11.64c2.56,-4.02 6,-7.28 10.29,-9.71 4.29,-2.46 9.15,-3.68 14.63,-3.68 6.09,0 11.09,1.27 14.98,3.78 3.89,2.54 6.64,6.06 8.23,10.61 6.56,-9.6 15.06,-14.39 25.53,-14.39 8.2,0 14.53,2.25 18.92,6.77 4.42,4.52 6.64,11.48 6.64,20.88l0 56.49 -13.97 0 0 -51.86c0,-5.56 -0.47,-9.58 -1.38,-12.04 -0.9,-2.46 -2.54,-4.42 -4.95,-5.92 -2.38,-1.51 -5.19,-2.25 -8.39,-2.25 -5.82,0 -10.64,1.93 -14.47,5.77 -3.84,3.86 -5.74,10.03 -5.74,18.5l0 47.81 -13.97 0 0 -53.47c0,-6.19 -1.14,-10.85 -3.41,-13.94 -2.27,-3.1 -6.01,-4.66 -11.16,-4.66 -3.92,0 -7.54,1.03 -10.88,3.09 -3.34,2.07 -5.74,5.08 -7.25,9.08 -1.48,3.97 -2.22,9.71 -2.22,17.2l0 42.71 -13.97 0z"/>
  <path id="30" class="fil5" d="M1776.39 1075.36l0 -113.99 12.7 0 0 10.82c2.99,-4.18 6.38,-7.33 10.16,-9.42 3.76,-2.09 8.34,-3.15 13.7,-3.15 7.04,0 13.23,1.8 18.6,5.42 5.37,3.6 9.42,8.7 12.17,15.27 2.73,6.59 4.1,13.78 4.1,21.64 0,8.39 -1.51,15.96 -4.53,22.7 -3.01,6.72 -7.41,11.88 -13.17,15.48 -5.74,3.57 -11.8,5.37 -18.15,5.37 -4.66,0 -8.84,-0.98 -12.51,-2.94 -3.71,-1.96 -6.72,-4.42 -9.1,-7.41l0 40.19 -13.97 0zm12.7 -72.28c0,10.56 2.14,18.36 6.4,23.41 4.29,5.05 9.47,7.59 15.56,7.59 6.19,0 11.48,-2.62 15.88,-7.86 4.42,-5.24 6.62,-13.34 6.62,-24.32 0,-10.48 -2.14,-18.31 -6.45,-23.52 -4.31,-5.21 -9.45,-7.81 -15.42,-7.81 -5.93,0 -11.17,2.78 -15.72,8.31 -4.58,5.55 -6.85,13.6 -6.85,24.18z"/>
  <polygon id="31" class="fil5" points="1864.36,1043.76 1864.36,930.1 1878.33,930.1 1878.33,1043.76 "/>
  <path id="32" class="fil5" d="M1956.15 1017.09l14.45 1.91c-2.25,8.39 -6.46,14.92 -12.6,19.55 -6.14,4.63 -13.97,6.96 -23.52,6.96 -12.01,0 -21.54,-3.7 -28.58,-11.12 -7.04,-7.38 -10.55,-17.78 -10.55,-31.14 0,-13.81 3.54,-24.55 10.66,-32.17 7.12,-7.65 16.35,-11.46 27.7,-11.46 10.98,0 19.95,3.73 26.91,11.22 6.96,7.49 10.45,18.02 10.45,31.59 0,0.82 -0.03,2.06 -0.08,3.7l-61.36 0c0.53,9.02 3.07,15.95 7.67,20.74 4.58,4.79 10.32,7.2 17.17,7.2 5.11,0 9.47,-1.35 13.07,-4.05 3.63,-2.7 6.48,-7.01 8.6,-12.94zm-45.72 -22.38l45.88 0c-0.61,-6.93 -2.38,-12.12 -5.27,-15.58 -4.42,-5.37 -10.18,-8.07 -17.25,-8.07 -6.4,0 -11.77,2.14 -16.14,6.43 -4.34,4.28 -6.75,10.03 -7.22,17.22z"/>
  <path id="33" class="fil5" d="M1988.24 1043.76l0 -82.39 12.54 0 0 11.64c2.56,-4.02 6,-7.28 10.29,-9.71 4.29,-2.46 9.15,-3.68 14.63,-3.68 6.09,0 11.09,1.27 14.98,3.78 3.89,2.54 6.64,6.06 8.23,10.61 6.56,-9.6 15.06,-14.39 25.53,-14.39 8.2,0 14.53,2.25 18.92,6.77 4.42,4.52 6.64,11.48 6.64,20.88l0 56.49 -13.97 0 0 -51.86c0,-5.56 -0.47,-9.58 -1.38,-12.04 -0.9,-2.46 -2.54,-4.42 -4.95,-5.92 -2.38,-1.51 -5.19,-2.25 -8.39,-2.25 -5.82,0 -10.64,1.93 -14.47,5.77 -3.84,3.86 -5.74,10.03 -5.74,18.5l0 47.81 -13.97 0 0 -53.47c0,-6.19 -1.14,-10.85 -3.41,-13.94 -2.27,-3.1 -6.01,-4.66 -11.16,-4.66 -3.92,0 -7.54,1.03 -10.88,3.09 -3.34,2.07 -5.74,5.08 -7.25,9.08 -1.48,3.97 -2.22,9.71 -2.22,17.2l0 42.71 -13.97 0z"/>
  <path id="34" class="fil5" d="M2176.68 1017.09l14.45 1.91c-2.25,8.39 -6.46,14.92 -12.59,19.55 -6.14,4.63 -13.97,6.96 -23.52,6.96 -12.01,0 -21.54,-3.7 -28.58,-11.12 -7.04,-7.38 -10.55,-17.78 -10.55,-31.14 0,-13.81 3.55,-24.55 10.66,-32.17 7.12,-7.65 16.35,-11.46 27.7,-11.46 10.98,0 19.95,3.73 26.91,11.22 6.96,7.49 10.45,18.02 10.45,31.59 0,0.82 -0.03,2.06 -0.08,3.7l-61.36 0c0.53,9.02 3.07,15.95 7.67,20.74 4.58,4.79 10.32,7.2 17.17,7.2 5.11,0 9.47,-1.35 13.07,-4.05 3.63,-2.7 6.48,-7.01 8.6,-12.94zm-45.72 -22.38l45.88 0c-0.61,-6.93 -2.38,-12.12 -5.27,-15.58 -4.42,-5.37 -10.18,-8.07 -17.25,-8.07 -6.4,0 -11.77,2.14 -16.14,6.43 -4.34,4.28 -6.74,10.03 -7.22,17.22z"/>
  <path id="35" class="fil5" d="M2208.78 1043.76l0 -82.39 12.54 0 0 11.7c6.03,-8.97 14.76,-13.44 26.16,-13.44 4.97,0 9.53,0.9 13.68,2.67 4.16,1.77 7.28,4.13 9.34,7.01 2.06,2.88 3.52,6.33 4.34,10.29 0.5,2.6 0.77,7.12 0.77,13.57l0 50.59 -13.97 0 0 -50.06c0,-5.69 -0.53,-9.95 -1.61,-12.75 -1.09,-2.81 -3.02,-5.05 -5.77,-6.75 -2.75,-1.66 -6.01,-2.51 -9.71,-2.51 -5.93,0 -11.03,1.88 -15.35,5.66 -4.31,3.76 -6.46,10.93 -6.46,21.46l0 44.95 -13.97 0z"/>
  <path id="36" class="fil5" d="M2327.39 1031.3l1.91 12.33c-3.92,0.82 -7.43,1.24 -10.51,1.24 -5.05,0 -8.97,-0.8 -11.78,-2.41 -2.78,-1.61 -4.73,-3.7 -5.87,-6.32 -1.14,-2.62 -1.69,-8.12 -1.69,-16.51l0 -47.47 -10.32 0 0 -10.79 10.32 0 0 -20.37 13.97 -8.39 0 28.76 13.97 0 0 10.79 -13.97 0 0 48.26c0,4 0.24,6.56 0.74,7.7 0.47,1.14 1.27,2.04 2.38,2.73 1.11,0.66 2.7,1 4.76,1 1.53,0 3.57,-0.18 6.09,-0.56z"/>
  <path id="37" class="fil5" d="M2394.99 1033.44c-5.19,4.42 -10.19,7.51 -14.98,9.34 -4.79,1.83 -9.92,2.73 -15.43,2.73 -9.05,0 -16.01,-2.2 -20.88,-6.62 -4.87,-4.39 -7.3,-10.03 -7.3,-16.88 0,-4.02 0.92,-7.7 2.75,-11.03 1.85,-3.33 4.26,-5.98 7.22,-7.99 2.99,-2.01 6.32,-3.54 10.05,-4.58 2.75,-0.72 6.91,-1.4 12.43,-2.09 11.27,-1.32 19.61,-2.94 24.92,-4.79 0.05,-1.9 0.08,-3.12 0.08,-3.62 0,-5.66 -1.32,-9.66 -3.97,-11.99 -3.57,-3.15 -8.89,-4.71 -15.93,-4.71 -6.59,0 -11.45,1.17 -14.58,3.47 -3.15,2.3 -5.45,6.38 -6.96,12.25l-13.65 -1.91c1.24,-5.85 3.28,-10.58 6.14,-14.18 2.86,-3.6 6.99,-6.35 12.38,-8.31 5.37,-1.93 11.64,-2.91 18.73,-2.91 7.04,0 12.78,0.82 17.2,2.49 4.39,1.67 7.65,3.73 9.71,6.24 2.07,2.51 3.52,5.69 4.37,9.52 0.45,2.38 0.69,6.67 0.69,12.83l0 18.52c0,12.94 0.29,21.11 0.87,24.58 0.55,3.46 1.72,6.77 3.41,9.95l-14.61 0c-1.4,-2.94 -2.3,-6.38 -2.7,-10.32zm-1.11 -30.96c-5.08,2.06 -12.7,3.81 -22.86,5.24 -5.77,0.82 -9.84,1.75 -12.22,2.78 -2.38,1.03 -4.21,2.54 -5.51,4.5 -1.29,1.98 -1.96,4.18 -1.96,6.62 0,3.68 1.4,6.77 4.23,9.23 2.83,2.46 6.96,3.7 12.38,3.7 5.37,0 10.16,-1.16 14.37,-3.52 4.18,-2.33 7.28,-5.53 9.24,-9.58 1.51,-3.15 2.25,-7.78 2.25,-13.89l0.08 -5.08z"/>
  <path id="38" class="fil5" d="M2459.79 1031.3l1.91 12.33c-3.92,0.82 -7.43,1.24 -10.51,1.24 -5.05,0 -8.97,-0.8 -11.78,-2.41 -2.78,-1.61 -4.73,-3.7 -5.87,-6.32 -1.14,-2.62 -1.69,-8.12 -1.69,-16.51l0 -47.47 -10.32 0 0 -10.79 10.32 0 0 -20.37 13.97 -8.39 0 28.76 13.97 0 0 10.79 -13.97 0 0 48.26c0,4 0.24,6.56 0.74,7.7 0.47,1.14 1.27,2.04 2.38,2.73 1.11,0.66 2.7,1 4.76,1 1.53,0 3.57,-0.18 6.09,-0.56z"/>
  <path id="39" class="fil5" d="M2473.57 945.97l0 -15.88 13.97 0 0 15.88 -13.97 0zm0 97.79l0 -82.39 13.97 0 0 82.39 -13.97 0z"/>
  <path id="40" class="fil5" d="M2503.6 1002.57c0,-15.22 4.23,-26.49 12.72,-33.81 7.07,-6.09 15.72,-9.13 25.9,-9.13 11.3,0 20.56,3.71 27.76,11.11 7.17,7.38 10.77,17.62 10.77,30.67 0,10.58 -1.59,18.89 -4.76,24.95 -3.18,6.06 -7.81,10.77 -13.89,14.13 -6.06,3.36 -12.7,5.03 -19.87,5.03 -11.53,0 -20.85,-3.68 -27.97,-11.06 -7.12,-7.38 -10.66,-18.02 -10.66,-31.88zm14.29 0.02c0,10.53 2.3,18.42 6.91,23.63 4.63,5.24 10.43,7.86 17.43,7.86 6.93,0 12.7,-2.62 17.33,-7.88 4.61,-5.26 6.91,-13.28 6.91,-24.05 0,-10.16 -2.33,-17.86 -6.96,-23.07 -4.63,-5.24 -10.4,-7.86 -17.28,-7.86 -7.01,0 -12.8,2.6 -17.43,7.81 -4.61,5.21 -6.91,13.07 -6.91,23.57z"/>
  <path id="41" class="fil5" d="M2597.13 1043.76l0 -82.39 12.54 0 0 11.7c6.03,-8.97 14.76,-13.44 26.16,-13.44 4.97,0 9.53,0.9 13.68,2.67 4.16,1.77 7.28,4.13 9.34,7.01 2.06,2.88 3.52,6.33 4.34,10.29 0.5,2.6 0.77,7.12 0.77,13.57l0 50.59 -13.97 0 0 -50.06c0,-5.69 -0.53,-9.95 -1.61,-12.75 -1.09,-2.81 -3.02,-5.05 -5.77,-6.75 -2.75,-1.66 -6.01,-2.51 -9.71,-2.51 -5.93,0 -11.03,1.88 -15.35,5.66 -4.31,3.76 -6.45,10.93 -6.45,21.46l0 44.95 -13.97 0z"/>
  <path id="42" class="fil5" d="M2679.87 1019.16l13.81 -2.22c0.77,5.53 2.94,9.76 6.48,12.73 3.55,2.94 8.52,4.42 14.87,4.42 6.43,0 11.19,-1.3 14.31,-3.91 3.1,-2.59 4.66,-5.66 4.66,-9.18 0,-3.15 -1.4,-5.64 -4.18,-7.44 -1.96,-1.25 -6.72,-2.8 -14.29,-4.74 -10.21,-2.57 -17.28,-4.79 -21.25,-6.67 -3.94,-1.91 -6.93,-4.5 -8.97,-7.83 -2.04,-3.31 -3.07,-6.99 -3.07,-11.01 0,-3.68 0.85,-7.07 2.51,-10.19 1.69,-3.12 3.97,-5.72 6.86,-7.78 2.17,-1.59 5.13,-2.94 8.86,-4.05 3.76,-1.11 7.75,-1.67 12.04,-1.67 6.46,0 12.12,0.92 16.99,2.8 4.89,1.85 8.49,4.39 10.82,7.57 2.3,3.2 3.92,7.46 4.79,12.8l-13.65 1.9c-0.61,-4.29 -2.41,-7.65 -5.37,-10.05 -2.97,-2.41 -7.14,-3.6 -12.57,-3.6 -6.38,0 -10.95,1.06 -13.68,3.17 -2.72,2.12 -4.1,4.6 -4.1,7.43 0,1.8 0.55,3.44 1.69,4.9 1.14,1.48 2.91,2.72 5.35,3.7 1.4,0.53 5.47,1.72 12.3,3.57 9.84,2.62 16.72,4.79 20.64,6.46 3.91,1.66 6.98,4.13 9.21,7.3 2.25,3.2 3.36,7.17 3.36,11.93 0,4.63 -1.35,9 -4.08,13.09 -2.72,4.1 -6.64,7.28 -11.75,9.53 -5.13,2.25 -10.93,3.36 -17.38,3.36 -10.69,0 -18.86,-2.22 -24.47,-6.64 -5.61,-4.45 -9.18,-11.01 -10.74,-19.71z"/>
  <path class="fil6" d="M1608.88 438.81l0 -113.99 12.7 0 0 10.82c2.99,-4.18 6.38,-7.33 10.16,-9.42 3.76,-2.09 8.34,-3.15 13.7,-3.15 7.04,0 13.23,1.8 18.6,5.42 5.37,3.6 9.42,8.7 12.17,15.27 2.73,6.59 4.1,13.78 4.1,21.64 0,8.39 -1.51,15.96 -4.53,22.7 -3.02,6.72 -7.41,11.88 -13.17,15.48 -5.74,3.57 -11.8,5.37 -18.15,5.37 -4.66,0 -8.84,-0.98 -12.51,-2.94 -3.71,-1.96 -6.72,-4.42 -9.1,-7.41l0 40.19 -13.97 0zm12.7 -72.28c0,10.56 2.14,18.36 6.4,23.41 4.29,5.05 9.47,7.59 15.56,7.59 6.19,0 11.48,-2.62 15.88,-7.86 4.42,-5.24 6.62,-13.34 6.62,-24.32 0,-10.48 -2.14,-18.31 -6.45,-23.52 -4.31,-5.21 -9.45,-7.81 -15.42,-7.81 -5.93,0 -11.17,2.78 -15.72,8.31 -4.58,5.55 -6.85,13.6 -6.85,24.18z"/>
  <path id="1" class="fil6" d="M1697.01 407.22l0 -82.39 12.54 0 0 12.62c3.2,-5.85 6.16,-9.71 8.89,-11.56 2.73,-1.88 5.72,-2.81 8.97,-2.81 4.71,0 9.5,1.48 14.37,4.42l-4.97 12.88c-3.39,-1.9 -6.77,-2.86 -10.16,-2.86 -3.04,0 -5.77,0.93 -8.17,2.75 -2.41,1.83 -4.13,4.37 -5.16,7.62 -1.56,4.95 -2.33,10.37 -2.33,16.27l0 43.05 -13.97 0z"/>
  <path id="2" class="fil6" d="M1806.23 380.55l14.45 1.91c-2.25,8.39 -6.46,14.92 -12.6,19.55 -6.14,4.63 -13.97,6.96 -23.52,6.96 -12.01,0 -21.54,-3.7 -28.58,-11.12 -7.04,-7.38 -10.56,-17.78 -10.56,-31.14 0,-13.81 3.55,-24.55 10.66,-32.17 7.12,-7.65 16.35,-11.46 27.7,-11.46 10.98,0 19.95,3.73 26.91,11.22 6.96,7.49 10.45,18.02 10.45,31.59 0,0.82 -0.03,2.06 -0.08,3.7l-61.36 0c0.53,9.02 3.07,15.95 7.67,20.75 4.58,4.79 10.32,7.19 17.17,7.19 5.11,0 9.47,-1.35 13.07,-4.05 3.63,-2.7 6.48,-7.01 8.6,-12.94zm-45.72 -22.38l45.88 0c-0.61,-6.93 -2.38,-12.12 -5.27,-15.58 -4.42,-5.37 -10.18,-8.07 -17.25,-8.07 -6.4,0 -11.77,2.14 -16.14,6.43 -4.34,4.28 -6.74,10.03 -7.22,17.22z"/>
  <path id="3" class="fil6" d="M1832.77 382.61l13.81 -2.22c0.77,5.53 2.94,9.76 6.48,12.73 3.54,2.94 8.52,4.42 14.87,4.42 6.43,0 11.19,-1.29 14.31,-3.91 3.1,-2.59 4.66,-5.66 4.66,-9.18 0,-3.15 -1.4,-5.64 -4.18,-7.44 -1.96,-1.25 -6.72,-2.8 -14.29,-4.74 -10.21,-2.57 -17.28,-4.79 -21.25,-6.67 -3.94,-1.9 -6.93,-4.5 -8.97,-7.83 -2.04,-3.31 -3.07,-6.99 -3.07,-11.01 0,-3.68 0.85,-7.07 2.51,-10.19 1.69,-3.12 3.97,-5.72 6.86,-7.78 2.17,-1.59 5.13,-2.94 8.86,-4.05 3.76,-1.11 7.75,-1.67 12.04,-1.67 6.46,0 12.12,0.92 16.99,2.81 4.89,1.85 8.49,4.39 10.82,7.57 2.3,3.2 3.92,7.46 4.79,12.8l-13.65 1.9c-0.61,-4.29 -2.41,-7.65 -5.37,-10.05 -2.96,-2.41 -7.14,-3.6 -12.57,-3.6 -6.38,0 -10.95,1.06 -13.68,3.17 -2.72,2.12 -4.1,4.6 -4.1,7.43 0,1.8 0.56,3.44 1.69,4.9 1.14,1.48 2.91,2.72 5.35,3.7 1.4,0.53 5.48,1.72 12.3,3.57 9.84,2.62 16.72,4.79 20.64,6.46 3.91,1.66 6.98,4.13 9.21,7.3 2.25,3.2 3.36,7.17 3.36,11.93 0,4.63 -1.35,9 -4.08,13.1 -2.73,4.1 -6.64,7.28 -11.75,9.52 -5.13,2.25 -10.93,3.36 -17.38,3.36 -10.69,0 -18.87,-2.23 -24.47,-6.64 -5.61,-4.45 -9.18,-11.01 -10.74,-19.71z"/>
  <path id="4" class="fil6" d="M1973.9 380.55l14.45 1.91c-2.25,8.39 -6.46,14.92 -12.6,19.55 -6.14,4.63 -13.97,6.96 -23.52,6.96 -12.01,0 -21.54,-3.7 -28.58,-11.12 -7.04,-7.38 -10.56,-17.78 -10.56,-31.14 0,-13.81 3.55,-24.55 10.66,-32.17 7.12,-7.65 16.35,-11.46 27.7,-11.46 10.98,0 19.95,3.73 26.91,11.22 6.96,7.49 10.45,18.02 10.45,31.59 0,0.82 -0.03,2.06 -0.08,3.7l-61.36 0c0.53,9.02 3.07,15.95 7.67,20.75 4.58,4.79 10.32,7.19 17.17,7.19 5.11,0 9.47,-1.35 13.07,-4.05 3.63,-2.7 6.48,-7.01 8.6,-12.94zm-45.72 -22.38l45.88 0c-0.61,-6.93 -2.38,-12.12 -5.27,-15.58 -4.42,-5.37 -10.18,-8.07 -17.25,-8.07 -6.4,0 -11.77,2.14 -16.14,6.43 -4.34,4.28 -6.74,10.03 -7.22,17.22z"/>
  <path id="5" class="fil6" d="M2006 407.22l0 -82.39 12.54 0 0 11.7c6.03,-8.97 14.76,-13.44 26.17,-13.44 4.98,0 9.52,0.9 13.68,2.67 4.15,1.77 7.27,4.13 9.34,7.01 2.06,2.88 3.52,6.33 4.34,10.29 0.5,2.6 0.77,7.12 0.77,13.58l0 50.59 -13.97 0 0 -50.06c0,-5.69 -0.53,-9.95 -1.62,-12.75 -1.09,-2.81 -3.02,-5.05 -5.77,-6.75 -2.75,-1.66 -6.01,-2.51 -9.71,-2.51 -5.93,0 -11.03,1.88 -15.35,5.66 -4.31,3.76 -6.45,10.93 -6.45,21.46l0 44.95 -13.97 0z"/>
  <path id="6" class="fil6" d="M2124.61 394.75l1.9 12.33c-3.92,0.82 -7.43,1.25 -10.5,1.25 -5.05,0 -8.97,-0.79 -11.78,-2.41 -2.78,-1.61 -4.74,-3.7 -5.87,-6.32 -1.14,-2.62 -1.69,-8.12 -1.69,-16.51l0 -47.47 -10.32 0 0 -10.79 10.32 0 0 -20.37 13.97 -8.39 0 28.76 13.97 0 0 10.79 -13.97 0 0 48.26c0,4 0.24,6.56 0.74,7.7 0.47,1.14 1.27,2.04 2.38,2.73 1.11,0.66 2.7,1 4.76,1 1.53,0 3.57,-0.18 6.09,-0.55z"/>
  <path id="7" class="fil6" d="M2192.21 396.9c-5.19,4.42 -10.19,7.51 -14.98,9.34 -4.79,1.83 -9.92,2.73 -15.43,2.73 -9.05,0 -16.01,-2.2 -20.88,-6.62 -4.87,-4.39 -7.3,-10.03 -7.3,-16.88 0,-4.02 0.92,-7.7 2.75,-11.03 1.85,-3.33 4.26,-5.98 7.22,-7.99 2.99,-2.01 6.32,-3.54 10.06,-4.58 2.75,-0.72 6.9,-1.4 12.43,-2.09 11.27,-1.32 19.61,-2.94 24.92,-4.79 0.05,-1.9 0.08,-3.12 0.08,-3.62 0,-5.66 -1.32,-9.66 -3.97,-11.99 -3.57,-3.15 -8.89,-4.71 -15.93,-4.71 -6.59,0 -11.46,1.17 -14.58,3.47 -3.15,2.3 -5.45,6.38 -6.96,12.25l-13.65 -1.91c1.24,-5.85 3.28,-10.58 6.14,-14.18 2.86,-3.6 6.99,-6.35 12.38,-8.31 5.37,-1.93 11.64,-2.91 18.73,-2.91 7.04,0 12.78,0.82 17.2,2.49 4.39,1.67 7.65,3.73 9.71,6.24 2.07,2.51 3.52,5.69 4.36,9.52 0.45,2.38 0.69,6.67 0.69,12.83l0 18.52c0,12.94 0.29,21.11 0.87,24.58 0.56,3.46 1.72,6.77 3.41,9.95l-14.61 0c-1.4,-2.94 -2.3,-6.38 -2.7,-10.32zm-1.11 -30.95c-5.08,2.06 -12.7,3.81 -22.86,5.24 -5.77,0.82 -9.84,1.75 -12.22,2.78 -2.38,1.03 -4.21,2.54 -5.5,4.5 -1.3,1.99 -1.96,4.18 -1.96,6.62 0,3.68 1.4,6.77 4.23,9.23 2.83,2.46 6.96,3.71 12.38,3.71 5.37,0 10.16,-1.17 14.37,-3.52 4.18,-2.33 7.28,-5.53 9.23,-9.58 1.51,-3.15 2.25,-7.78 2.25,-13.89l0.08 -5.08z"/>
  <path id="8" class="fil6" d="M2257.01 394.75l1.9 12.33c-3.92,0.82 -7.43,1.25 -10.5,1.25 -5.05,0 -8.97,-0.79 -11.78,-2.41 -2.78,-1.61 -4.74,-3.7 -5.87,-6.32 -1.14,-2.62 -1.69,-8.12 -1.69,-16.51l0 -47.47 -10.32 0 0 -10.79 10.32 0 0 -20.37 13.97 -8.39 0 28.76 13.97 0 0 10.79 -13.97 0 0 48.26c0,4 0.24,6.56 0.74,7.7 0.47,1.14 1.27,2.04 2.38,2.73 1.11,0.66 2.7,1 4.76,1 1.53,0 3.57,-0.18 6.09,-0.55z"/>
  <path id="9" class="fil6" d="M2270.79 309.43l0 -15.88 13.97 0 0 15.88 -13.97 0zm0 97.79l0 -82.39 13.97 0 0 82.39 -13.97 0z"/>
  <path id="10" class="fil6" d="M2300.82 366.02c0,-15.22 4.23,-26.49 12.72,-33.81 7.07,-6.09 15.72,-9.13 25.9,-9.13 11.3,0 20.56,3.71 27.75,11.11 7.17,7.38 10.77,17.62 10.77,30.67 0,10.58 -1.59,18.89 -4.76,24.95 -3.18,6.06 -7.81,10.77 -13.89,14.13 -6.06,3.36 -12.7,5.03 -19.87,5.03 -11.54,0 -20.85,-3.68 -27.97,-11.06 -7.12,-7.38 -10.66,-18.02 -10.66,-31.88zm14.29 0.02c0,10.53 2.3,18.42 6.9,23.63 4.63,5.24 10.43,7.86 17.44,7.86 6.93,0 12.7,-2.62 17.33,-7.88 4.61,-5.26 6.91,-13.28 6.91,-24.05 0,-10.16 -2.33,-17.86 -6.96,-23.07 -4.63,-5.24 -10.4,-7.86 -17.28,-7.86 -7.01,0 -12.81,2.6 -17.44,7.81 -4.6,5.21 -6.9,13.07 -6.9,23.57z"/>
  <path id="11" class="fil6" d="M2394.35 407.22l0 -82.39 12.54 0 0 11.7c6.03,-8.97 14.76,-13.44 26.16,-13.44 4.98,0 9.53,0.9 13.68,2.67 4.15,1.77 7.27,4.13 9.34,7.01 2.06,2.88 3.52,6.33 4.34,10.29 0.5,2.6 0.77,7.12 0.77,13.58l0 50.59 -13.97 0 0 -50.06c0,-5.69 -0.53,-9.95 -1.62,-12.75 -1.08,-2.81 -3.02,-5.05 -5.77,-6.75 -2.75,-1.66 -6.01,-2.51 -9.71,-2.51 -5.93,0 -11.03,1.88 -15.35,5.66 -4.31,3.76 -6.45,10.93 -6.45,21.46l0 44.95 -13.97 0z"/>
  <polygon id="12" class="fil6" points="2526.43,407.22 2526.43,293.55 2540.4,293.55 2540.4,407.22 "/>
  <path id="13" class="fil6" d="M2615.84 396.9c-5.19,4.42 -10.19,7.51 -14.98,9.34 -4.79,1.83 -9.92,2.73 -15.43,2.73 -9.05,0 -16.01,-2.2 -20.88,-6.62 -4.87,-4.39 -7.3,-10.03 -7.3,-16.88 0,-4.02 0.93,-7.7 2.75,-11.03 1.85,-3.33 4.26,-5.98 7.22,-7.99 2.99,-2.01 6.32,-3.54 10.05,-4.58 2.75,-0.72 6.91,-1.4 12.44,-2.09 11.27,-1.32 19.6,-2.94 24.92,-4.79 0.05,-1.9 0.08,-3.12 0.08,-3.62 0,-5.66 -1.32,-9.66 -3.97,-11.99 -3.57,-3.15 -8.89,-4.71 -15.93,-4.71 -6.59,0 -11.45,1.17 -14.58,3.47 -3.15,2.3 -5.45,6.38 -6.96,12.25l-13.65 -1.91c1.24,-5.85 3.28,-10.58 6.14,-14.18 2.86,-3.6 6.99,-6.35 12.38,-8.31 5.37,-1.93 11.64,-2.91 18.73,-2.91 7.04,0 12.78,0.82 17.2,2.49 4.39,1.67 7.65,3.73 9.71,6.24 2.07,2.51 3.52,5.69 4.37,9.52 0.45,2.38 0.69,6.67 0.69,12.83l0 18.52c0,12.94 0.29,21.11 0.87,24.58 0.55,3.46 1.72,6.77 3.41,9.95l-14.6 0c-1.4,-2.94 -2.3,-6.38 -2.7,-10.32zm-1.11 -30.95c-5.08,2.06 -12.7,3.81 -22.86,5.24 -5.77,0.82 -9.84,1.75 -12.22,2.78 -2.38,1.03 -4.21,2.54 -5.51,4.5 -1.3,1.99 -1.96,4.18 -1.96,6.62 0,3.68 1.4,6.77 4.23,9.23 2.83,2.46 6.96,3.71 12.38,3.71 5.37,0 10.16,-1.17 14.37,-3.52 4.18,-2.33 7.28,-5.53 9.24,-9.58 1.51,-3.15 2.25,-7.78 2.25,-13.89l0.08 -5.08z"/>
  <path id="14" class="fil6" d="M2649.68 438.89l-1.59 -12.91c3.07,0.82 5.72,1.24 7.99,1.24 3.12,0 5.61,-0.53 7.46,-1.56 1.88,-1.03 3.41,-2.49 4.6,-4.34 0.87,-1.4 2.3,-4.87 4.26,-10.42 0.26,-0.77 0.66,-1.91 1.24,-3.41l-31.28 -82.66 14.92 0 17.2 47.57c2.25,6.01 4.23,12.36 6.01,19.02 1.61,-6.27 3.52,-12.46 5.74,-18.55l17.57 -48.05 13.94 0 -31.14 83.82c-3.36,9.02 -5.98,15.21 -7.86,18.63 -2.49,4.58 -5.34,7.94 -8.55,10.08 -3.23,2.14 -7.07,3.2 -11.51,3.2 -2.7,0 -5.72,-0.56 -9.02,-1.67z"/>
  <path id="15" class="fil6" d="M2785.89 380.55l14.45 1.91c-2.25,8.39 -6.46,14.92 -12.59,19.55 -6.14,4.63 -13.97,6.96 -23.52,6.96 -12.01,0 -21.54,-3.7 -28.57,-11.12 -7.04,-7.38 -10.56,-17.78 -10.56,-31.14 0,-13.81 3.55,-24.55 10.66,-32.17 7.12,-7.65 16.35,-11.46 27.7,-11.46 10.98,0 19.95,3.73 26.91,11.22 6.96,7.49 10.45,18.02 10.45,31.59 0,0.82 -0.03,2.06 -0.08,3.7l-61.36 0c0.53,9.02 3.07,15.95 7.67,20.75 4.58,4.79 10.32,7.19 17.17,7.19 5.11,0 9.47,-1.35 13.07,-4.05 3.63,-2.7 6.48,-7.01 8.6,-12.94zm-45.72 -22.38l45.88 0c-0.61,-6.93 -2.38,-12.12 -5.27,-15.58 -4.42,-5.37 -10.18,-8.07 -17.25,-8.07 -6.4,0 -11.77,2.14 -16.14,6.43 -4.34,4.28 -6.74,10.03 -7.22,17.22z"/>
  <path id="16" class="fil6" d="M2817.82 407.22l0 -82.39 12.54 0 0 12.62c3.2,-5.85 6.16,-9.71 8.89,-11.56 2.73,-1.88 5.72,-2.81 8.97,-2.81 4.71,0 9.5,1.48 14.37,4.42l-4.97 12.88c-3.39,-1.9 -6.77,-2.86 -10.16,-2.86 -3.04,0 -5.77,0.93 -8.18,2.75 -2.41,1.83 -4.13,4.37 -5.16,7.62 -1.56,4.95 -2.33,10.37 -2.33,16.27l0 43.05 -13.97 0z"/>
  <path id="17" class="fil6" d="M1608.88 486.78l0 -15.88 13.97 0 0 15.88 -13.97 0zm0 97.79l0 -82.39 13.97 0 0 82.39 -13.97 0z"/>
  <path id="18" class="fil6" d="M1644.15 584.57l0 -82.39 12.54 0 0 11.64c2.56,-4.02 6,-7.28 10.29,-9.71 4.29,-2.46 9.15,-3.68 14.63,-3.68 6.09,0 11.09,1.27 14.98,3.78 3.89,2.54 6.64,6.06 8.23,10.61 6.56,-9.6 15.06,-14.39 25.53,-14.39 8.2,0 14.53,2.25 18.92,6.77 4.42,4.52 6.64,11.48 6.64,20.88l0 56.49 -13.97 0 0 -51.86c0,-5.56 -0.47,-9.58 -1.38,-12.04 -0.9,-2.46 -2.54,-4.42 -4.95,-5.93 -2.38,-1.51 -5.19,-2.25 -8.39,-2.25 -5.82,0 -10.64,1.93 -14.47,5.77 -3.84,3.86 -5.74,10.03 -5.74,18.49l0 47.81 -13.97 0 0 -53.47c0,-6.19 -1.14,-10.85 -3.41,-13.94 -2.27,-3.1 -6.01,-4.66 -11.16,-4.66 -3.92,0 -7.54,1.03 -10.88,3.1 -3.34,2.07 -5.74,5.08 -7.25,9.08 -1.48,3.97 -2.22,9.71 -2.22,17.2l0 42.71 -13.97 0z"/>
  <path id="19" class="fil6" d="M1776.39 616.16l0 -113.99 12.7 0 0 10.82c2.99,-4.18 6.38,-7.33 10.16,-9.42 3.76,-2.09 8.34,-3.15 13.7,-3.15 7.04,0 13.23,1.8 18.6,5.43 5.37,3.6 9.42,8.7 12.17,15.26 2.73,6.59 4.1,13.79 4.1,21.64 0,8.39 -1.51,15.95 -4.53,22.7 -3.01,6.72 -7.41,11.88 -13.17,15.48 -5.74,3.57 -11.8,5.37 -18.15,5.37 -4.66,0 -8.84,-0.98 -12.51,-2.94 -3.71,-1.96 -6.72,-4.42 -9.1,-7.41l0 40.19 -13.97 0zm12.7 -72.28c0,10.56 2.14,18.36 6.4,23.41 4.29,5.05 9.47,7.59 15.56,7.59 6.19,0 11.48,-2.62 15.88,-7.86 4.42,-5.24 6.62,-13.33 6.62,-24.31 0,-10.48 -2.14,-18.31 -6.45,-23.52 -4.31,-5.21 -9.45,-7.81 -15.42,-7.81 -5.93,0 -11.17,2.78 -15.72,8.31 -4.58,5.55 -6.85,13.6 -6.85,24.18z"/>
  <polygon id="20" class="fil6" points="1864.36,584.57 1864.36,470.9 1878.33,470.9 1878.33,584.57 "/>
  <path id="21" class="fil6" d="M1956.15 557.9l14.45 1.9c-2.25,8.39 -6.46,14.92 -12.6,19.55 -6.14,4.63 -13.97,6.96 -23.52,6.96 -12.01,0 -21.54,-3.71 -28.58,-11.12 -7.04,-7.38 -10.55,-17.78 -10.55,-31.14 0,-13.81 3.54,-24.55 10.66,-32.17 7.12,-7.65 16.35,-11.46 27.7,-11.46 10.98,0 19.95,3.73 26.91,11.22 6.96,7.49 10.45,18.02 10.45,31.59 0,0.82 -0.03,2.06 -0.08,3.7l-61.36 0c0.53,9.02 3.07,15.96 7.67,20.75 4.58,4.79 10.32,7.19 17.17,7.19 5.11,0 9.47,-1.35 13.07,-4.05 3.63,-2.7 6.48,-7.01 8.6,-12.94zm-45.72 -22.38l45.88 0c-0.61,-6.93 -2.38,-12.12 -5.27,-15.58 -4.42,-5.37 -10.18,-8.07 -17.25,-8.07 -6.4,0 -11.77,2.14 -16.14,6.43 -4.34,4.29 -6.75,10.03 -7.22,17.22z"/>
  <path id="22" class="fil6" d="M1988.24 584.57l0 -82.39 12.54 0 0 11.64c2.56,-4.02 6,-7.28 10.29,-9.71 4.29,-2.46 9.15,-3.68 14.63,-3.68 6.09,0 11.09,1.27 14.98,3.78 3.89,2.54 6.64,6.06 8.23,10.61 6.56,-9.6 15.06,-14.39 25.53,-14.39 8.2,0 14.53,2.25 18.92,6.77 4.42,4.52 6.64,11.48 6.64,20.88l0 56.49 -13.97 0 0 -51.86c0,-5.56 -0.47,-9.58 -1.38,-12.04 -0.9,-2.46 -2.54,-4.42 -4.95,-5.93 -2.38,-1.51 -5.19,-2.25 -8.39,-2.25 -5.82,0 -10.64,1.93 -14.47,5.77 -3.84,3.86 -5.74,10.03 -5.74,18.49l0 47.81 -13.97 0 0 -53.47c0,-6.19 -1.14,-10.85 -3.41,-13.94 -2.27,-3.1 -6.01,-4.66 -11.16,-4.66 -3.92,0 -7.54,1.03 -10.88,3.1 -3.34,2.07 -5.74,5.08 -7.25,9.08 -1.48,3.97 -2.22,9.71 -2.22,17.2l0 42.71 -13.97 0z"/>
  <path id="23" class="fil6" d="M2176.68 557.9l14.45 1.9c-2.25,8.39 -6.46,14.92 -12.59,19.55 -6.14,4.63 -13.97,6.96 -23.52,6.96 -12.01,0 -21.54,-3.71 -28.58,-11.12 -7.04,-7.38 -10.55,-17.78 -10.55,-31.14 0,-13.81 3.55,-24.55 10.66,-32.17 7.12,-7.65 16.35,-11.46 27.7,-11.46 10.98,0 19.95,3.73 26.91,11.22 6.96,7.49 10.45,18.02 10.45,31.59 0,0.82 -0.03,2.06 -0.08,3.7l-61.36 0c0.53,9.02 3.07,15.96 7.67,20.75 4.58,4.79 10.32,7.19 17.17,7.19 5.11,0 9.47,-1.35 13.07,-4.05 3.63,-2.7 6.48,-7.01 8.6,-12.94zm-45.72 -22.38l45.88 0c-0.61,-6.93 -2.38,-12.12 -5.27,-15.58 -4.42,-5.37 -10.18,-8.07 -17.25,-8.07 -6.4,0 -11.77,2.14 -16.14,6.43 -4.34,4.29 -6.74,10.03 -7.22,17.22z"/>
  <path id="24" class="fil6" d="M2208.78 584.57l0 -82.39 12.54 0 0 11.69c6.03,-8.97 14.76,-13.44 26.16,-13.44 4.97,0 9.53,0.9 13.68,2.67 4.16,1.77 7.28,4.13 9.34,7.01 2.06,2.88 3.52,6.33 4.34,10.29 0.5,2.6 0.77,7.12 0.77,13.58l0 50.59 -13.97 0 0 -50.06c0,-5.69 -0.53,-9.95 -1.61,-12.75 -1.09,-2.8 -3.02,-5.05 -5.77,-6.75 -2.75,-1.66 -6.01,-2.51 -9.71,-2.51 -5.93,0 -11.03,1.88 -15.35,5.66 -4.31,3.76 -6.46,10.93 -6.46,21.46l0 44.95 -13.97 0z"/>
  <path id="25" class="fil6" d="M2327.39 572.1l1.91 12.33c-3.92,0.82 -7.43,1.25 -10.51,1.25 -5.05,0 -8.97,-0.8 -11.78,-2.41 -2.78,-1.61 -4.73,-3.7 -5.87,-6.32 -1.14,-2.62 -1.69,-8.12 -1.69,-16.51l0 -47.47 -10.32 0 0 -10.8 10.32 0 0 -20.37 13.97 -8.39 0 28.76 13.97 0 0 10.8 -13.97 0 0 48.26c0,4 0.24,6.56 0.74,7.7 0.47,1.14 1.27,2.04 2.38,2.72 1.11,0.66 2.7,1 4.76,1 1.53,0 3.57,-0.19 6.09,-0.55z"/>
  <path id="26" class="fil6" d="M2394.99 574.25c-5.19,4.42 -10.19,7.52 -14.98,9.34 -4.79,1.83 -9.92,2.73 -15.43,2.73 -9.05,0 -16.01,-2.2 -20.88,-6.62 -4.87,-4.39 -7.3,-10.03 -7.3,-16.88 0,-4.02 0.92,-7.7 2.75,-11.03 1.85,-3.33 4.26,-5.98 7.22,-7.99 2.99,-2.01 6.32,-3.54 10.05,-4.58 2.75,-0.71 6.91,-1.4 12.43,-2.09 11.27,-1.32 19.61,-2.94 24.92,-4.79 0.05,-1.91 0.08,-3.12 0.08,-3.62 0,-5.66 -1.32,-9.66 -3.97,-11.99 -3.57,-3.15 -8.89,-4.71 -15.93,-4.71 -6.59,0 -11.45,1.16 -14.58,3.47 -3.15,2.3 -5.45,6.38 -6.96,12.25l-13.65 -1.9c1.24,-5.85 3.28,-10.58 6.14,-14.18 2.86,-3.6 6.99,-6.35 12.38,-8.31 5.37,-1.93 11.64,-2.91 18.73,-2.91 7.04,0 12.78,0.82 17.2,2.49 4.39,1.67 7.65,3.73 9.71,6.24 2.07,2.51 3.52,5.69 4.37,9.52 0.45,2.38 0.69,6.67 0.69,12.83l0 18.52c0,12.94 0.29,21.11 0.87,24.58 0.55,3.47 1.72,6.77 3.41,9.95l-14.61 0c-1.4,-2.94 -2.3,-6.38 -2.7,-10.32zm-1.11 -30.95c-5.08,2.06 -12.7,3.81 -22.86,5.24 -5.77,0.82 -9.84,1.75 -12.22,2.78 -2.38,1.03 -4.21,2.54 -5.51,4.5 -1.29,1.99 -1.96,4.18 -1.96,6.61 0,3.68 1.4,6.77 4.23,9.23 2.83,2.46 6.96,3.7 12.38,3.7 5.37,0 10.16,-1.16 14.37,-3.52 4.18,-2.33 7.28,-5.53 9.24,-9.58 1.51,-3.15 2.25,-7.78 2.25,-13.89l0.08 -5.08z"/>
  <path id="27" class="fil6" d="M2459.79 572.1l1.91 12.33c-3.92,0.82 -7.43,1.25 -10.51,1.25 -5.05,0 -8.97,-0.8 -11.78,-2.41 -2.78,-1.61 -4.73,-3.7 -5.87,-6.32 -1.14,-2.62 -1.69,-8.12 -1.69,-16.51l0 -47.47 -10.32 0 0 -10.8 10.32 0 0 -20.37 13.97 -8.39 0 28.76 13.97 0 0 10.8 -13.97 0 0 48.26c0,4 0.24,6.56 0.74,7.7 0.47,1.14 1.27,2.04 2.38,2.72 1.11,0.66 2.7,1 4.76,1 1.53,0 3.57,-0.19 6.09,-0.55z"/>
  <path id="28" class="fil6" d="M2473.57 486.78l0 -15.88 13.97 0 0 15.88 -13.97 0zm0 97.79l0 -82.39 13.97 0 0 82.39 -13.97 0z"/>
  <path id="29" class="fil6" d="M2503.6 543.37c0,-15.21 4.23,-26.48 12.72,-33.81 7.07,-6.08 15.72,-9.13 25.9,-9.13 11.3,0 20.56,3.71 27.76,11.11 7.17,7.38 10.77,17.62 10.77,30.67 0,10.58 -1.59,18.89 -4.76,24.95 -3.18,6.06 -7.81,10.77 -13.89,14.13 -6.06,3.36 -12.7,5.03 -19.87,5.03 -11.53,0 -20.85,-3.68 -27.97,-11.06 -7.12,-7.38 -10.66,-18.02 -10.66,-31.88zm14.29 0.03c0,10.53 2.3,18.41 6.91,23.63 4.63,5.24 10.43,7.86 17.43,7.86 6.93,0 12.7,-2.62 17.33,-7.88 4.61,-5.27 6.91,-13.28 6.91,-24.05 0,-10.16 -2.33,-17.86 -6.96,-23.07 -4.63,-5.24 -10.4,-7.86 -17.28,-7.86 -7.01,0 -12.8,2.6 -17.43,7.81 -4.61,5.21 -6.91,13.07 -6.91,23.57z"/>
  <path id="30" class="fil6" d="M2597.13 584.57l0 -82.39 12.54 0 0 11.69c6.03,-8.97 14.76,-13.44 26.16,-13.44 4.97,0 9.53,0.9 13.68,2.67 4.16,1.77 7.28,4.13 9.34,7.01 2.06,2.88 3.52,6.33 4.34,10.29 0.5,2.6 0.77,7.12 0.77,13.58l0 50.59 -13.97 0 0 -50.06c0,-5.69 -0.53,-9.95 -1.61,-12.75 -1.09,-2.8 -3.02,-5.05 -5.77,-6.75 -2.75,-1.66 -6.01,-2.51 -9.71,-2.51 -5.93,0 -11.03,1.88 -15.35,5.66 -4.31,3.76 -6.45,10.93 -6.45,21.46l0 44.95 -13.97 0z"/>
  <path id="31" class="fil6" d="M2679.87 559.96l13.81 -2.22c0.77,5.53 2.94,9.77 6.48,12.73 3.55,2.94 8.52,4.42 14.87,4.42 6.43,0 11.19,-1.29 14.31,-3.91 3.1,-2.59 4.66,-5.66 4.66,-9.18 0,-3.15 -1.4,-5.64 -4.18,-7.43 -1.96,-1.25 -6.72,-2.81 -14.29,-4.74 -10.21,-2.57 -17.28,-4.79 -21.25,-6.67 -3.94,-1.9 -6.93,-4.5 -8.97,-7.83 -2.04,-3.31 -3.07,-6.99 -3.07,-11.01 0,-3.68 0.85,-7.06 2.51,-10.19 1.69,-3.12 3.97,-5.71 6.86,-7.78 2.17,-1.59 5.13,-2.94 8.86,-4.05 3.76,-1.11 7.75,-1.67 12.04,-1.67 6.46,0 12.12,0.93 16.99,2.81 4.89,1.85 8.49,4.39 10.82,7.57 2.3,3.2 3.92,7.46 4.79,12.81l-13.65 1.91c-0.61,-4.29 -2.41,-7.65 -5.37,-10.06 -2.97,-2.41 -7.14,-3.6 -12.57,-3.6 -6.38,0 -10.95,1.06 -13.68,3.18 -2.72,2.12 -4.1,4.6 -4.1,7.44 0,1.8 0.55,3.44 1.69,4.89 1.14,1.48 2.91,2.72 5.35,3.7 1.4,0.53 5.47,1.72 12.3,3.57 9.84,2.62 16.72,4.79 20.64,6.46 3.91,1.67 6.98,4.13 9.21,7.3 2.25,3.2 3.36,7.17 3.36,11.93 0,4.63 -1.35,9 -4.08,13.1 -2.72,4.1 -6.64,7.28 -11.75,9.52 -5.13,2.25 -10.93,3.36 -17.38,3.36 -10.69,0 -18.86,-2.23 -24.47,-6.64 -5.61,-4.44 -9.18,-11.01 -10.74,-19.71z"/>
  <path class="fil7 str0" d="M749.03 947.52l441.53 0c0,-243.85 -197.68,-441.53 -441.53,-441.53 -243.85,0 -441.53,197.68 -441.53,441.53 0,243.85 197.68,441.52 441.53,441.52l0 -441.52z"/>
  <path class="fil8 str0" d="M749.03 947.52l0 441.52c243.85,0 441.53,-197.68 441.53,-441.52l-441.53 0z"/>
  <circle class="fil9 str0" transform="matrix(1.85392E-14 -0.7 0.7 1.85392E-14 749.033 947.518)" r="441.53"/>
  <path class="fil10" d="M1616.18 1605.47l-1.59 -12.91c3.07,0.82 5.71,1.24 7.99,1.24 3.12,0 5.61,-0.53 7.46,-1.56 1.88,-1.03 3.41,-2.49 4.6,-4.34 0.87,-1.4 2.3,-4.87 4.26,-10.42 0.26,-0.77 0.66,-1.9 1.24,-3.41l-31.27 -82.66 14.92 0 17.2 47.57c2.25,6.01 4.24,12.36 6.01,19.03 1.61,-6.27 3.52,-12.46 5.74,-18.55l17.57 -48.05 13.94 0 -31.14 83.82c-3.36,9.02 -5.98,15.21 -7.86,18.63 -2.49,4.58 -5.35,7.94 -8.55,10.08 -3.23,2.14 -7.06,3.2 -11.51,3.2 -2.7,0 -5.71,-0.55 -9.02,-1.67z"/>
  <path id="1" class="fil10" d="M1690.95 1532.6c0,-15.22 4.23,-26.49 12.73,-33.82 7.07,-6.09 15.72,-9.13 25.9,-9.13 11.3,0 20.56,3.7 27.76,11.11 7.17,7.38 10.77,17.62 10.77,30.66 0,10.58 -1.59,18.89 -4.76,24.95 -3.17,6.06 -7.81,10.77 -13.89,14.13 -6.06,3.36 -12.7,5.03 -19.87,5.03 -11.53,0 -20.85,-3.68 -27.96,-11.06 -7.12,-7.38 -10.66,-18.02 -10.66,-31.88zm14.29 0.03c0,10.53 2.3,18.41 6.9,23.63 4.63,5.24 10.42,7.86 17.43,7.86 6.93,0 12.7,-2.62 17.33,-7.88 4.61,-5.27 6.91,-13.28 6.91,-24.05 0,-10.16 -2.33,-17.86 -6.96,-23.07 -4.63,-5.24 -10.4,-7.86 -17.28,-7.86 -7.01,0 -12.8,2.59 -17.43,7.81 -4.61,5.21 -6.9,13.07 -6.9,23.57z"/>
  <path id="2" class="fil10" d="M1838.3 1573.8l0 -12.25c-6.4,9.34 -15.08,14 -26.06,14 -4.84,0 -9.37,-0.93 -13.57,-2.78 -4.21,-1.88 -7.33,-4.21 -9.37,-7.01 -2.04,-2.83 -3.46,-6.27 -4.28,-10.35 -0.56,-2.75 -0.85,-7.09 -0.85,-13.02l0 -50.99 13.97 0 0 45.59c0,7.28 0.29,12.2 0.85,14.71 0.87,3.68 2.72,6.53 5.58,8.63 2.83,2.09 6.32,3.15 10.5,3.15 4.18,0 8.1,-1.06 11.75,-3.2 3.65,-2.14 6.24,-5.08 7.78,-8.76 1.51,-3.68 2.27,-9.05 2.27,-16.06l0 -44.06 13.97 0 0 82.39 -12.54 0z"/>
  <path id="3" class="fil10" d="M1872.62 1573.8l0 -82.39 12.54 0 0 12.62c3.2,-5.85 6.16,-9.71 8.89,-11.56 2.73,-1.88 5.72,-2.81 8.97,-2.81 4.71,0 9.5,1.48 14.37,4.42l-4.97 12.88c-3.39,-1.9 -6.77,-2.86 -10.16,-2.86 -3.04,0 -5.77,0.93 -8.17,2.75 -2.41,1.83 -4.13,4.37 -5.16,7.62 -1.56,4.95 -2.33,10.37 -2.33,16.27l0 43.05 -13.97 0z"/>
  <path id="4" class="fil10" d="M1969.75 1605.39l0 -113.99 12.7 0 0 10.82c2.99,-4.18 6.38,-7.33 10.16,-9.42 3.76,-2.09 8.34,-3.15 13.7,-3.15 7.04,0 13.23,1.8 18.6,5.43 5.37,3.6 9.42,8.7 12.17,15.26 2.73,6.59 4.1,13.78 4.1,21.64 0,8.39 -1.51,15.95 -4.53,22.7 -3.02,6.72 -7.41,11.88 -13.17,15.48 -5.74,3.57 -11.8,5.37 -18.15,5.37 -4.66,0 -8.84,-0.98 -12.51,-2.94 -3.71,-1.96 -6.72,-4.42 -9.1,-7.41l0 40.19 -13.97 0zm12.7 -72.28c0,10.56 2.14,18.36 6.4,23.41 4.29,5.05 9.47,7.59 15.56,7.59 6.19,0 11.48,-2.62 15.88,-7.86 4.42,-5.24 6.62,-13.34 6.62,-24.31 0,-10.48 -2.14,-18.31 -6.45,-23.52 -4.31,-5.21 -9.45,-7.81 -15.42,-7.81 -5.93,0 -11.17,2.78 -15.72,8.31 -4.58,5.56 -6.85,13.6 -6.85,24.18z"/>
  <path id="5" class="fil10" d="M2057.88 1573.8l0 -82.39 12.54 0 0 12.62c3.2,-5.85 6.16,-9.71 8.89,-11.56 2.72,-1.88 5.72,-2.81 8.97,-2.81 4.71,0 9.5,1.48 14.37,4.42l-4.97 12.88c-3.39,-1.9 -6.77,-2.86 -10.16,-2.86 -3.04,0 -5.77,0.93 -8.18,2.75 -2.41,1.83 -4.13,4.37 -5.16,7.62 -1.56,4.95 -2.33,10.37 -2.33,16.27l0 43.05 -13.97 0z"/>
  <path id="6" class="fil10" d="M2105.67 1532.6c0,-15.22 4.23,-26.49 12.72,-33.82 7.07,-6.09 15.72,-9.13 25.9,-9.13 11.3,0 20.56,3.7 27.76,11.11 7.17,7.38 10.77,17.62 10.77,30.66 0,10.58 -1.59,18.89 -4.76,24.95 -3.17,6.06 -7.81,10.77 -13.89,14.13 -6.06,3.36 -12.7,5.03 -19.87,5.03 -11.53,0 -20.85,-3.68 -27.97,-11.06 -7.12,-7.38 -10.66,-18.02 -10.66,-31.88zm14.29 0.03c0,10.53 2.3,18.41 6.91,23.63 4.63,5.24 10.42,7.86 17.43,7.86 6.93,0 12.7,-2.62 17.33,-7.88 4.61,-5.27 6.91,-13.28 6.91,-24.05 0,-10.16 -2.33,-17.86 -6.96,-23.07 -4.63,-5.24 -10.4,-7.86 -17.28,-7.86 -7.01,0 -12.8,2.59 -17.43,7.81 -4.61,5.21 -6.91,13.07 -6.91,23.57z"/>
  <path id="7" class="fil10" d="M2199.12 1476.33l0 -16.19 13.97 0 0 16.19 -13.97 0zm-17.67 129.33l2.57 -11.83c2.8,0.71 5,1.09 6.61,1.09 2.86,0 4.98,-0.95 6.38,-2.83 1.4,-1.88 2.12,-6.62 2.12,-14.16l0 -86.52 13.97 0 0 86.81c0,10.13 -1.32,17.2 -3.97,21.17 -3.36,5.16 -8.94,7.75 -16.75,7.75 -3.78,0 -7.41,-0.5 -10.93,-1.48z"/>
  <path id="8" class="fil10" d="M2290.66 1547.13l14.45 1.9c-2.25,8.39 -6.46,14.92 -12.6,19.55 -6.14,4.63 -13.97,6.96 -23.52,6.96 -12.01,0 -21.54,-3.7 -28.57,-11.12 -7.04,-7.38 -10.55,-17.78 -10.55,-31.14 0,-13.81 3.55,-24.55 10.66,-32.17 7.12,-7.65 16.35,-11.46 27.7,-11.46 10.98,0 19.95,3.73 26.91,11.22 6.96,7.49 10.45,18.02 10.45,31.59 0,0.82 -0.03,2.06 -0.08,3.7l-61.36 0c0.53,9.02 3.07,15.96 7.67,20.75 4.58,4.79 10.32,7.19 17.17,7.19 5.11,0 9.47,-1.35 13.07,-4.05 3.63,-2.7 6.48,-7.01 8.6,-12.94zm-45.72 -22.39l45.88 0c-0.61,-6.93 -2.38,-12.12 -5.27,-15.58 -4.42,-5.37 -10.18,-8.07 -17.25,-8.07 -6.4,0 -11.77,2.14 -16.14,6.43 -4.34,4.28 -6.74,10.03 -7.22,17.22z"/>
  <path id="9" class="fil10" d="M2376.58 1543.64l13.65 1.91c-1.51,9.39 -5.32,16.72 -11.48,22.04 -6.17,5.32 -13.76,7.96 -22.73,7.96 -11.24,0 -20.29,-3.68 -27.12,-11.04 -6.85,-7.36 -10.26,-17.88 -10.26,-31.59 0,-8.89 1.48,-16.64 4.42,-23.31 2.94,-6.64 7.41,-11.64 13.44,-14.95 6.01,-3.33 12.54,-5 19.63,-5 8.91,0 16.25,2.25 21.91,6.77 5.69,4.53 9.34,10.95 10.93,19.26l-13.49 2.06c-1.3,-5.53 -3.57,-9.68 -6.88,-12.49 -3.28,-2.78 -7.25,-4.18 -11.9,-4.18 -7.04,0 -12.75,2.51 -17.17,7.54 -4.39,5.06 -6.59,12.99 -6.59,23.89 0,11.06 2.12,19.08 6.35,24.08 4.26,5 9.79,7.51 16.59,7.51 5.5,0 10.08,-1.66 13.73,-5.02 3.68,-3.33 6.01,-8.5 6.99,-15.45z"/>
  <path id="10" class="fil10" d="M2432.46 1561.34l1.9 12.33c-3.92,0.82 -7.43,1.24 -10.51,1.24 -5.05,0 -8.97,-0.8 -11.77,-2.41 -2.78,-1.61 -4.74,-3.7 -5.87,-6.32 -1.14,-2.62 -1.69,-8.12 -1.69,-16.51l0 -47.47 -10.32 0 0 -10.8 10.32 0 0 -20.37 13.97 -8.39 0 28.76 13.97 0 0 10.8 -13.97 0 0 48.26c0,4 0.24,6.56 0.74,7.7 0.48,1.14 1.27,2.04 2.38,2.72 1.11,0.66 2.7,1.01 4.76,1.01 1.54,0 3.57,-0.18 6.09,-0.55z"/>
  <polygon id="11" class="fil10" points="2490.03,1573.8 2490.03,1460.13 2504,1460.13 2504,1573.8 "/>
  <path id="12" class="fil10" d="M2579.43 1563.48c-5.19,4.42 -10.19,7.51 -14.98,9.34 -4.79,1.83 -9.92,2.73 -15.42,2.73 -9.05,0 -16.01,-2.2 -20.88,-6.62 -4.87,-4.39 -7.3,-10.03 -7.3,-16.88 0,-4.02 0.93,-7.7 2.75,-11.03 1.85,-3.33 4.26,-5.98 7.22,-7.99 2.99,-2.01 6.32,-3.54 10.05,-4.58 2.75,-0.71 6.91,-1.4 12.43,-2.09 11.27,-1.32 19.61,-2.94 24.92,-4.79 0.05,-1.9 0.08,-3.12 0.08,-3.62 0,-5.66 -1.32,-9.66 -3.97,-11.99 -3.57,-3.15 -8.89,-4.71 -15.93,-4.71 -6.59,0 -11.45,1.16 -14.58,3.47 -3.15,2.3 -5.45,6.38 -6.96,12.25l-13.65 -1.9c1.24,-5.85 3.28,-10.58 6.14,-14.18 2.86,-3.6 6.98,-6.35 12.38,-8.31 5.37,-1.93 11.64,-2.91 18.73,-2.91 7.04,0 12.78,0.82 17.2,2.49 4.39,1.67 7.65,3.73 9.71,6.24 2.06,2.51 3.52,5.69 4.36,9.53 0.45,2.38 0.69,6.67 0.69,12.83l0 18.52c0,12.94 0.29,21.11 0.87,24.58 0.55,3.47 1.72,6.77 3.41,9.95l-14.61 0c-1.4,-2.94 -2.3,-6.38 -2.7,-10.32zm-1.11 -30.95c-5.08,2.06 -12.7,3.81 -22.86,5.24 -5.77,0.82 -9.84,1.75 -12.22,2.78 -2.38,1.03 -4.21,2.54 -5.51,4.5 -1.3,1.99 -1.96,4.18 -1.96,6.62 0,3.68 1.4,6.77 4.23,9.23 2.83,2.46 6.96,3.71 12.38,3.71 5.37,0 10.16,-1.17 14.37,-3.52 4.18,-2.33 7.28,-5.53 9.24,-9.58 1.51,-3.15 2.25,-7.78 2.25,-13.89l0.08 -5.08z"/>
  <path id="13" class="fil10" d="M2613.27 1605.47l-1.59 -12.91c3.07,0.82 5.71,1.24 7.99,1.24 3.12,0 5.61,-0.53 7.46,-1.56 1.88,-1.03 3.41,-2.49 4.6,-4.34 0.87,-1.4 2.3,-4.87 4.26,-10.42 0.27,-0.77 0.66,-1.9 1.25,-3.41l-31.28 -82.66 14.92 0 17.2 47.57c2.25,6.01 4.24,12.36 6.01,19.03 1.61,-6.27 3.52,-12.46 5.74,-18.55l17.57 -48.05 13.94 0 -31.14 83.82c-3.36,9.02 -5.98,15.21 -7.86,18.63 -2.49,4.58 -5.35,7.94 -8.55,10.08 -3.23,2.14 -7.07,3.2 -11.51,3.2 -2.7,0 -5.72,-0.55 -9.02,-1.67z"/>
  <path id="14" class="fil10" d="M2749.48 1547.13l14.45 1.9c-2.25,8.39 -6.46,14.92 -12.59,19.55 -6.14,4.63 -13.97,6.96 -23.52,6.96 -12.01,0 -21.54,-3.7 -28.58,-11.12 -7.04,-7.38 -10.55,-17.78 -10.55,-31.14 0,-13.81 3.55,-24.55 10.66,-32.17 7.12,-7.65 16.35,-11.46 27.7,-11.46 10.98,0 19.95,3.73 26.91,11.22 6.96,7.49 10.45,18.02 10.45,31.59 0,0.82 -0.03,2.06 -0.08,3.7l-61.36 0c0.53,9.02 3.07,15.96 7.67,20.75 4.58,4.79 10.32,7.19 17.17,7.19 5.11,0 9.47,-1.35 13.07,-4.05 3.63,-2.7 6.48,-7.01 8.6,-12.94zm-45.72 -22.39l45.88 0c-0.61,-6.93 -2.38,-12.12 -5.27,-15.58 -4.42,-5.37 -10.19,-8.07 -17.25,-8.07 -6.4,0 -11.77,2.14 -16.14,6.43 -4.34,4.28 -6.74,10.03 -7.22,17.22z"/>
  <path id="15" class="fil10" d="M2781.42 1573.8l0 -82.39 12.54 0 0 12.62c3.2,-5.85 6.16,-9.71 8.89,-11.56 2.72,-1.88 5.71,-2.81 8.97,-2.81 4.71,0 9.5,1.48 14.37,4.42l-4.98 12.88c-3.39,-1.9 -6.77,-2.86 -10.16,-2.86 -3.04,0 -5.77,0.93 -8.18,2.75 -2.41,1.83 -4.13,4.37 -5.16,7.62 -1.56,4.95 -2.33,10.37 -2.33,16.27l0 43.05 -13.97 0z"/>
  <path id="16" class="fil10" d="M2828.88 1549.19l13.81 -2.22c0.77,5.53 2.94,9.77 6.48,12.73 3.55,2.94 8.52,4.42 14.87,4.42 6.43,0 11.19,-1.29 14.31,-3.91 3.1,-2.59 4.66,-5.66 4.66,-9.18 0,-3.15 -1.4,-5.64 -4.18,-7.43 -1.96,-1.25 -6.72,-2.81 -14.29,-4.74 -10.21,-2.57 -17.28,-4.79 -21.25,-6.67 -3.94,-1.9 -6.93,-4.5 -8.97,-7.83 -2.04,-3.31 -3.07,-6.99 -3.07,-11.01 0,-3.68 0.85,-7.07 2.51,-10.19 1.7,-3.12 3.97,-5.71 6.86,-7.78 2.17,-1.59 5.13,-2.94 8.86,-4.05 3.76,-1.11 7.75,-1.67 12.04,-1.67 6.46,0 12.12,0.93 16.99,2.81 4.89,1.85 8.49,4.39 10.82,7.57 2.3,3.2 3.92,7.46 4.79,12.81l-13.65 1.9c-0.61,-4.29 -2.41,-7.65 -5.37,-10.05 -2.96,-2.41 -7.14,-3.6 -12.57,-3.6 -6.38,0 -10.95,1.06 -13.68,3.17 -2.72,2.12 -4.1,4.6 -4.1,7.43 0,1.8 0.56,3.44 1.69,4.89 1.14,1.48 2.91,2.73 5.34,3.7 1.4,0.53 5.47,1.72 12.3,3.57 9.84,2.62 16.72,4.79 20.64,6.46 3.91,1.66 6.99,4.13 9.21,7.3 2.25,3.2 3.36,7.17 3.36,11.93 0,4.63 -1.35,8.99 -4.07,13.09 -2.73,4.1 -6.64,7.28 -11.75,9.53 -5.13,2.25 -10.93,3.36 -17.38,3.36 -10.69,0 -18.87,-2.22 -24.48,-6.64 -5.61,-4.44 -9.18,-11.01 -10.74,-19.71z"/>
 </g>
</svg>
