<?xml version="1.0" encoding="UTF-8"?>
<!DOCTYPE svg PUBLIC "-//W3C//DTD SVG 1.1//EN" "http://www.w3.org/Graphics/SVG/1.1/DTD/svg11.dtd">
<!-- Creator: CorelDRAW 2019 (64-Bit) -->
<svg xmlns="http://www.w3.org/2000/svg" xml:space="preserve" width="25%" height="25%" version="1.1" style="shape-rendering:geometricPrecision; text-rendering:geometricPrecision; image-rendering:optimizeQuality; fill-rule:evenodd; clip-rule:evenodd"
viewBox="0 0 3750 1875"
 xmlns:xlink="http://www.w3.org/1999/xlink"
 xmlns:xodm="http://www.corel.com/coreldraw/odm/2003">
 <defs>
  <style type="text/css">
   <![CDATA[
    .str0 {stroke:#FEFEFE;stroke-width:26.46;stroke-miterlimit:22.9256}
    .fil0 {fill:#F1908E}
    .fil1 {fill:#EE7773}
    .fil8 {fill:#EA5855}
    .fil9 {fill:#E84745}
    .fil2 {fill:#A0D0EE}
    .fil3 {fill:#4BBAEB}
    .fil7 {fill:#007BC1}
    .fil10 {fill:#E84745;fill-rule:nonzero}
    .fil6 {fill:#A0D0EE;fill-rule:nonzero}
    .fil5 {fill:#4BBAEB;fill-rule:nonzero}
    .fil4 {fill:#007BC1;fill-rule:nonzero}
   ]]>
  </style>
 </defs>
 <g id="Ebene_x0020_1">
  <metadata id="CorelCorpID_0Corel-Layer"/>
  <path class="fil0 str0" d="M871.53 947.52l-706.44 0c0,390.16 316.29,706.44 706.44,706.44 390.16,0 706.44,-316.29 706.44,-706.44 0,-166.09 -58.51,-326.86 -165.27,-454.09l-541.17 454.09z"/>
  <path class="fil1 str0" d="M871.53 947.52l-405.87 405.87c107.64,107.64 253.64,168.12 405.87,168.12 317,0 573.98,-256.98 573.98,-573.98 0,-66.96 -11.72,-133.4 -34.62,-196.31l-539.37 196.31z"/>
  <path class="fil2 str0" d="M871.53 947.52l541.17 -454.09c-134.23,-159.96 -332.35,-252.35 -541.17,-252.35 -390.15,0 -706.44,316.29 -706.44,706.44l706.44 0z"/>
  <path class="fil3 str0" d="M871.53 947.52l539.37 -196.31c-82.53,-226.75 -298.07,-377.67 -539.37,-377.67 -317,0 -573.98,256.98 -573.98,573.98 0,152.23 60.47,298.22 168.12,405.87l405.87 -405.87z"/>
  <path class="fil4" d="M1979.16 1162.66l19.26 2.54c-3,11.18 -8.61,19.9 -16.79,26.07 -8.19,6.17 -18.63,9.28 -31.36,9.28 -16.01,0 -28.71,-4.94 -38.1,-14.81 -9.38,-9.84 -14.08,-23.71 -14.08,-41.52 0,-18.41 4.73,-32.74 14.21,-42.9 9.49,-10.2 21.8,-15.28 36.94,-15.28 14.64,0 26.6,4.97 35.88,14.96 9.28,9.98 13.94,24.02 13.94,42.12 0,1.1 -0.04,2.75 -0.11,4.94l-81.81 0c0.71,12.03 4.09,21.27 10.23,27.66 6.1,6.38 13.76,9.6 22.89,9.6 6.81,0 12.63,-1.8 17.43,-5.4 4.83,-3.6 8.64,-9.35 11.47,-17.25zm-60.96 -29.85l61.17 0c-0.81,-9.24 -3.17,-16.16 -7.02,-20.78 -5.89,-7.16 -13.58,-10.76 -23,-10.76 -8.54,0 -15.7,2.86 -21.52,8.57 -5.78,5.72 -8.99,13.37 -9.63,22.97z"/>
  <path id="1" class="fil4" d="M2021.95 1198.22l0 -109.86 16.72 0 0 15.59c8.04,-11.96 19.69,-17.92 34.89,-17.92 6.63,0 12.7,1.2 18.24,3.56 5.54,2.36 9.7,5.5 12.45,9.35 2.75,3.85 4.69,8.43 5.79,13.72 0.67,3.46 1.02,9.49 1.02,18.1l0 67.45 -18.63 0 0 -66.75c0,-7.58 -0.7,-13.26 -2.15,-17 -1.44,-3.74 -4.02,-6.74 -7.69,-9 -3.67,-2.22 -8.01,-3.35 -12.95,-3.35 -7.9,0 -14.71,2.51 -20.46,7.55 -5.75,5.01 -8.61,14.57 -8.61,28.61l0 59.94 -18.63 0z"/>
  <path id="2" class="fil4" d="M2180.1 1181.61l2.54 16.44c-5.22,1.1 -9.91,1.66 -14,1.66 -6.74,0 -11.96,-1.06 -15.7,-3.21 -3.7,-2.15 -6.32,-4.94 -7.83,-8.43 -1.52,-3.49 -2.26,-10.83 -2.26,-22.01l0 -63.29 -13.76 0 0 -14.39 13.76 0 0 -27.16 18.63 -11.18 0 38.35 18.63 0 0 14.39 -18.63 0 0 64.35c0,5.33 0.32,8.75 0.99,10.27 0.63,1.52 1.69,2.72 3.17,3.63 1.48,0.88 3.6,1.34 6.35,1.34 2.05,0 4.76,-0.25 8.11,-0.74z"/>
  <path id="3" class="fil4" d="M2198.48 1067.84l0 -21.17 18.63 0 0 21.17 -18.63 0zm0 130.39l0 -109.86 18.63 0 0 109.86 -18.63 0z"/>
  <path id="4" class="fil4" d="M2285.94 1181.61l2.54 16.44c-5.22,1.1 -9.91,1.66 -14,1.66 -6.74,0 -11.96,-1.06 -15.7,-3.21 -3.7,-2.15 -6.32,-4.94 -7.83,-8.43 -1.52,-3.49 -2.26,-10.83 -2.26,-22.01l0 -63.29 -13.76 0 0 -14.39 13.76 0 0 -27.16 18.63 -11.18 0 38.35 18.63 0 0 14.39 -18.63 0 0 64.35c0,5.33 0.32,8.75 0.99,10.27 0.63,1.52 1.69,2.72 3.18,3.63 1.48,0.88 3.6,1.34 6.35,1.34 2.04,0 4.76,-0.25 8.11,-0.74z"/>
  <path id="5" class="fil4" d="M2303.47 1240.45l-2.12 -17.21c4.09,1.09 7.62,1.66 10.65,1.66 4.16,0 7.48,-0.71 9.95,-2.08 2.5,-1.38 4.55,-3.32 6.14,-5.79 1.16,-1.87 3.07,-6.49 5.68,-13.9 0.35,-1.02 0.88,-2.54 1.66,-4.55l-41.7 -110.21 19.89 0 22.93 63.43c3,8.01 5.64,16.47 8.01,25.37 2.15,-8.36 4.69,-16.62 7.66,-24.73l23.42 -64.07 18.59 0 -41.52 111.76c-4.48,12.03 -7.98,20.29 -10.48,24.84 -3.32,6.1 -7.13,10.59 -11.39,13.44 -4.31,2.86 -9.42,4.27 -15.35,4.27 -3.6,0 -7.62,-0.74 -12.03,-2.22z"/>
  <polygon id="6" class="fil4" points="2468.54,1198.22 2468.54,1046.67 2487.16,1046.67 2487.16,1198.22 "/>
  <path id="7" class="fil4" d="M2587.74 1184.47c-6.91,5.89 -13.58,10.02 -19.97,12.45 -6.38,2.44 -13.23,3.63 -20.57,3.63 -12.06,0 -21.34,-2.93 -27.83,-8.82 -6.49,-5.86 -9.74,-13.37 -9.74,-22.51 0,-5.36 1.24,-10.27 3.67,-14.71 2.47,-4.44 5.68,-7.97 9.63,-10.65 3.98,-2.68 8.43,-4.73 13.4,-6.11 3.67,-0.95 9.21,-1.87 16.58,-2.79 15.03,-1.76 26.14,-3.92 33.23,-6.38 0.07,-2.54 0.11,-4.16 0.11,-4.84 0,-7.55 -1.76,-12.88 -5.29,-15.98 -4.76,-4.2 -11.86,-6.28 -21.24,-6.28 -8.78,0 -15.28,1.55 -19.44,4.62 -4.2,3.07 -7.27,8.5 -9.28,16.33l-18.2 -2.54c1.66,-7.79 4.38,-14.11 8.18,-18.91 3.81,-4.8 9.31,-8.47 16.51,-11.08 7.16,-2.58 15.52,-3.88 24.98,-3.88 9.38,0 17.04,1.09 22.93,3.32 5.85,2.22 10.19,4.98 12.95,8.33 2.75,3.35 4.69,7.59 5.82,12.7 0.6,3.17 0.92,8.89 0.92,17.11l0 24.69c0,17.25 0.39,28.15 1.16,32.77 0.74,4.62 2.3,9.03 4.55,13.27l-19.47 0c-1.87,-3.91 -3.07,-8.5 -3.6,-13.76zm-1.48 -41.28c-6.77,2.75 -16.93,5.08 -30.48,6.98 -7.69,1.09 -13.12,2.33 -16.3,3.7 -3.17,1.38 -5.61,3.39 -7.34,6 -1.73,2.64 -2.61,5.58 -2.61,8.82 0,4.9 1.87,9.03 5.64,12.31 3.78,3.28 9.28,4.94 16.51,4.94 7.16,0 13.55,-1.55 19.16,-4.69 5.57,-3.11 9.7,-7.38 12.31,-12.77 2.01,-4.2 3,-10.37 3,-18.52l0.11 -6.77z"/>
  <path id="8" class="fil4" d="M2632.86 1240.45l-2.11 -17.21c4.09,1.09 7.62,1.66 10.65,1.66 4.16,0 7.48,-0.71 9.95,-2.08 2.5,-1.38 4.55,-3.32 6.14,-5.79 1.16,-1.87 3.07,-6.49 5.68,-13.9 0.35,-1.02 0.88,-2.54 1.66,-4.55l-41.7 -110.21 19.9 0 22.93 63.43c3,8.01 5.64,16.47 8.01,25.37 2.15,-8.36 4.69,-16.62 7.66,-24.73l23.42 -64.07 18.59 0 -41.52 111.76c-4.48,12.03 -7.97,20.29 -10.48,24.84 -3.32,6.1 -7.13,10.59 -11.39,13.44 -4.3,2.86 -9.42,4.27 -15.35,4.27 -3.6,0 -7.62,-0.74 -12.03,-2.22z"/>
  <path id="9" class="fil4" d="M2814.47 1162.66l19.26 2.54c-3,11.18 -8.61,19.9 -16.79,26.07 -8.18,6.17 -18.63,9.28 -31.36,9.28 -16.01,0 -28.72,-4.94 -38.1,-14.81 -9.39,-9.84 -14.08,-23.71 -14.08,-41.52 0,-18.41 4.73,-32.74 14.22,-42.9 9.49,-10.2 21.8,-15.28 36.94,-15.28 14.64,0 26.6,4.97 35.88,14.96 9.28,9.98 13.93,24.02 13.93,42.12 0,1.1 -0.04,2.75 -0.11,4.94l-81.81 0c0.7,12.03 4.09,21.27 10.23,27.66 6.1,6.38 13.76,9.6 22.89,9.6 6.81,0 12.63,-1.8 17.43,-5.4 4.83,-3.6 8.64,-9.35 11.47,-17.25zm-60.96 -29.85l61.17 0c-0.81,-9.24 -3.18,-16.16 -7.02,-20.78 -5.89,-7.16 -13.58,-10.76 -23,-10.76 -8.54,0 -15.7,2.86 -21.52,8.57 -5.79,5.72 -9,13.37 -9.63,22.97z"/>
  <path id="10" class="fil4" d="M2857.05 1198.22l0 -109.86 16.72 0 0 16.83c4.27,-7.8 8.22,-12.95 11.85,-15.42 3.63,-2.5 7.62,-3.74 11.96,-3.74 6.28,0 12.67,1.98 19.16,5.89l-6.63 17.18c-4.52,-2.54 -9.03,-3.81 -13.55,-3.81 -4.06,0 -7.69,1.24 -10.9,3.67 -3.21,2.43 -5.51,5.82 -6.88,10.16 -2.08,6.6 -3.11,13.83 -3.11,21.69l0 57.4 -18.63 0z"/>
  <path class="fil5" d="M1802.05 684.14l0 -21.17 18.63 0 0 21.17 -18.63 0zm0 130.39l0 -109.86 18.63 0 0 109.86 -18.63 0z"/>
  <path id="1" class="fil5" d="M1849.07 814.53l0 -109.86 16.72 0 0 15.59c8.04,-11.96 19.68,-17.92 34.89,-17.92 6.63,0 12.7,1.2 18.24,3.57 5.54,2.36 9.7,5.5 12.45,9.35 2.75,3.85 4.69,8.43 5.79,13.72 0.67,3.46 1.02,9.49 1.02,18.1l0 67.45 -18.63 0 0 -66.75c0,-7.59 -0.71,-13.26 -2.15,-17 -1.44,-3.74 -4.02,-6.74 -7.69,-9 -3.67,-2.22 -8.01,-3.35 -12.95,-3.35 -7.9,0 -14.71,2.51 -20.46,7.55 -5.75,5.01 -8.61,14.57 -8.61,28.61l0 59.94 -18.63 0z"/>
  <path id="2" class="fil5" d="M1971.24 814.53l0 -95.46 -16.51 0 0 -14.39 16.51 0 0 -11.64c0,-7.37 0.63,-12.84 1.94,-16.4 1.8,-4.8 4.9,-8.71 9.42,-11.71 4.48,-3 10.79,-4.48 18.91,-4.48 5.26,0 11.04,0.63 17.39,1.87l-2.79 16.3c-3.88,-0.67 -7.51,-1.03 -10.97,-1.03 -5.64,0 -9.63,1.2 -12,3.6 -2.33,2.4 -3.49,6.88 -3.49,13.44l0 10.06 21.38 0 0 14.39 -21.16 0 0 95.46 -18.63 0z"/>
  <path id="3" class="fil5" d="M2025.39 814.53l0 -109.86 16.72 0 0 16.83c4.27,-7.8 8.22,-12.95 11.85,-15.42 3.63,-2.5 7.62,-3.74 11.96,-3.74 6.28,0 12.66,1.98 19.15,5.89l-6.63 17.18c-4.52,-2.54 -9.03,-3.81 -13.55,-3.81 -4.06,0 -7.69,1.24 -10.9,3.67 -3.21,2.43 -5.51,5.82 -6.88,10.16 -2.08,6.6 -3.11,13.83 -3.11,21.69l0 57.4 -18.63 0z"/>
  <path id="4" class="fil5" d="M2167.84 800.77c-6.91,5.89 -13.58,10.02 -19.97,12.45 -6.38,2.43 -13.23,3.63 -20.57,3.63 -12.06,0 -21.34,-2.93 -27.83,-8.82 -6.49,-5.86 -9.74,-13.37 -9.74,-22.51 0,-5.36 1.24,-10.27 3.67,-14.71 2.47,-4.44 5.68,-7.97 9.63,-10.65 3.99,-2.68 8.43,-4.73 13.41,-6.11 3.67,-0.95 9.21,-1.87 16.58,-2.79 15.03,-1.76 26.14,-3.92 33.23,-6.38 0.07,-2.54 0.11,-4.16 0.11,-4.84 0,-7.55 -1.76,-12.88 -5.29,-15.98 -4.76,-4.2 -11.86,-6.28 -21.24,-6.28 -8.78,0 -15.28,1.55 -19.44,4.62 -4.2,3.07 -7.27,8.5 -9.28,16.33l-18.2 -2.54c1.66,-7.79 4.38,-14.11 8.19,-18.91 3.81,-4.8 9.31,-8.47 16.51,-11.08 7.16,-2.58 15.52,-3.88 24.98,-3.88 9.38,0 17.04,1.1 22.93,3.32 5.85,2.22 10.19,4.98 12.95,8.33 2.75,3.35 4.69,7.59 5.82,12.7 0.6,3.17 0.92,8.89 0.92,17.11l0 24.7c0,17.25 0.39,28.15 1.16,32.77 0.74,4.62 2.3,9.03 4.55,13.26l-19.47 0c-1.87,-3.91 -3.07,-8.5 -3.6,-13.76zm-1.48 -41.28c-6.77,2.75 -16.93,5.08 -30.48,6.99 -7.69,1.09 -13.12,2.33 -16.3,3.7 -3.17,1.38 -5.61,3.39 -7.34,6 -1.73,2.64 -2.61,5.57 -2.61,8.82 0,4.9 1.87,9.03 5.64,12.31 3.78,3.28 9.28,4.94 16.51,4.94 7.16,0 13.55,-1.55 19.16,-4.69 5.57,-3.11 9.7,-7.38 12.31,-12.77 2.01,-4.2 3,-10.37 3,-18.52l0.11 -6.77z"/>
  <path id="5" class="fil5" d="M2206.4 781.72l18.41 -2.97c1.02,7.38 3.91,13.02 8.64,16.97 4.73,3.91 11.36,5.89 19.83,5.89 8.57,0 14.92,-1.73 19.09,-5.22 4.13,-3.46 6.21,-7.55 6.21,-12.24 0,-4.2 -1.87,-7.51 -5.57,-9.91 -2.61,-1.66 -8.96,-3.74 -19.05,-6.31 -13.62,-3.42 -23.04,-6.38 -28.33,-8.89 -5.26,-2.54 -9.24,-6 -11.96,-10.44 -2.72,-4.41 -4.09,-9.31 -4.09,-14.68 0,-4.9 1.13,-9.42 3.35,-13.58 2.26,-4.16 5.29,-7.62 9.14,-10.37 2.89,-2.12 6.85,-3.92 11.82,-5.4 5.01,-1.48 10.34,-2.22 16.05,-2.22 8.61,0 16.16,1.24 22.65,3.74 6.53,2.47 11.33,5.86 14.43,10.09 3.07,4.27 5.22,9.95 6.38,17.08l-18.2 2.54c-0.81,-5.72 -3.21,-10.19 -7.16,-13.4 -3.95,-3.21 -9.53,-4.8 -16.76,-4.8 -8.5,0 -14.61,1.41 -18.24,4.23 -3.64,2.82 -5.47,6.14 -5.47,9.91 0,2.4 0.74,4.59 2.26,6.53 1.52,1.97 3.88,3.63 7.13,4.94 1.87,0.7 7.3,2.29 16.4,4.76 13.12,3.49 22.3,6.39 27.51,8.61 5.22,2.22 9.32,5.5 12.28,9.74 3,4.27 4.48,9.56 4.48,15.91 0,6.18 -1.8,12 -5.43,17.46 -3.63,5.47 -8.86,9.7 -15.66,12.7 -6.85,3 -14.57,4.48 -23.18,4.48 -14.25,0 -25.15,-2.96 -32.63,-8.86 -7.48,-5.92 -12.24,-14.67 -14.32,-26.28z"/>
  <path id="6" class="fil5" d="M2360.07 797.92l2.54 16.44c-5.22,1.1 -9.91,1.66 -14.01,1.66 -6.74,0 -11.96,-1.06 -15.7,-3.21 -3.71,-2.15 -6.32,-4.94 -7.83,-8.43 -1.52,-3.49 -2.26,-10.83 -2.26,-22.01l0 -63.29 -13.76 0 0 -14.39 13.76 0 0 -27.16 18.63 -11.18 0 38.35 18.63 0 0 14.39 -18.63 0 0 64.35c0,5.33 0.32,8.75 0.99,10.26 0.63,1.52 1.69,2.72 3.17,3.63 1.48,0.88 3.6,1.34 6.35,1.34 2.05,0 4.76,-0.25 8.11,-0.74z"/>
  <path id="7" class="fil5" d="M2378.24 814.53l0 -109.86 16.72 0 0 16.83c4.27,-7.8 8.22,-12.95 11.85,-15.42 3.64,-2.5 7.62,-3.74 11.96,-3.74 6.28,0 12.66,1.98 19.16,5.89l-6.63 17.18c-4.52,-2.54 -9.03,-3.81 -13.55,-3.81 -4.06,0 -7.69,1.24 -10.9,3.67 -3.21,2.43 -5.5,5.82 -6.88,10.16 -2.08,6.6 -3.11,13.83 -3.11,21.69l0 57.4 -18.63 0z"/>
  <path id="8" class="fil5" d="M2520.69 814.53l0 -16.33c-8.54,12.45 -20.11,18.66 -34.75,18.66 -6.46,0 -12.49,-1.24 -18.1,-3.7 -5.61,-2.5 -9.77,-5.61 -12.49,-9.35 -2.72,-3.77 -4.62,-8.36 -5.72,-13.79 -0.74,-3.67 -1.13,-9.45 -1.13,-17.36l0 -67.98 18.63 0 0 60.78c0,9.7 0.39,16.26 1.13,19.62 1.16,4.9 3.63,8.71 7.44,11.5 3.78,2.79 8.43,4.2 14.01,4.2 5.57,0 10.8,-1.41 15.66,-4.27 4.87,-2.86 8.33,-6.77 10.37,-11.68 2.01,-4.9 3.03,-12.06 3.03,-21.41l0 -58.74 18.63 0 0 109.86 -16.72 0z"/>
  <path id="9" class="fil5" d="M2638.41 774.31l18.2 2.54c-2.01,12.52 -7.09,22.3 -15.31,29.39 -8.22,7.09 -18.35,10.62 -30.3,10.62 -14.99,0 -27.06,-4.9 -36.16,-14.71 -9.14,-9.81 -13.69,-23.85 -13.69,-42.12 0,-11.85 1.97,-22.19 5.89,-31.08 3.92,-8.86 9.88,-15.52 17.92,-19.93 8.01,-4.45 16.72,-6.67 26.18,-6.67 11.89,0 21.66,3 29.21,9.03 7.58,6.03 12.45,14.61 14.57,25.68l-17.99 2.75c-1.73,-7.38 -4.76,-12.91 -9.17,-16.65 -4.38,-3.71 -9.67,-5.57 -15.88,-5.57 -9.39,0 -17.01,3.35 -22.9,10.05 -5.86,6.74 -8.78,17.32 -8.78,31.86 0,14.75 2.82,25.44 8.46,32.1 5.68,6.67 13.05,10.02 22.12,10.02 7.34,0 13.44,-2.22 18.31,-6.7 4.9,-4.44 8.01,-11.32 9.31,-20.6z"/>
  <path id="10" class="fil5" d="M2712.92 797.92l2.54 16.44c-5.22,1.1 -9.91,1.66 -14,1.66 -6.74,0 -11.96,-1.06 -15.7,-3.21 -3.7,-2.15 -6.32,-4.94 -7.83,-8.43 -1.52,-3.49 -2.26,-10.83 -2.26,-22.01l0 -63.29 -13.76 0 0 -14.39 13.76 0 0 -27.16 18.63 -11.18 0 38.35 18.63 0 0 14.39 -18.63 0 0 64.35c0,5.33 0.32,8.75 0.99,10.26 0.63,1.52 1.69,2.72 3.17,3.63 1.48,0.88 3.6,1.34 6.35,1.34 2.05,0 4.76,-0.25 8.11,-0.74z"/>
  <path id="11" class="fil5" d="M2803.06 814.53l0 -16.33c-8.54,12.45 -20.11,18.66 -34.75,18.66 -6.46,0 -12.49,-1.24 -18.1,-3.7 -5.61,-2.5 -9.77,-5.61 -12.49,-9.35 -2.72,-3.77 -4.62,-8.36 -5.72,-13.79 -0.74,-3.67 -1.13,-9.45 -1.13,-17.36l0 -67.98 18.63 0 0 60.78c0,9.7 0.39,16.26 1.13,19.62 1.16,4.9 3.63,8.71 7.44,11.5 3.77,2.79 8.43,4.2 14.01,4.2 5.57,0 10.8,-1.41 15.66,-4.27 4.87,-2.86 8.32,-6.77 10.37,-11.68 2.01,-4.9 3.03,-12.06 3.03,-21.41l0 -58.74 18.63 0 0 109.86 -16.72 0z"/>
  <path id="12" class="fil5" d="M2848.81 814.53l0 -109.86 16.72 0 0 16.83c4.27,-7.8 8.22,-12.95 11.85,-15.42 3.63,-2.5 7.62,-3.74 11.96,-3.74 6.28,0 12.66,1.98 19.16,5.89l-6.63 17.18c-4.52,-2.54 -9.03,-3.81 -13.55,-3.81 -4.06,0 -7.69,1.24 -10.9,3.67 -3.21,2.43 -5.51,5.82 -6.88,10.16 -2.08,6.6 -3.1,13.83 -3.1,21.69l0 57.4 -18.63 0z"/>
  <path id="13" class="fil5" d="M2994.44 778.97l19.26 2.54c-3,11.18 -8.61,19.9 -16.79,26.07 -8.18,6.18 -18.63,9.28 -31.36,9.28 -16.02,0 -28.72,-4.94 -38.1,-14.81 -9.39,-9.84 -14.07,-23.71 -14.07,-41.52 0,-18.41 4.73,-32.74 14.22,-42.9 9.49,-10.2 21.8,-15.28 36.94,-15.28 14.64,0 26.6,4.98 35.88,14.96 9.28,9.98 13.94,24.02 13.94,42.12 0,1.1 -0.04,2.75 -0.11,4.94l-81.81 0c0.7,12.03 4.09,21.27 10.23,27.66 6.1,6.38 13.76,9.59 22.9,9.59 6.81,0 12.63,-1.8 17.43,-5.4 4.83,-3.6 8.64,-9.35 11.47,-17.25zm-60.96 -29.85l61.17 0c-0.81,-9.24 -3.18,-16.16 -7.02,-20.78 -5.89,-7.16 -13.58,-10.76 -23,-10.76 -8.54,0 -15.7,2.86 -21.52,8.57 -5.79,5.72 -9,13.37 -9.63,22.97z"/>
  <polygon id="14" class="fil5" points="3095.62,814.53 3095.62,662.98 3114.24,662.98 3114.24,814.53 "/>
  <path id="15" class="fil5" d="M3214.82 800.77c-6.92,5.89 -13.58,10.02 -19.97,12.45 -6.39,2.43 -13.23,3.63 -20.57,3.63 -12.07,0 -21.34,-2.93 -27.83,-8.82 -6.49,-5.86 -9.74,-13.37 -9.74,-22.51 0,-5.36 1.24,-10.27 3.67,-14.71 2.47,-4.44 5.68,-7.97 9.63,-10.65 3.98,-2.68 8.43,-4.73 13.4,-6.11 3.67,-0.95 9.21,-1.87 16.58,-2.79 15.03,-1.76 26.14,-3.92 33.23,-6.38 0.07,-2.54 0.11,-4.16 0.11,-4.84 0,-7.55 -1.76,-12.88 -5.29,-15.98 -4.76,-4.2 -11.86,-6.28 -21.24,-6.28 -8.78,0 -15.28,1.55 -19.44,4.62 -4.2,3.07 -7.27,8.5 -9.28,16.33l-18.2 -2.54c1.66,-7.79 4.38,-14.11 8.18,-18.91 3.81,-4.8 9.31,-8.47 16.51,-11.08 7.16,-2.58 15.52,-3.88 24.98,-3.88 9.38,0 17.04,1.1 22.93,3.32 5.86,2.22 10.19,4.98 12.95,8.33 2.75,3.35 4.69,7.59 5.82,12.7 0.6,3.17 0.92,8.89 0.92,17.11l0 24.7c0,17.25 0.39,28.15 1.16,32.77 0.74,4.62 2.3,9.03 4.55,13.26l-19.47 0c-1.87,-3.91 -3.07,-8.5 -3.6,-13.76zm-1.48 -41.28c-6.77,2.75 -16.93,5.08 -30.48,6.99 -7.69,1.09 -13.12,2.33 -16.3,3.7 -3.18,1.38 -5.61,3.39 -7.34,6 -1.73,2.64 -2.61,5.57 -2.61,8.82 0,4.9 1.87,9.03 5.64,12.31 3.78,3.28 9.28,4.94 16.51,4.94 7.16,0 13.54,-1.55 19.16,-4.69 5.57,-3.11 9.7,-7.38 12.31,-12.77 2.01,-4.2 3,-10.37 3,-18.52l0.11 -6.77z"/>
  <path id="16" class="fil5" d="M3259.94 856.76l-2.12 -17.21c4.09,1.09 7.62,1.66 10.65,1.66 4.16,0 7.48,-0.7 9.95,-2.08 2.5,-1.38 4.55,-3.31 6.14,-5.78 1.16,-1.87 3.07,-6.49 5.68,-13.9 0.35,-1.02 0.88,-2.54 1.66,-4.55l-41.7 -110.21 19.89 0 22.93 63.43c3,8.01 5.64,16.47 8.01,25.37 2.15,-8.36 4.69,-16.62 7.66,-24.73l23.42 -64.07 18.59 0 -41.52 111.76c-4.48,12.03 -7.98,20.29 -10.48,24.84 -3.32,6.1 -7.13,10.59 -11.4,13.44 -4.3,2.86 -9.42,4.27 -15.35,4.27 -3.6,0 -7.62,-0.74 -12.03,-2.22z"/>
  <path id="17" class="fil5" d="M3441.55 778.97l19.26 2.54c-3,11.18 -8.61,19.9 -16.79,26.07 -8.18,6.18 -18.63,9.28 -31.36,9.28 -16.01,0 -28.71,-4.94 -38.1,-14.81 -9.39,-9.84 -14.07,-23.71 -14.07,-41.52 0,-18.41 4.73,-32.74 14.21,-42.9 9.49,-10.2 21.8,-15.28 36.94,-15.28 14.64,0 26.6,4.98 35.88,14.96 9.28,9.98 13.93,24.02 13.93,42.12 0,1.1 -0.03,2.75 -0.11,4.94l-81.81 0c0.7,12.03 4.09,21.27 10.23,27.66 6.1,6.38 13.76,9.59 22.89,9.59 6.81,0 12.63,-1.8 17.43,-5.4 4.83,-3.6 8.64,-9.35 11.47,-17.25zm-60.96 -29.85l61.17 0c-0.81,-9.24 -3.18,-16.16 -7.02,-20.78 -5.89,-7.16 -13.58,-10.76 -23,-10.76 -8.54,0 -15.7,2.86 -21.52,8.57 -5.78,5.72 -8.99,13.37 -9.63,22.97z"/>
  <path id="18" class="fil5" d="M3484.13 814.53l0 -109.86 16.72 0 0 16.83c4.27,-7.8 8.22,-12.95 11.85,-15.42 3.64,-2.5 7.62,-3.74 11.96,-3.74 6.28,0 12.66,1.98 19.15,5.89l-6.63 17.18c-4.52,-2.54 -9.03,-3.81 -13.55,-3.81 -4.06,0 -7.69,1.24 -10.9,3.67 -3.21,2.43 -5.5,5.82 -6.88,10.16 -2.08,6.6 -3.11,13.83 -3.11,21.69l0 57.4 -18.63 0z"/>
  <path class="fil6" d="M1580.04 470.42l0 -151.98 16.93 0 0 14.43c3.99,-5.57 8.5,-9.77 13.55,-12.56 5.01,-2.79 11.11,-4.2 18.28,-4.2 9.38,0 17.64,2.4 24.8,7.23 7.16,4.8 12.56,11.61 16.23,20.36 3.63,8.78 5.47,18.38 5.47,28.86 0,11.18 -2.01,21.27 -6.03,30.27 -4.02,8.96 -9.88,15.84 -17.57,20.64 -7.66,4.76 -15.74,7.16 -24.2,7.16 -6.21,0 -11.79,-1.31 -16.69,-3.91 -4.94,-2.61 -8.96,-5.89 -12.13,-9.88l0 53.59 -18.63 0zm16.93 -96.38c0,14.08 2.86,24.48 8.54,31.22 5.71,6.74 12.63,10.13 20.74,10.13 8.26,0 15.31,-3.49 21.17,-10.48 5.89,-6.99 8.82,-17.78 8.82,-32.42 0,-13.97 -2.86,-24.41 -8.61,-31.36 -5.75,-6.95 -12.6,-10.41 -20.57,-10.41 -7.9,0 -14.89,3.7 -20.96,11.08 -6.1,7.41 -9.14,18.13 -9.14,32.25z"/>
  <path id="1" class="fil6" d="M1697.55 428.3l0 -109.85 16.72 0 0 16.83c4.27,-7.8 8.22,-12.95 11.85,-15.42 3.63,-2.5 7.62,-3.74 11.96,-3.74 6.28,0 12.66,1.98 19.15,5.89l-6.63 17.18c-4.52,-2.54 -9.03,-3.81 -13.55,-3.81 -4.06,0 -7.69,1.24 -10.9,3.67 -3.21,2.43 -5.5,5.82 -6.88,10.16 -2.08,6.6 -3.11,13.83 -3.11,21.7l0 57.4 -18.63 0z"/>
  <path id="2" class="fil6" d="M1843.18 392.74l19.26 2.54c-3,11.18 -8.61,19.9 -16.79,26.07 -8.18,6.18 -18.63,9.28 -31.36,9.28 -16.02,0 -28.72,-4.94 -38.1,-14.81 -9.38,-9.84 -14.08,-23.71 -14.08,-41.52 0,-18.41 4.73,-32.74 14.22,-42.9 9.49,-10.2 21.8,-15.28 36.94,-15.28 14.64,0 26.6,4.98 35.88,14.96 9.28,9.98 13.93,24.02 13.93,42.12 0,1.09 -0.04,2.75 -0.11,4.94l-81.81 0c0.7,12.03 4.09,21.27 10.23,27.66 6.1,6.38 13.76,9.6 22.9,9.6 6.81,0 12.63,-1.8 17.43,-5.4 4.83,-3.6 8.64,-9.35 11.46,-17.25zm-60.96 -29.85l61.17 0c-0.81,-9.24 -3.18,-16.16 -7.02,-20.78 -5.89,-7.16 -13.58,-10.76 -23,-10.76 -8.54,0 -15.7,2.86 -21.52,8.57 -5.79,5.72 -9,13.37 -9.63,22.97z"/>
  <path id="3" class="fil6" d="M1878.56 395.49l18.41 -2.97c1.02,7.38 3.91,13.02 8.64,16.97 4.73,3.91 11.36,5.89 19.83,5.89 8.57,0 14.92,-1.73 19.09,-5.22 4.13,-3.46 6.21,-7.55 6.21,-12.24 0,-4.2 -1.87,-7.51 -5.57,-9.91 -2.61,-1.66 -8.96,-3.74 -19.05,-6.32 -13.62,-3.42 -23.04,-6.38 -28.33,-8.89 -5.25,-2.54 -9.24,-6 -11.96,-10.44 -2.72,-4.41 -4.09,-9.31 -4.09,-14.67 0,-4.9 1.13,-9.42 3.35,-13.58 2.26,-4.16 5.29,-7.62 9.14,-10.37 2.89,-2.12 6.85,-3.92 11.82,-5.4 5.01,-1.48 10.34,-2.22 16.05,-2.22 8.61,0 16.16,1.24 22.65,3.74 6.53,2.47 11.33,5.86 14.43,10.09 3.07,4.27 5.22,9.95 6.38,17.07l-18.21 2.54c-0.81,-5.71 -3.21,-10.19 -7.16,-13.4 -3.95,-3.21 -9.53,-4.8 -16.76,-4.8 -8.5,0 -14.61,1.41 -18.24,4.23 -3.63,2.82 -5.47,6.14 -5.47,9.91 0,2.4 0.74,4.59 2.26,6.53 1.52,1.98 3.88,3.63 7.13,4.94 1.87,0.71 7.3,2.29 16.4,4.76 13.12,3.49 22.3,6.38 27.52,8.61 5.22,2.22 9.32,5.5 12.28,9.74 3,4.27 4.48,9.56 4.48,15.91 0,6.17 -1.8,12 -5.43,17.46 -3.63,5.47 -8.86,9.7 -15.66,12.7 -6.85,3 -14.57,4.48 -23.18,4.48 -14.25,0 -25.15,-2.96 -32.63,-8.85 -7.48,-5.93 -12.24,-14.68 -14.32,-26.28z"/>
  <path id="4" class="fil6" d="M2066.74 392.74l19.26 2.54c-3,11.18 -8.61,19.9 -16.79,26.07 -8.18,6.18 -18.63,9.28 -31.36,9.28 -16.01,0 -28.71,-4.94 -38.1,-14.81 -9.38,-9.84 -14.08,-23.71 -14.08,-41.52 0,-18.41 4.73,-32.74 14.21,-42.9 9.49,-10.2 21.8,-15.28 36.94,-15.28 14.64,0 26.6,4.98 35.88,14.96 9.28,9.98 13.93,24.02 13.93,42.12 0,1.09 -0.04,2.75 -0.11,4.94l-81.81 0c0.71,12.03 4.09,21.27 10.23,27.66 6.1,6.38 13.76,9.6 22.89,9.6 6.81,0 12.63,-1.8 17.43,-5.4 4.83,-3.6 8.64,-9.35 11.47,-17.25zm-60.96 -29.85l61.17 0c-0.81,-9.24 -3.18,-16.16 -7.02,-20.78 -5.89,-7.16 -13.58,-10.76 -23,-10.76 -8.54,0 -15.7,2.86 -21.52,8.57 -5.78,5.72 -8.99,13.37 -9.63,22.97z"/>
  <path id="5" class="fil6" d="M2109.53 428.3l0 -109.85 16.72 0 0 15.59c8.04,-11.96 19.68,-17.92 34.89,-17.92 6.63,0 12.7,1.2 18.24,3.56 5.54,2.36 9.7,5.5 12.45,9.35 2.75,3.84 4.69,8.43 5.79,13.72 0.67,3.46 1.02,9.49 1.02,18.1l0 67.45 -18.63 0 0 -66.75c0,-7.58 -0.71,-13.26 -2.15,-17 -1.45,-3.74 -4.02,-6.74 -7.69,-9 -3.67,-2.22 -8.01,-3.35 -12.95,-3.35 -7.9,0 -14.71,2.5 -20.46,7.55 -5.75,5.01 -8.61,14.57 -8.61,28.61l0 59.94 -18.63 0z"/>
  <path id="6" class="fil6" d="M2267.68 411.69l2.54 16.44c-5.22,1.1 -9.91,1.66 -14.01,1.66 -6.74,0 -11.96,-1.06 -15.7,-3.21 -3.7,-2.15 -6.31,-4.94 -7.83,-8.43 -1.52,-3.49 -2.26,-10.83 -2.26,-22.01l0 -63.29 -13.76 0 0 -14.39 13.76 0 0 -27.17 18.63 -11.18 0 38.35 18.63 0 0 14.39 -18.63 0 0 64.35c0,5.33 0.32,8.75 0.99,10.26 0.64,1.52 1.69,2.72 3.18,3.63 1.48,0.88 3.6,1.34 6.35,1.34 2.05,0 4.76,-0.25 8.11,-0.74z"/>
  <path id="7" class="fil6" d="M2357.81 414.54c-6.91,5.89 -13.58,10.02 -19.97,12.45 -6.39,2.44 -13.23,3.63 -20.57,3.63 -12.07,0 -21.34,-2.93 -27.83,-8.82 -6.49,-5.86 -9.74,-13.37 -9.74,-22.51 0,-5.36 1.24,-10.27 3.67,-14.71 2.47,-4.45 5.68,-7.97 9.63,-10.65 3.98,-2.68 8.43,-4.73 13.4,-6.11 3.67,-0.95 9.21,-1.87 16.58,-2.78 15.03,-1.76 26.14,-3.92 33.23,-6.38 0.07,-2.54 0.11,-4.17 0.11,-4.84 0,-7.55 -1.76,-12.88 -5.29,-15.98 -4.76,-4.2 -11.86,-6.28 -21.24,-6.28 -8.79,0 -15.28,1.55 -19.44,4.62 -4.2,3.07 -7.27,8.5 -9.28,16.33l-18.2 -2.54c1.66,-7.79 4.38,-14.11 8.18,-18.91 3.81,-4.8 9.31,-8.47 16.51,-11.08 7.16,-2.57 15.52,-3.88 24.98,-3.88 9.38,0 17.04,1.1 22.93,3.32 5.86,2.22 10.2,4.98 12.95,8.33 2.75,3.35 4.69,7.58 5.82,12.7 0.6,3.18 0.92,8.89 0.92,17.11l0 24.7c0,17.25 0.39,28.15 1.16,32.77 0.74,4.62 2.3,9.03 4.55,13.27l-19.47 0c-1.87,-3.92 -3.07,-8.5 -3.6,-13.76zm-1.48 -41.27c-6.77,2.75 -16.93,5.08 -30.48,6.99 -7.69,1.09 -13.12,2.33 -16.3,3.7 -3.18,1.38 -5.61,3.39 -7.34,6 -1.73,2.64 -2.61,5.58 -2.61,8.82 0,4.9 1.87,9.03 5.64,12.31 3.78,3.28 9.28,4.94 16.51,4.94 7.16,0 13.54,-1.55 19.15,-4.69 5.57,-3.11 9.7,-7.38 12.31,-12.77 2.01,-4.2 3,-10.37 3,-18.52l0.11 -6.77z"/>
  <path id="8" class="fil6" d="M2444.21 411.69l2.54 16.44c-5.22,1.1 -9.91,1.66 -14.01,1.66 -6.74,0 -11.96,-1.06 -15.7,-3.21 -3.7,-2.15 -6.32,-4.94 -7.83,-8.43 -1.52,-3.49 -2.26,-10.83 -2.26,-22.01l0 -63.29 -13.76 0 0 -14.39 13.76 0 0 -27.17 18.63 -11.18 0 38.35 18.63 0 0 14.39 -18.63 0 0 64.35c0,5.33 0.32,8.75 0.99,10.26 0.64,1.52 1.69,2.72 3.18,3.63 1.48,0.88 3.6,1.34 6.35,1.34 2.04,0 4.76,-0.25 8.11,-0.74z"/>
  <path id="9" class="fil6" d="M2462.59 297.91l0 -21.17 18.63 0 0 21.17 -18.63 0zm0 130.39l0 -109.85 18.63 0 0 109.85 -18.63 0z"/>
  <path id="10" class="fil6" d="M2502.63 373.37c0,-20.29 5.64,-35.31 16.97,-45.09 9.42,-8.12 20.96,-12.17 34.54,-12.17 15.07,0 27.41,4.94 37.01,14.82 9.56,9.84 14.36,23.5 14.36,40.89 0,14.11 -2.11,25.19 -6.35,33.27 -4.23,8.08 -10.41,14.36 -18.52,18.84 -8.08,4.48 -16.93,6.7 -26.49,6.7 -15.38,0 -27.8,-4.9 -37.29,-14.74 -9.49,-9.84 -14.22,-24.03 -14.22,-42.51zm19.05 0.03c0,14.04 3.07,24.55 9.21,31.5 6.17,6.99 13.9,10.48 23.25,10.48 9.24,0 16.93,-3.49 23.11,-10.51 6.14,-7.02 9.21,-17.71 9.21,-32.07 0,-13.55 -3.11,-23.81 -9.28,-30.76 -6.17,-6.99 -13.86,-10.48 -23.04,-10.48 -9.35,0 -17.07,3.46 -23.25,10.41 -6.14,6.95 -9.21,17.43 -9.21,31.43z"/>
  <path id="11" class="fil6" d="M2627.34 428.3l0 -109.85 16.72 0 0 15.59c8.04,-11.96 19.68,-17.92 34.89,-17.92 6.63,0 12.7,1.2 18.24,3.56 5.54,2.36 9.7,5.5 12.45,9.35 2.75,3.84 4.69,8.43 5.79,13.72 0.67,3.46 1.02,9.49 1.02,18.1l0 67.45 -18.63 0 0 -66.75c0,-7.58 -0.7,-13.26 -2.15,-17 -1.44,-3.74 -4.02,-6.74 -7.69,-9 -3.67,-2.22 -8.01,-3.35 -12.95,-3.35 -7.9,0 -14.71,2.5 -20.46,7.55 -5.75,5.01 -8.61,14.57 -8.61,28.61l0 59.94 -18.63 0z"/>
  <polygon id="12" class="fil6" points="2803.44,428.3 2803.44,276.75 2822.07,276.75 2822.07,428.3 "/>
  <path id="13" class="fil6" d="M2922.65 414.54c-6.91,5.89 -13.58,10.02 -19.97,12.45 -6.39,2.44 -13.23,3.63 -20.57,3.63 -12.07,0 -21.34,-2.93 -27.83,-8.82 -6.49,-5.86 -9.74,-13.37 -9.74,-22.51 0,-5.36 1.23,-10.27 3.67,-14.71 2.47,-4.45 5.68,-7.97 9.63,-10.65 3.99,-2.68 8.43,-4.73 13.41,-6.11 3.67,-0.95 9.21,-1.87 16.58,-2.78 15.03,-1.76 26.14,-3.92 33.23,-6.38 0.07,-2.54 0.1,-4.17 0.1,-4.84 0,-7.55 -1.76,-12.88 -5.29,-15.98 -4.76,-4.2 -11.85,-6.28 -21.24,-6.28 -8.78,0 -15.28,1.55 -19.44,4.62 -4.2,3.07 -7.27,8.5 -9.28,16.33l-18.2 -2.54c1.66,-7.79 4.38,-14.11 8.18,-18.91 3.81,-4.8 9.31,-8.47 16.51,-11.08 7.16,-2.57 15.52,-3.88 24.98,-3.88 9.38,0 17.04,1.1 22.93,3.32 5.86,2.22 10.2,4.98 12.95,8.33 2.75,3.35 4.69,7.58 5.82,12.7 0.6,3.18 0.92,8.89 0.92,17.11l0 24.7c0,17.25 0.39,28.15 1.16,32.77 0.74,4.62 2.3,9.03 4.55,13.27l-19.47 0c-1.87,-3.92 -3.07,-8.5 -3.6,-13.76zm-1.48 -41.27c-6.77,2.75 -16.93,5.08 -30.48,6.99 -7.69,1.09 -13.12,2.33 -16.3,3.7 -3.18,1.38 -5.61,3.39 -7.34,6 -1.73,2.64 -2.61,5.58 -2.61,8.82 0,4.9 1.87,9.03 5.64,12.31 3.77,3.28 9.28,4.94 16.51,4.94 7.16,0 13.55,-1.55 19.15,-4.69 5.57,-3.11 9.7,-7.38 12.31,-12.77 2.01,-4.2 3,-10.37 3,-18.52l0.1 -6.77z"/>
  <path id="14" class="fil6" d="M2967.77 470.53l-2.11 -17.22c4.09,1.09 7.62,1.66 10.65,1.66 4.16,0 7.48,-0.7 9.95,-2.08 2.5,-1.38 4.55,-3.32 6.14,-5.79 1.16,-1.87 3.07,-6.49 5.68,-13.9 0.35,-1.02 0.88,-2.54 1.66,-4.55l-41.7 -110.21 19.89 0 22.93 63.43c3,8.01 5.64,16.48 8.01,25.37 2.15,-8.36 4.69,-16.62 7.65,-24.73l23.43 -64.06 18.59 0 -41.52 111.76c-4.48,12.03 -7.97,20.28 -10.48,24.83 -3.32,6.1 -7.13,10.58 -11.39,13.44 -4.31,2.86 -9.42,4.27 -15.35,4.27 -3.6,0 -7.62,-0.74 -12.03,-2.22z"/>
  <path id="15" class="fil6" d="M3149.38 392.74l19.26 2.54c-3,11.18 -8.61,19.9 -16.79,26.07 -8.19,6.18 -18.63,9.28 -31.36,9.28 -16.01,0 -28.72,-4.94 -38.1,-14.81 -9.38,-9.84 -14.08,-23.71 -14.08,-41.52 0,-18.41 4.73,-32.74 14.22,-42.9 9.49,-10.2 21.8,-15.28 36.94,-15.28 14.64,0 26.6,4.98 35.88,14.96 9.28,9.98 13.93,24.02 13.93,42.12 0,1.09 -0.03,2.75 -0.1,4.94l-81.81 0c0.7,12.03 4.09,21.27 10.23,27.66 6.1,6.38 13.76,9.6 22.89,9.6 6.81,0 12.63,-1.8 17.43,-5.4 4.83,-3.6 8.64,-9.35 11.47,-17.25zm-60.96 -29.85l61.17 0c-0.81,-9.24 -3.17,-16.16 -7.02,-20.78 -5.89,-7.16 -13.58,-10.76 -23,-10.76 -8.54,0 -15.7,2.86 -21.52,8.57 -5.78,5.72 -8.99,13.37 -9.63,22.97z"/>
  <path id="16" class="fil6" d="M3191.96 428.3l0 -109.85 16.72 0 0 16.83c4.27,-7.8 8.22,-12.95 11.85,-15.42 3.63,-2.5 7.62,-3.74 11.96,-3.74 6.28,0 12.66,1.98 19.16,5.89l-6.63 17.18c-4.52,-2.54 -9.03,-3.81 -13.55,-3.81 -4.06,0 -7.69,1.24 -10.9,3.67 -3.21,2.43 -5.51,5.82 -6.88,10.16 -2.08,6.6 -3.1,13.83 -3.1,21.7l0 57.4 -18.63 0z"/>
  <path class="fil7 str0" d="M871.53 947.52l441.53 0c0,-243.85 -197.68,-441.53 -441.53,-441.53 -243.85,0 -441.53,197.68 -441.53,441.53 0,243.85 197.68,441.52 441.53,441.52l0 -441.52z"/>
  <path class="fil8 str0" d="M871.53 947.52l0 441.52c243.85,0 441.53,-197.68 441.53,-441.52l-441.53 0z"/>
  <circle class="fil9 str0" transform="matrix(1.85392E-14 -0.7 0.7 1.85392E-14 871.533 947.518)" r="441.53"/>
  <path class="fil10" d="M1666.39 1625.31l0 -151.98 16.93 0 0 14.43c3.99,-5.57 8.5,-9.77 13.55,-12.56 5.01,-2.79 11.11,-4.2 18.27,-4.2 9.38,0 17.64,2.4 24.8,7.23 7.16,4.8 12.56,11.61 16.23,20.36 3.63,8.78 5.47,18.38 5.47,28.86 0,11.19 -2.01,21.27 -6.03,30.27 -4.02,8.96 -9.88,15.84 -17.57,20.64 -7.65,4.76 -15.73,7.16 -24.2,7.16 -6.21,0 -11.79,-1.3 -16.69,-3.91 -4.94,-2.61 -8.96,-5.89 -12.13,-9.88l0 53.59 -18.63 0zm16.93 -96.38c0,14.08 2.86,24.48 8.54,31.22 5.71,6.74 12.63,10.13 20.74,10.13 8.26,0 15.31,-3.49 21.16,-10.48 5.89,-6.99 8.82,-17.78 8.82,-32.42 0,-13.97 -2.86,-24.41 -8.61,-31.36 -5.75,-6.95 -12.6,-10.4 -20.57,-10.4 -7.9,0 -14.89,3.7 -20.95,11.07 -6.1,7.41 -9.14,18.14 -9.14,32.24z"/>
  <path id="1" class="fil10" d="M1783.9 1583.18l0 -109.86 16.72 0 0 16.83c4.27,-7.8 8.22,-12.95 11.85,-15.42 3.63,-2.5 7.62,-3.74 11.96,-3.74 6.28,0 12.66,1.98 19.15,5.89l-6.63 17.18c-4.52,-2.54 -9.03,-3.81 -13.55,-3.81 -4.06,0 -7.69,1.24 -10.9,3.67 -3.21,2.43 -5.5,5.82 -6.88,10.16 -2.08,6.6 -3.11,13.83 -3.11,21.69l0 57.4 -18.63 0z"/>
  <path id="2" class="fil10" d="M1847.61 1528.26c0,-20.29 5.64,-35.31 16.97,-45.09 9.42,-8.12 20.96,-12.17 34.54,-12.17 15.07,0 27.41,4.94 37.01,14.82 9.56,9.84 14.36,23.5 14.36,40.89 0,14.11 -2.12,25.19 -6.35,33.27 -4.23,8.08 -10.41,14.36 -18.52,18.84 -8.08,4.48 -16.94,6.7 -26.5,6.7 -15.38,0 -27.8,-4.9 -37.29,-14.74 -9.49,-9.84 -14.22,-24.03 -14.22,-42.51zm19.05 0.04c0,14.04 3.07,24.55 9.21,31.5 6.17,6.98 13.9,10.48 23.25,10.48 9.24,0 16.93,-3.49 23.11,-10.51 6.14,-7.02 9.21,-17.71 9.21,-32.07 0,-13.55 -3.11,-23.81 -9.28,-30.76 -6.18,-6.98 -13.87,-10.48 -23.04,-10.48 -9.35,0 -17.07,3.46 -23.25,10.41 -6.14,6.95 -9.21,17.43 -9.21,31.43z"/>
  <path id="3" class="fil10" d="M1972.21 1453.22l0 -21.59 18.63 0 0 21.59 -18.63 0zm-23.57 172.44l3.42 -15.77c3.74,0.95 6.67,1.45 8.82,1.45 3.81,0 6.63,-1.27 8.5,-3.78 1.87,-2.51 2.82,-8.82 2.82,-18.88l0 -115.36 18.63 0 0 115.75c0,13.51 -1.76,22.93 -5.29,28.22 -4.48,6.88 -11.92,10.34 -22.33,10.34 -5.05,0 -9.88,-0.67 -14.57,-1.98z"/>
  <path id="4" class="fil10" d="M2094.27 1547.62l19.26 2.54c-3,11.18 -8.61,19.9 -16.79,26.07 -8.19,6.17 -18.63,9.28 -31.36,9.28 -16.01,0 -28.72,-4.94 -38.1,-14.81 -9.39,-9.84 -14.08,-23.71 -14.08,-41.52 0,-18.41 4.73,-32.74 14.21,-42.9 9.49,-10.2 21.8,-15.28 36.94,-15.28 14.64,0 26.6,4.97 35.88,14.96 9.28,9.98 13.93,24.02 13.93,42.12 0,1.1 -0.03,2.75 -0.11,4.94l-81.81 0c0.7,12.03 4.09,21.27 10.23,27.66 6.1,6.39 13.76,9.6 22.89,9.6 6.81,0 12.63,-1.8 17.43,-5.4 4.83,-3.6 8.64,-9.35 11.47,-17.25zm-60.96 -29.85l61.17 0c-0.81,-9.24 -3.18,-16.16 -7.02,-20.78 -5.89,-7.16 -13.58,-10.76 -23,-10.76 -8.54,0 -15.7,2.86 -21.52,8.57 -5.79,5.71 -9,13.37 -9.63,22.96z"/>
  <path id="5" class="fil10" d="M2208.82 1542.97l18.2 2.54c-2.01,12.52 -7.09,22.3 -15.31,29.39 -8.22,7.09 -18.34,10.62 -30.3,10.62 -14.99,0 -27.06,-4.9 -36.16,-14.71 -9.14,-9.81 -13.69,-23.85 -13.69,-42.12 0,-11.85 1.97,-22.19 5.89,-31.08 3.92,-8.86 9.88,-15.52 17.92,-19.93 8.01,-4.45 16.72,-6.67 26.18,-6.67 11.89,0 21.66,3 29.21,9.03 7.59,6.03 12.45,14.61 14.57,25.68l-17.99 2.75c-1.73,-7.38 -4.76,-12.91 -9.17,-16.65 -4.38,-3.71 -9.67,-5.57 -15.88,-5.57 -9.38,0 -17,3.35 -22.9,10.05 -5.86,6.74 -8.78,17.32 -8.78,31.86 0,14.75 2.82,25.44 8.47,32.1 5.68,6.67 13.05,10.02 22.12,10.02 7.34,0 13.44,-2.22 18.31,-6.7 4.9,-4.44 8.01,-11.32 9.31,-20.6z"/>
  <path id="6" class="fil10" d="M2283.33 1566.57l2.54 16.44c-5.22,1.1 -9.91,1.66 -14.01,1.66 -6.74,0 -11.96,-1.06 -15.7,-3.21 -3.7,-2.15 -6.31,-4.94 -7.83,-8.43 -1.52,-3.49 -2.26,-10.83 -2.26,-22.01l0 -63.29 -13.76 0 0 -14.39 13.76 0 0 -27.16 18.63 -11.18 0 38.35 18.63 0 0 14.39 -18.63 0 0 64.35c0,5.33 0.32,8.75 0.99,10.27 0.64,1.52 1.69,2.72 3.18,3.63 1.48,0.88 3.6,1.34 6.35,1.34 2.05,0 4.76,-0.25 8.11,-0.74z"/>
  <polygon id="7" class="fil10" points="2360.09,1583.18 2360.09,1431.63 2378.72,1431.63 2378.72,1583.18 "/>
  <path id="8" class="fil10" d="M2479.29 1569.43c-6.91,5.89 -13.58,10.02 -19.97,12.45 -6.39,2.43 -13.23,3.63 -20.57,3.63 -12.07,0 -21.34,-2.93 -27.83,-8.82 -6.49,-5.86 -9.74,-13.37 -9.74,-22.51 0,-5.36 1.24,-10.27 3.67,-14.71 2.47,-4.44 5.68,-7.97 9.63,-10.65 3.99,-2.68 8.43,-4.73 13.41,-6.11 3.67,-0.95 9.21,-1.87 16.58,-2.79 15.03,-1.76 26.14,-3.92 33.23,-6.38 0.07,-2.54 0.1,-4.16 0.1,-4.83 0,-7.55 -1.76,-12.88 -5.29,-15.98 -4.76,-4.2 -11.86,-6.28 -21.24,-6.28 -8.79,0 -15.28,1.55 -19.44,4.62 -4.2,3.07 -7.27,8.5 -9.28,16.33l-18.2 -2.54c1.66,-7.79 4.38,-14.11 8.18,-18.91 3.81,-4.8 9.31,-8.47 16.51,-11.08 7.16,-2.58 15.52,-3.88 24.98,-3.88 9.38,0 17.04,1.09 22.93,3.32 5.86,2.22 10.2,4.98 12.95,8.33 2.75,3.35 4.69,7.59 5.82,12.7 0.6,3.17 0.92,8.89 0.92,17.11l0 24.7c0,17.25 0.39,28.15 1.16,32.77 0.74,4.62 2.3,9.03 4.55,13.26l-19.48 0c-1.87,-3.91 -3.07,-8.5 -3.6,-13.76zm-1.48 -41.27c-6.77,2.75 -16.93,5.08 -30.48,6.98 -7.69,1.09 -13.12,2.33 -16.3,3.7 -3.18,1.38 -5.61,3.39 -7.34,6 -1.73,2.64 -2.61,5.57 -2.61,8.82 0,4.9 1.87,9.03 5.64,12.31 3.78,3.28 9.28,4.94 16.51,4.94 7.16,0 13.55,-1.55 19.15,-4.69 5.57,-3.11 9.7,-7.38 12.31,-12.77 2.01,-4.2 3,-10.37 3,-18.52l0.1 -6.77z"/>
  <path id="9" class="fil10" d="M2524.41 1625.41l-2.11 -17.21c4.09,1.09 7.62,1.66 10.65,1.66 4.16,0 7.48,-0.7 9.95,-2.08 2.5,-1.38 4.55,-3.32 6.14,-5.79 1.16,-1.87 3.07,-6.49 5.68,-13.9 0.35,-1.02 0.88,-2.54 1.66,-4.55l-41.7 -110.21 19.89 0 22.93 63.43c3,8.01 5.64,16.47 8.01,25.37 2.15,-8.36 4.69,-16.62 7.65,-24.73l23.43 -64.07 18.59 0 -41.52 111.76c-4.48,12.03 -7.97,20.29 -10.48,24.84 -3.32,6.1 -7.13,10.59 -11.39,13.44 -4.3,2.86 -9.42,4.27 -15.35,4.27 -3.6,0 -7.62,-0.74 -12.03,-2.22z"/>
  <path id="10" class="fil10" d="M2706.03 1547.62l19.26 2.54c-3,11.18 -8.61,19.9 -16.79,26.07 -8.19,6.17 -18.63,9.28 -31.36,9.28 -16.01,0 -28.72,-4.94 -38.1,-14.81 -9.39,-9.84 -14.08,-23.71 -14.08,-41.52 0,-18.41 4.73,-32.74 14.22,-42.9 9.49,-10.2 21.8,-15.28 36.94,-15.28 14.64,0 26.6,4.97 35.88,14.96 9.28,9.98 13.93,24.02 13.93,42.12 0,1.1 -0.03,2.75 -0.11,4.94l-81.81 0c0.7,12.03 4.09,21.27 10.23,27.66 6.1,6.39 13.76,9.6 22.89,9.6 6.81,0 12.63,-1.8 17.43,-5.4 4.83,-3.6 8.64,-9.35 11.47,-17.25zm-60.96 -29.85l61.17 0c-0.81,-9.24 -3.18,-16.16 -7.02,-20.78 -5.89,-7.16 -13.58,-10.76 -23,-10.76 -8.54,0 -15.7,2.86 -21.52,8.57 -5.78,5.71 -8.99,13.37 -9.63,22.96z"/>
  <path id="11" class="fil10" d="M2748.61 1583.18l0 -109.86 16.72 0 0 16.83c4.27,-7.8 8.22,-12.95 11.85,-15.42 3.63,-2.5 7.62,-3.74 11.96,-3.74 6.28,0 12.66,1.98 19.15,5.89l-6.63 17.18c-4.52,-2.54 -9.03,-3.81 -13.55,-3.81 -4.06,0 -7.69,1.24 -10.9,3.67 -3.21,2.43 -5.51,5.82 -6.88,10.16 -2.08,6.6 -3.11,13.83 -3.11,21.69l0 57.4 -18.63 0z"/>
  <path id="12" class="fil10" d="M2811.9 1550.38l18.41 -2.97c1.02,7.38 3.91,13.02 8.64,16.97 4.73,3.91 11.36,5.89 19.82,5.89 8.57,0 14.92,-1.73 19.09,-5.22 4.13,-3.46 6.21,-7.55 6.21,-12.24 0,-4.2 -1.87,-7.51 -5.57,-9.91 -2.61,-1.66 -8.96,-3.74 -19.05,-6.32 -13.62,-3.42 -23.04,-6.38 -28.33,-8.89 -5.26,-2.54 -9.24,-6 -11.96,-10.44 -2.72,-4.41 -4.09,-9.31 -4.09,-14.68 0,-4.9 1.13,-9.42 3.35,-13.58 2.26,-4.16 5.29,-7.62 9.14,-10.37 2.89,-2.12 6.84,-3.92 11.82,-5.4 5.01,-1.48 10.34,-2.22 16.05,-2.22 8.61,0 16.16,1.23 22.65,3.74 6.53,2.47 11.32,5.86 14.43,10.09 3.07,4.27 5.22,9.95 6.39,17.08l-18.21 2.54c-0.81,-5.71 -3.21,-10.19 -7.16,-13.4 -3.95,-3.21 -9.52,-4.8 -16.76,-4.8 -8.5,0 -14.61,1.41 -18.24,4.23 -3.64,2.82 -5.47,6.14 -5.47,9.91 0,2.4 0.74,4.59 2.26,6.53 1.52,1.97 3.88,3.63 7.13,4.94 1.87,0.7 7.3,2.29 16.4,4.76 13.12,3.49 22.3,6.39 27.52,8.61 5.22,2.22 9.32,5.51 12.28,9.74 3,4.27 4.48,9.56 4.48,15.91 0,6.18 -1.8,11.99 -5.43,17.46 -3.63,5.47 -8.86,9.7 -15.66,12.7 -6.84,3 -14.57,4.48 -23.18,4.48 -14.25,0 -25.15,-2.96 -32.63,-8.86 -7.48,-5.92 -12.24,-14.67 -14.32,-26.28z"/>
 </g>
</svg>
